Scada-Regular.ufo
<glyph name="quotedbl" format="2">
  <advance width="340"/>
  <unicode hex="0022"/>
  <outline>
    <contour>
      <point x="280" y="460" type="line"/>
      <point x="300" y="700" type="line"/>
      <point x="195" y="700" type="line"/>
      <point x="215" y="460" type="line"/>
    </contour>
    <contour>
      <point x="125" y="460" type="line"/>
      <point x="145" y="700" type="line"/>
      <point x="40" y="700" type="line"/>
      <point x="60" y="460" type="line"/>
    </contour>
  </outline>
</glyph>
<glyph name="ampersand" format="2">
  <advance width="615"/>
  <unicode hex="0026"/>
  <outline>
    <contour>
      <point x="240" y="-10" type="curve" smooth="yes"/>
      <point x="316" y="-10"/>
      <point x="384" y="15"/>
      <point x="440" y="60" type="curve"/>
      <point x="490" y="0" type="line"/>
      <point x="610" y="0" type="line"/>
      <point x="505" y="125" type="line"/>
      <point x="540" y="181"/>
      <point x="560" y="244"/>
      <point x="560" y="320" type="curve"/>
      <point x="470" y="320" type="line"/>
      <point x="470" y="269"/>
      <point x="465" y="225"/>
      <point x="450" y="190" type="curve"/>
      <point x="300" y="370" type="line"/>
      <point x="325" y="386"/>
      <point x="347" y="404"/>
      <point x="367" y="424" type="curve" smooth="yes"/>
      <point x="402" y="459"/>
      <point x="435" y="504"/>
      <point x="435" y="560" type="curve" smooth="yes"/>
      <point x="435" y="645"/>
      <point x="369" y="710"/>
      <point x="265" y="710" type="curve" smooth="yes"/>
      <point x="154" y="710"/>
      <point x="90" y="646"/>
      <point x="90" y="550" type="curve" smooth="yes"/>
      <point x="90" y="505"/>
      <point x="111" y="462"/>
      <point x="132" y="431" type="curve" smooth="yes"/>
      <point x="144" y="413"/>
      <point x="158" y="396"/>
      <point x="175" y="380" type="curve"/>
      <point x="100" y="329"/>
      <point x="30" y="271"/>
      <point x="30" y="180" type="curve" smooth="yes"/>
      <point x="30" y="70"/>
      <point x="109" y="-10"/>
    </contour>
    <contour>
      <point x="260" y="60" type="curve" smooth="yes"/>
      <point x="180" y="60"/>
      <point x="130" y="109"/>
      <point x="130" y="180" type="curve" smooth="yes"/>
      <point x="130" y="235"/>
      <point x="170" y="275"/>
      <point x="225" y="315" type="curve"/>
      <point x="395" y="110" type="line"/>
      <point x="360" y="75"/>
      <point x="316" y="60"/>
    </contour>
    <contour>
      <point x="250" y="435" type="curve"/>
      <point x="239" y="447"/>
      <point x="229" y="459"/>
      <point x="220" y="472" type="curve"/>
      <point x="205" y="495"/>
      <point x="190" y="522"/>
      <point x="190" y="550" type="curve" smooth="yes"/>
      <point x="190" y="615"/>
      <point x="220" y="645"/>
      <point x="265" y="645" type="curve" smooth="yes"/>
      <point x="305" y="645"/>
      <point x="335" y="616"/>
      <point x="335" y="560" type="curve" smooth="yes"/>
      <point x="335" y="525"/>
      <point x="313" y="494"/>
      <point x="292" y="471" type="curve" smooth="yes"/>
      <point x="280" y="458"/>
      <point x="266" y="446"/>
    </contour>
  </outline>
</glyph>
<glyph name="quotesingle" format="2">
  <advance width="185"/>
  <unicode hex="0027"/>
  <outline>
    <contour>
      <point x="125" y="460" type="line"/>
      <point x="145" y="700" type="line"/>
      <point x="40" y="700" type="line"/>
      <point x="60" y="460" type="line"/>
    </contour>
  </outline>
</glyph>
<glyph name="parenright" format="2">
  <advance width="285"/>
  <unicode hex="0029"/>
  <outline>
    <contour>
      <point x="40" y="-175" type="line"/>
      <point x="165" y="-60"/>
      <point x="230" y="109"/>
      <point x="230" y="280" type="curve" smooth="yes"/>
      <point x="230" y="451"/>
      <point x="165" y="620"/>
      <point x="40" y="735" type="curve"/>
      <point x="0" y="695" type="line"/>
      <point x="80" y="579"/>
      <point x="130" y="451"/>
      <point x="130" y="280" type="curve" smooth="yes"/>
      <point x="130" y="109"/>
      <point x="80" y="-19"/>
      <point x="0" y="-135" type="curve"/>
    </contour>
  </outline>
</glyph>
<glyph name="asterisk" format="2">
  <advance width="410"/>
  <unicode hex="002A"/>
  <outline>
    <contour>
      <point x="240" y="340" type="line"/>
      <point x="240" y="460" type="line"/>
      <point x="345" y="400" type="line"/>
      <point x="380" y="460" type="line"/>
      <point x="275" y="520" type="line"/>
      <point x="380" y="580" type="line"/>
      <point x="345" y="640" type="line"/>
      <point x="240" y="580" type="line"/>
      <point x="240" y="700" type="line"/>
      <point x="170" y="700" type="line"/>
      <point x="170" y="580" type="line"/>
      <point x="65" y="640" type="line"/>
      <point x="30" y="580" type="line"/>
      <point x="135" y="520" type="line"/>
      <point x="30" y="460" type="line"/>
      <point x="65" y="400" type="line"/>
      <point x="170" y="460" type="line"/>
      <point x="170" y="340" type="line"/>
    </contour>
  </outline>
</glyph>
<glyph name="plus" format="2">
  <advance width="470"/>
  <unicode hex="002B"/>
  <outline>
    <contour>
      <point x="275" y="125" type="line"/>
      <point x="275" y="290" type="line"/>
      <point x="440" y="290" type="line"/>
      <point x="440" y="370" type="line"/>
      <point x="275" y="370" type="line"/>
      <point x="275" y="535" type="line"/>
      <point x="195" y="535" type="line"/>
      <point x="195" y="370" type="line"/>
      <point x="30" y="370" type="line"/>
      <point x="30" y="290" type="line"/>
      <point x="195" y="290" type="line"/>
      <point x="195" y="125" type="line"/>
    </contour>
  </outline>
</glyph>
<glyph name="period" format="2">
  <advance width="200"/>
  <unicode hex="002E"/>
  <outline>
    <contour>
      <point x="100" y="-10" type="curve" smooth="yes"/>
      <point x="135" y="-10"/>
      <point x="160" y="15"/>
      <point x="160" y="50" type="curve" smooth="yes"/>
      <point x="160" y="85"/>
      <point x="135" y="110"/>
      <point x="100" y="110" type="curve" smooth="yes"/>
      <point x="65" y="110"/>
      <point x="40" y="85"/>
      <point x="40" y="50" type="curve" smooth="yes"/>
      <point x="40" y="15"/>
      <point x="65" y="-10"/>
    </contour>
  </outline>
</glyph>
<glyph name="zero" format="2">
  <advance width="580"/>
  <unicode hex="0030"/>
  <outline>
    <contour>
      <point x="290" y="-10" type="curve" smooth="yes"/>
      <point x="426" y="-10"/>
      <point x="525" y="90"/>
      <point x="525" y="350" type="curve" smooth="yes"/>
      <point x="525" y="610"/>
      <point x="426" y="710"/>
      <point x="290" y="710" type="curve" smooth="yes"/>
      <point x="154" y="710"/>
      <point x="55" y="610"/>
      <point x="55" y="350" type="curve" smooth="yes"/>
      <point x="55" y="90"/>
      <point x="154" y="-10"/>
    </contour>
    <contour>
      <point x="290" y="60" type="curve" smooth="yes"/>
      <point x="215" y="60"/>
      <point x="155" y="121"/>
      <point x="155" y="350" type="curve" smooth="yes"/>
      <point x="155" y="579"/>
      <point x="215" y="640"/>
      <point x="290" y="640" type="curve" smooth="yes"/>
      <point x="365" y="640"/>
      <point x="425" y="579"/>
      <point x="425" y="350" type="curve" smooth="yes"/>
      <point x="425" y="121"/>
      <point x="365" y="60"/>
    </contour>
  </outline>
</glyph>
<glyph name="one" format="2">
  <advance width="390"/>
  <unicode hex="0031"/>
  <outline>
    <contour>
      <point x="370" y="0" type="line"/>
      <point x="370" y="70" type="line"/>
      <point x="260" y="70" type="line"/>
      <point x="260" y="700" type="line"/>
      <point x="170" y="700" type="line"/>
      <point x="20" y="580" type="line"/>
      <point x="60" y="525" type="line"/>
      <point x="160" y="590" type="line"/>
      <point x="160" y="70" type="line"/>
      <point x="50" y="70" type="line"/>
      <point x="50" y="0" type="line"/>
    </contour>
  </outline>
</glyph>
<glyph name="four" format="2">
  <advance width="540"/>
  <unicode hex="0034"/>
  <outline>
    <contour>
      <point x="440" y="0" type="line"/>
      <point x="440" y="170" type="line"/>
      <point x="520" y="170" type="line"/>
      <point x="520" y="240" type="line"/>
      <point x="440" y="240" type="line"/>
      <point x="440" y="700" type="line"/>
      <point x="340" y="700" type="line"/>
      <point x="10" y="240" type="line"/>
      <point x="10" y="170" type="line"/>
      <point x="340" y="170" type="line"/>
      <point x="340" y="0" type="line"/>
    </contour>
    <contour>
      <point x="305" y="500" type="line"/>
      <point x="313" y="512"/>
      <point x="322" y="529"/>
      <point x="330" y="544" type="curve"/>
      <point x="335" y="552"/>
      <point x="339" y="561"/>
      <point x="344" y="570" type="curve"/>
      <point x="348" y="570" type="line"/>
      <point x="344" y="544" type="line"/>
      <point x="341" y="529"/>
      <point x="340" y="512"/>
      <point x="340" y="500" type="curve" smooth="yes"/>
      <point x="340" y="240" type="line"/>
      <point x="120" y="240" type="line"/>
    </contour>
  </outline>
</glyph>
<glyph name="less" format="2">
  <advance width="470"/>
  <unicode hex="003C"/>
  <outline>
    <contour>
      <point x="430" y="95" type="line"/>
      <point x="150" y="250" type="line"/>
      <point x="430" y="405" type="line"/>
      <point x="430" y="500" type="line"/>
      <point x="40" y="285" type="line"/>
      <point x="40" y="215" type="line"/>
      <point x="430" y="0" type="line"/>
    </contour>
  </outline>
</glyph>
<glyph name="equal" format="2">
  <advance width="470"/>
  <unicode hex="003D"/>
  <outline>
    <contour>
      <point x="435" y="380" type="line"/>
      <point x="435" y="460" type="line"/>
      <point x="35" y="460" type="line"/>
      <point x="35" y="380" type="line"/>
    </contour>
    <contour>
      <point x="435" y="200" type="line"/>
      <point x="435" y="280" type="line"/>
      <point x="35" y="280" type="line"/>
      <point x="35" y="200" type="line"/>
    </contour>
  </outline>
</glyph>
<glyph name="greater" format="2">
  <advance width="445"/>
  <unicode hex="003E"/>
  <outline>
    <contour>
      <point x="425" y="215" type="line"/>
      <point x="425" y="285" type="line"/>
      <point x="35" y="500" type="line"/>
      <point x="35" y="405" type="line"/>
      <point x="315" y="250" type="line"/>
      <point x="35" y="95" type="line"/>
      <point x="35" y="0" type="line"/>
    </contour>
  </outline>
</glyph>
<glyph name="at" format="2">
  <advance width="930"/>
  <unicode hex="0040"/>
  <outline>
    <contour>
      <point x="455" y="-120" type="curve" smooth="yes"/>
      <point x="526" y="-120"/>
      <point x="579" y="-108"/>
      <point x="615" y="-93" type="curve"/>
      <point x="636" y="-85"/>
      <point x="655" y="-76"/>
      <point x="670" y="-65" type="curve"/>
      <point x="635" y="-5" type="line"/>
      <point x="625" y="-5" type="line"/>
      <point x="612" y="-14"/>
      <point x="598" y="-21"/>
      <point x="582" y="-28" type="curve"/>
      <point x="554" y="-39"/>
      <point x="516" y="-50"/>
      <point x="465" y="-50" type="curve" smooth="yes"/>
      <point x="276" y="-50"/>
      <point x="135" y="89"/>
      <point x="135" y="300" type="curve" smooth="yes"/>
      <point x="135" y="511"/>
      <point x="276" y="650"/>
      <point x="465" y="650" type="curve" smooth="yes"/>
      <point x="654" y="650"/>
      <point x="795" y="511"/>
      <point x="795" y="300" type="curve" smooth="yes"/>
      <point x="795" y="164"/>
      <point x="739" y="120"/>
      <point x="695" y="120" type="curve" smooth="yes"/>
      <point x="682" y="120"/>
      <point x="671" y="125"/>
      <point x="663" y="130" type="curve" smooth="yes"/>
      <point x="658" y="133"/>
      <point x="654" y="136"/>
      <point x="650" y="140" type="curve"/>
      <point x="650" y="525" type="line"/>
      <point x="580" y="525" type="line"/>
      <point x="570" y="470" type="line"/>
      <point x="565" y="470" type="line"/>
      <point x="556" y="482"/>
      <point x="545" y="493"/>
      <point x="532" y="502" type="curve" smooth="yes"/>
      <point x="509" y="518"/>
      <point x="478" y="535"/>
      <point x="435" y="535" type="curve" smooth="yes"/>
      <point x="335" y="535"/>
      <point x="260" y="459"/>
      <point x="260" y="295" type="curve" smooth="yes"/>
      <point x="260" y="131"/>
      <point x="335" y="55"/>
      <point x="435" y="55" type="curve" smooth="yes"/>
      <point x="475" y="55"/>
      <point x="507" y="67"/>
      <point x="530" y="82" type="curve"/>
      <point x="543" y="90"/>
      <point x="554" y="99"/>
      <point x="565" y="110" type="curve"/>
      <point x="570" y="110" type="line"/>
      <point x="578" y="99"/>
      <point x="588" y="90"/>
      <point x="600" y="82" type="curve"/>
      <point x="621" y="67"/>
      <point x="654" y="55"/>
      <point x="705" y="55" type="curve" smooth="yes"/>
      <point x="805" y="55"/>
      <point x="885" y="135"/>
      <point x="885" y="300" type="curve" smooth="yes"/>
      <point x="885" y="540"/>
      <point x="705" y="720"/>
      <point x="465" y="720" type="curve" smooth="yes"/>
      <point x="225" y="720"/>
      <point x="45" y="540"/>
      <point x="45" y="300" type="curve" smooth="yes"/>
      <point x="45" y="60"/>
      <point x="225" y="-120"/>
    </contour>
    <contour>
      <point x="460" y="130" type="curve" smooth="yes"/>
      <point x="405" y="130"/>
      <point x="360" y="175"/>
      <point x="360" y="295" type="curve" smooth="yes"/>
      <point x="360" y="415"/>
      <point x="405" y="460"/>
      <point x="460" y="460" type="curve" smooth="yes"/>
      <point x="485" y="460"/>
      <point x="508" y="447"/>
      <point x="524" y="432" type="curve"/>
      <point x="533" y="424"/>
      <point x="542" y="415"/>
      <point x="550" y="405" type="curve"/>
      <point x="550" y="175" type="line"/>
      <point x="542" y="166"/>
      <point x="533" y="159"/>
      <point x="524" y="152" type="curve"/>
      <point x="508" y="141"/>
      <point x="485" y="130"/>
    </contour>
  </outline>
</glyph>
<glyph name="B" format="2">
  <advance width="575"/>
  <unicode hex="0042"/>
  <outline>
    <contour>
      <point x="280" y="0" type="line" smooth="yes"/>
      <point x="450" y="0"/>
      <point x="525" y="75"/>
      <point x="525" y="190" type="curve" smooth="yes"/>
      <point x="525" y="267"/>
      <point x="490" y="311"/>
      <point x="455" y="338" type="curve" smooth="yes"/>
      <point x="434" y="353"/>
      <point x="411" y="364"/>
      <point x="385" y="370" type="curve"/>
      <point x="406" y="376"/>
      <point x="425" y="386"/>
      <point x="442" y="399" type="curve" smooth="yes"/>
      <point x="471" y="422"/>
      <point x="500" y="460"/>
      <point x="500" y="525" type="curve" smooth="yes"/>
      <point x="500" y="625"/>
      <point x="425" y="700"/>
      <point x="280" y="700" type="curve" smooth="yes"/>
      <point x="90" y="700" type="line"/>
      <point x="90" y="0" type="line"/>
    </contour>
    <contour>
      <point x="190" y="330" type="line"/>
      <point x="280" y="330" type="line"/>
      <point x="380" y="330"/>
      <point x="425" y="285"/>
      <point x="425" y="200" type="curve" smooth="yes"/>
      <point x="425" y="115"/>
      <point x="380" y="70"/>
      <point x="280" y="70" type="curve" smooth="yes"/>
      <point x="190" y="70" type="line"/>
    </contour>
    <contour>
      <point x="190" y="630" type="line"/>
      <point x="280" y="630" type="line" smooth="yes"/>
      <point x="356" y="630"/>
      <point x="400" y="586"/>
      <point x="400" y="515" type="curve" smooth="yes"/>
      <point x="400" y="444"/>
      <point x="356" y="400"/>
      <point x="280" y="400" type="curve" smooth="yes"/>
      <point x="190" y="400" type="line"/>
    </contour>
  </outline>
</glyph>
<glyph name="C" format="2">
  <advance width="515"/>
  <unicode hex="0043"/>
  <outline>
    <contour>
      <point x="315" y="-10" type="curve" smooth="yes"/>
      <point x="371" y="-10"/>
      <point x="413" y="2"/>
      <point x="444" y="17" type="curve" smooth="yes"/>
      <point x="461" y="25"/>
      <point x="477" y="34"/>
      <point x="490" y="45" type="curve"/>
      <point x="455" y="105" type="line"/>
      <point x="445" y="105" type="line"/>
      <point x="434" y="96"/>
      <point x="423" y="89"/>
      <point x="411" y="82" type="curve" smooth="yes"/>
      <point x="390" y="71"/>
      <point x="360" y="60"/>
      <point x="325" y="60" type="curve" smooth="yes"/>
      <point x="225" y="60"/>
      <point x="155" y="130"/>
      <point x="155" y="350" type="curve" smooth="yes"/>
      <point x="155" y="570"/>
      <point x="225" y="640"/>
      <point x="315" y="640" type="curve" smooth="yes"/>
      <point x="350" y="640"/>
      <point x="380" y="628"/>
      <point x="401" y="617" type="curve" smooth="yes"/>
      <point x="413" y="610"/>
      <point x="424" y="603"/>
      <point x="435" y="595" type="curve"/>
      <point x="445" y="595" type="line"/>
      <point x="480" y="655" type="line"/>
      <point x="467" y="665"/>
      <point x="451" y="674"/>
      <point x="434" y="682" type="curve" smooth="yes"/>
      <point x="403" y="697"/>
      <point x="361" y="710"/>
      <point x="305" y="710" type="curve" smooth="yes"/>
      <point x="156" y="710"/>
      <point x="55" y="610"/>
      <point x="55" y="350" type="curve" smooth="yes"/>
      <point x="55" y="90"/>
      <point x="155" y="-10"/>
    </contour>
  </outline>
</glyph>
<glyph name="G" format="2">
  <advance width="565"/>
  <unicode hex="0047"/>
  <outline>
    <contour>
      <point x="315" y="-10" type="curve" smooth="yes"/>
      <point x="372" y="-10"/>
      <point x="419" y="2"/>
      <point x="451" y="17" type="curve" smooth="yes"/>
      <point x="470" y="25"/>
      <point x="486" y="34"/>
      <point x="500" y="45" type="curve"/>
      <point x="500" y="350" type="line"/>
      <point x="470" y="380" type="line"/>
      <point x="285" y="380" type="line"/>
      <point x="285" y="310" type="line"/>
      <point x="400" y="310" type="line"/>
      <point x="400" y="80" type="line"/>
      <point x="400" y="80"/>
      <point x="365" y="61"/>
      <point x="325" y="60" type="curve"/>
      <point x="225" y="60"/>
      <point x="155" y="130"/>
      <point x="155" y="350" type="curve" smooth="yes"/>
      <point x="155" y="570"/>
      <point x="225" y="640"/>
      <point x="315" y="640" type="curve" smooth="yes"/>
      <point x="350" y="640"/>
      <point x="380" y="628"/>
      <point x="401" y="617" type="curve" smooth="yes"/>
      <point x="413" y="610"/>
      <point x="424" y="603"/>
      <point x="435" y="595" type="curve"/>
      <point x="445" y="595" type="line"/>
      <point x="480" y="655" type="line"/>
      <point x="467" y="665"/>
      <point x="451" y="674"/>
      <point x="434" y="682" type="curve" smooth="yes"/>
      <point x="403" y="697"/>
      <point x="361" y="710"/>
      <point x="305" y="710" type="curve" smooth="yes"/>
      <point x="165" y="710"/>
      <point x="55" y="601"/>
      <point x="55" y="350" type="curve" smooth="yes"/>
      <point x="55" y="99"/>
      <point x="165" y="-10"/>
    </contour>
  </outline>
</glyph>
<glyph name="H" format="2">
  <advance width="630"/>
  <unicode hex="0048"/>
  <outline>
    <contour>
      <point x="190" y="0" type="line"/>
      <point x="190" y="320" type="line"/>
      <point x="440" y="320" type="line"/>
      <point x="440" y="0" type="line"/>
      <point x="540" y="0" type="line"/>
      <point x="540" y="700" type="line"/>
      <point x="440" y="700" type="line"/>
      <point x="440" y="390" type="line"/>
      <point x="190" y="390" type="line"/>
      <point x="190" y="700" type="line"/>
      <point x="90" y="700" type="line"/>
      <point x="90" y="0" type="line"/>
    </contour>
  </outline>
</glyph>
<glyph name="J" format="2">
  <advance width="425"/>
  <unicode hex="004A"/>
  <outline>
    <contour>
      <point x="135" y="-10" type="curve" smooth="yes"/>
      <point x="271" y="-10"/>
      <point x="340" y="59"/>
      <point x="340" y="190" type="curve" smooth="yes"/>
      <point x="340" y="700" type="line"/>
      <point x="240" y="700" type="line"/>
      <point x="240" y="190" type="line" smooth="yes"/>
      <point x="240" y="99"/>
      <point x="201" y="60"/>
      <point x="125" y="60" type="curve" smooth="yes"/>
      <point x="102" y="60"/>
      <point x="82" y="69"/>
      <point x="66" y="80" type="curve" smooth="yes"/>
      <point x="57" y="86"/>
      <point x="48" y="93"/>
      <point x="40" y="100" type="curve"/>
      <point x="30" y="100" type="line"/>
      <point x="0" y="35" type="line"/>
      <point x="11" y="26"/>
      <point x="23" y="19"/>
      <point x="37" y="12" type="curve" smooth="yes"/>
      <point x="61" y="1"/>
      <point x="95" y="-10"/>
    </contour>
  </outline>
</glyph>
<glyph name="M" format="2">
  <advance width="840"/>
  <unicode hex="004D"/>
  <outline>
    <contour>
      <point x="190" y="0" type="line"/>
      <point x="190" y="440" type="line" smooth="yes"/>
      <point x="190" y="455"/>
      <point x="189" y="475"/>
      <point x="188" y="494" type="curve" smooth="yes"/>
      <point x="186" y="525" type="line"/>
      <point x="190" y="525" type="line"/>
      <point x="199" y="494" type="line"/>
      <point x="206" y="475"/>
      <point x="212" y="455"/>
      <point x="220" y="440" type="curve" smooth="yes"/>
      <point x="380" y="125" type="line"/>
      <point x="460" y="125" type="line"/>
      <point x="620" y="440" type="line" smooth="yes"/>
      <point x="628" y="455"/>
      <point x="634" y="475"/>
      <point x="641" y="494" type="curve"/>
      <point x="650" y="525" type="line"/>
      <point x="654" y="525" type="line"/>
      <point x="652" y="494" type="line" smooth="yes"/>
      <point x="651" y="475"/>
      <point x="650" y="455"/>
      <point x="650" y="440" type="curve" smooth="yes"/>
      <point x="650" y="0" type="line"/>
      <point x="750" y="0" type="line"/>
      <point x="750" y="700" type="line"/>
      <point x="650" y="700" type="line"/>
      <point x="440" y="275" type="line"/>
      <point x="435" y="267"/>
      <point x="430" y="255"/>
      <point x="427" y="244" type="curve" smooth="yes"/>
      <point x="425" y="237"/>
      <point x="423" y="231"/>
      <point x="422" y="225" type="curve"/>
      <point x="418" y="225" type="line"/>
      <point x="417" y="231"/>
      <point x="415" y="237"/>
      <point x="413" y="244" type="curve" smooth="yes"/>
      <point x="410" y="255"/>
      <point x="405" y="267"/>
      <point x="400" y="275" type="curve"/>
      <point x="190" y="700" type="line"/>
      <point x="90" y="700" type="line"/>
      <point x="90" y="0" type="line"/>
    </contour>
  </outline>
</glyph>
<glyph name="N" format="2">
  <advance width="630"/>
  <unicode hex="004E"/>
  <outline>
    <contour>
      <point x="190" y="0" type="line"/>
      <point x="190" y="465" type="line" smooth="yes"/>
      <point x="190" y="480"/>
      <point x="189" y="500"/>
      <point x="188" y="519" type="curve" smooth="yes"/>
      <point x="186" y="550" type="line"/>
      <point x="190" y="550" type="line"/>
      <point x="193" y="539"/>
      <point x="197" y="529"/>
      <point x="200" y="519" type="curve" smooth="yes"/>
      <point x="206" y="500"/>
      <point x="213" y="480"/>
      <point x="220" y="465" type="curve" smooth="yes"/>
      <point x="430" y="0" type="line"/>
      <point x="540" y="0" type="line"/>
      <point x="540" y="700" type="line"/>
      <point x="440" y="700" type="line"/>
      <point x="440" y="235" type="line" smooth="yes"/>
      <point x="440" y="220"/>
      <point x="441" y="198"/>
      <point x="442" y="181" type="curve" smooth="yes"/>
      <point x="444" y="150" type="line"/>
      <point x="440" y="150" type="line"/>
      <point x="437" y="160"/>
      <point x="433" y="170"/>
      <point x="430" y="181" type="curve"/>
      <point x="423" y="198"/>
      <point x="417" y="220"/>
      <point x="410" y="235" type="curve" smooth="yes"/>
      <point x="200" y="700" type="line"/>
      <point x="90" y="700" type="line"/>
      <point x="90" y="0" type="line"/>
    </contour>
  </outline>
</glyph>
<glyph name="O" format="2">
  <advance width="600"/>
  <unicode hex="004F"/>
  <outline>
    <contour>
      <point x="300" y="-10" type="curve" smooth="yes"/>
      <point x="445" y="-10"/>
      <point x="545" y="90"/>
      <point x="545" y="350" type="curve" smooth="yes"/>
      <point x="545" y="610"/>
      <point x="445" y="710"/>
      <point x="300" y="710" type="curve" smooth="yes"/>
      <point x="155" y="710"/>
      <point x="55" y="610"/>
      <point x="55" y="350" type="curve" smooth="yes"/>
      <point x="55" y="90"/>
      <point x="155" y="-10"/>
    </contour>
    <contour>
      <point x="300" y="60" type="curve" smooth="yes"/>
      <point x="225" y="60"/>
      <point x="155" y="130"/>
      <point x="155" y="350" type="curve" smooth="yes"/>
      <point x="155" y="570"/>
      <point x="225" y="640"/>
      <point x="300" y="640" type="curve" smooth="yes"/>
      <point x="375" y="640"/>
      <point x="445" y="570"/>
      <point x="445" y="350" type="curve" smooth="yes"/>
      <point x="445" y="130"/>
      <point x="375" y="60"/>
    </contour>
  </outline>
</glyph>
<glyph name="P" format="2">
  <advance width="565"/>
  <unicode hex="0050"/>
  <outline>
    <contour>
      <point x="190" y="0" type="line"/>
      <point x="190" y="240" type="line"/>
      <point x="270" y="240" type="line" smooth="yes"/>
      <point x="441" y="240"/>
      <point x="520" y="319"/>
      <point x="520" y="470" type="curve" smooth="yes"/>
      <point x="520" y="621"/>
      <point x="441" y="700"/>
      <point x="270" y="700" type="curve" smooth="yes"/>
      <point x="90" y="700" type="line"/>
      <point x="90" y="0" type="line"/>
    </contour>
    <contour>
      <point x="190" y="630" type="line"/>
      <point x="270" y="630" type="line" smooth="yes"/>
      <point x="370" y="630"/>
      <point x="420" y="581"/>
      <point x="420" y="470" type="curve" smooth="yes"/>
      <point x="420" y="359"/>
      <point x="370" y="310"/>
      <point x="270" y="310" type="curve" smooth="yes"/>
      <point x="190" y="310" type="line"/>
    </contour>
  </outline>
</glyph>
<glyph name="R" format="2">
  <advance width="575"/>
  <unicode hex="0052"/>
  <outline>
    <contour>
      <point x="190" y="0" type="line"/>
      <point x="190" y="260" type="line"/>
      <point x="270" y="260" type="line"/>
      <point x="425" y="0" type="line"/>
      <point x="540" y="0" type="line"/>
      <point x="373" y="275" type="line"/>
      <point x="464" y="305"/>
      <point x="510" y="373"/>
      <point x="510" y="480" type="curve" smooth="yes"/>
      <point x="510" y="621"/>
      <point x="431" y="700"/>
      <point x="260" y="700" type="curve" smooth="yes"/>
      <point x="90" y="700" type="line"/>
      <point x="90" y="0" type="line"/>
    </contour>
    <contour>
      <point x="190" y="630" type="line"/>
      <point x="260" y="630" type="line" smooth="yes"/>
      <point x="360" y="630"/>
      <point x="410" y="580"/>
      <point x="410" y="480" type="curve" smooth="yes"/>
      <point x="410" y="380"/>
      <point x="360" y="330"/>
      <point x="260" y="330" type="curve" smooth="yes"/>
      <point x="190" y="330" type="line"/>
    </contour>
  </outline>
</glyph>
<glyph name="S" format="2">
  <advance width="505"/>
  <unicode hex="0053"/>
  <outline>
    <contour>
      <point x="240" y="-10" type="curve" smooth="yes"/>
      <point x="389" y="-10"/>
      <point x="470" y="70"/>
      <point x="470" y="190" type="curve" smooth="yes"/>
      <point x="470" y="410"/>
      <point x="145" y="370"/>
      <point x="145" y="530" type="curve" smooth="yes"/>
      <point x="145" y="589"/>
      <point x="196" y="640"/>
      <point x="265" y="640" type="curve" smooth="yes"/>
      <point x="310" y="640"/>
      <point x="345" y="628"/>
      <point x="369" y="617" type="curve" smooth="yes"/>
      <point x="383" y="610"/>
      <point x="395" y="603"/>
      <point x="405" y="595" type="curve"/>
      <point x="415" y="595" type="line"/>
      <point x="450" y="655" type="line"/>
      <point x="436" y="665"/>
      <point x="420" y="674"/>
      <point x="401" y="682" type="curve" smooth="yes"/>
      <point x="368" y="697"/>
      <point x="320" y="710"/>
      <point x="255" y="710" type="curve" smooth="yes"/>
      <point x="124" y="710"/>
      <point x="45" y="630"/>
      <point x="45" y="520" type="curve" smooth="yes"/>
      <point x="45" y="300"/>
      <point x="370" y="340"/>
      <point x="370" y="180" type="curve" smooth="yes"/>
      <point x="370" y="109"/>
      <point x="321" y="60"/>
      <point x="230" y="60" type="curve" smooth="yes"/>
      <point x="185" y="60"/>
      <point x="148" y="71"/>
      <point x="121" y="82" type="curve" smooth="yes"/>
      <point x="106" y="89"/>
      <point x="92" y="96"/>
      <point x="80" y="105" type="curve"/>
      <point x="70" y="105" type="line"/>
      <point x="35" y="45" type="line"/>
      <point x="50" y="34"/>
      <point x="68" y="25"/>
      <point x="89" y="17" type="curve"/>
      <point x="124" y="2"/>
      <point x="175" y="-10"/>
    </contour>
  </outline>
</glyph>
<glyph name="U" format="2">
  <advance width="620"/>
  <unicode hex="0055"/>
  <outline>
    <contour>
      <point x="310" y="-10" type="curve" smooth="yes"/>
      <point x="455" y="-10"/>
      <point x="535" y="69"/>
      <point x="535" y="220" type="curve" smooth="yes"/>
      <point x="535" y="700" type="line"/>
      <point x="435" y="700" type="line"/>
      <point x="435" y="220" type="line" smooth="yes"/>
      <point x="435" y="109"/>
      <point x="386" y="60"/>
      <point x="310" y="60" type="curve" smooth="yes"/>
      <point x="234" y="60"/>
      <point x="185" y="109"/>
      <point x="185" y="220" type="curve" smooth="yes"/>
      <point x="185" y="700" type="line"/>
      <point x="85" y="700" type="line"/>
      <point x="85" y="220" type="line" smooth="yes"/>
      <point x="85" y="69"/>
      <point x="165" y="-10"/>
    </contour>
  </outline>
</glyph>
<glyph name="X" format="2">
  <advance width="530"/>
  <unicode hex="0058"/>
  <outline>
    <contour>
      <point x="125" y="0" type="line"/>
      <point x="245" y="235" type="line"/>
      <point x="250" y="244"/>
      <point x="254" y="254"/>
      <point x="257" y="264" type="curve"/>
      <point x="263" y="280" type="line"/>
      <point x="267" y="280" type="line"/>
      <point x="273" y="264" type="line"/>
      <point x="276" y="255"/>
      <point x="280" y="243"/>
      <point x="285" y="235" type="curve"/>
      <point x="405" y="0" type="line"/>
      <point x="515" y="0" type="line"/>
      <point x="330" y="355" type="line"/>
      <point x="510" y="700" type="line"/>
      <point x="400" y="700" type="line"/>
      <point x="285" y="475" type="line"/>
      <point x="280" y="466"/>
      <point x="276" y="455"/>
      <point x="273" y="446" type="curve"/>
      <point x="267" y="430" type="line"/>
      <point x="263" y="430" type="line"/>
      <point x="257" y="446" type="line"/>
      <point x="254" y="455"/>
      <point x="249" y="466"/>
      <point x="245" y="475" type="curve"/>
      <point x="130" y="700" type="line"/>
      <point x="20" y="700" type="line"/>
      <point x="200" y="355" type="line"/>
      <point x="15" y="0" type="line"/>
    </contour>
  </outline>
</glyph>
<glyph name="Z" format="2">
  <advance width="485"/>
  <unicode hex="005A"/>
  <outline>
    <contour>
      <point x="460" y="0" type="line"/>
      <point x="460" y="70" type="line"/>
      <point x="145" y="70" type="line"/>
      <point x="455" y="625" type="line"/>
      <point x="455" y="700" type="line"/>
      <point x="25" y="700" type="line"/>
      <point x="25" y="630" type="line"/>
      <point x="335" y="630" type="line"/>
      <point x="25" y="75" type="line"/>
      <point x="25" y="0" type="line"/>
    </contour>
  </outline>
</glyph>
<glyph name="bracketright" format="2">
  <advance width="310"/>
  <unicode hex="005D"/>
  <outline>
    <contour>
      <point x="220" y="-170" type="line"/>
      <point x="220" y="730" type="line"/>
      <point x="20" y="730" type="line"/>
      <point x="20" y="660" type="line"/>
      <point x="120" y="660" type="line"/>
      <point x="120" y="-100" type="line"/>
      <point x="20" y="-100" type="line"/>
      <point x="20" y="-170" type="line"/>
    </contour>
  </outline>
</glyph>
<glyph name="asciicircum" format="2">
  <advance width="430"/>
  <unicode hex="005E"/>
  <outline>
    <contour>
      <point x="100" y="440" type="line"/>
      <point x="215" y="620" type="line"/>
      <point x="330" y="440" type="line"/>
      <point x="430" y="440" type="line"/>
      <point x="250" y="720" type="line"/>
      <point x="180" y="720" type="line"/>
      <point x="0" y="440" type="line"/>
    </contour>
  </outline>
</glyph>
<glyph name="grave" format="2">
  <advance width="175"/>
  <unicode hex="0060"/>
  <outline>
    <contour>
      <point x="165" y="550" type="line"/>
      <point x="120" y="700" type="line"/>
      <point x="10" y="700" type="line"/>
      <point x="100" y="550" type="line"/>
    </contour>
  </outline>
</glyph>
<glyph name="a" format="2">
  <advance width="510"/>
  <unicode hex="0061"/>
  <outline>
    <contour>
      <point x="210" y="-10" type="curve" smooth="yes"/>
      <point x="261" y="-10"/>
      <point x="296" y="6"/>
      <point x="320" y="25" type="curve"/>
      <point x="334" y="35"/>
      <point x="346" y="47"/>
      <point x="355" y="60" type="curve"/>
      <point x="360" y="60" type="line"/>
      <point x="370" y="0" type="line"/>
      <point x="440" y="0" type="line"/>
      <point x="440" y="320" type="line" smooth="yes"/>
      <point x="440" y="430"/>
      <point x="360" y="510"/>
      <point x="245" y="510" type="curve" smooth="yes"/>
      <point x="194" y="510"/>
      <point x="154" y="497"/>
      <point x="125" y="482" type="curve"/>
      <point x="108" y="474"/>
      <point x="93" y="465"/>
      <point x="80" y="455" type="curve"/>
      <point x="115" y="395" type="line"/>
      <point x="125" y="395" type="line"/>
      <point x="134" y="403"/>
      <point x="145" y="410"/>
      <point x="157" y="417" type="curve" smooth="yes"/>
      <point x="177" y="428"/>
      <point x="204" y="440"/>
      <point x="235" y="440" type="curve" smooth="yes"/>
      <point x="300" y="440"/>
      <point x="340" y="400"/>
      <point x="340" y="320" type="curve" smooth="yes"/>
      <point x="340" y="295" type="line"/>
      <point x="260" y="295" type="line" smooth="yes"/>
      <point x="105" y="295"/>
      <point x="45" y="235"/>
      <point x="45" y="145" type="curve" smooth="yes"/>
      <point x="45" y="49"/>
      <point x="105" y="-10"/>
    </contour>
    <contour>
      <point x="235" y="65" type="curve" smooth="yes"/>
      <point x="175" y="65"/>
      <point x="145" y="94"/>
      <point x="145" y="145" type="curve" smooth="yes"/>
      <point x="145" y="190"/>
      <point x="180" y="225"/>
      <point x="260" y="225" type="curve" smooth="yes"/>
      <point x="340" y="225" type="line"/>
      <point x="340" y="125" type="line"/>
      <point x="331" y="114"/>
      <point x="321" y="104"/>
      <point x="310" y="95" type="curve" smooth="yes"/>
      <point x="291" y="80"/>
      <point x="266" y="65"/>
    </contour>
  </outline>
</glyph>
<glyph name="b" format="2">
  <advance width="535"/>
  <unicode hex="0062"/>
  <outline>
    <contour>
      <point x="305" y="-10" type="curve" smooth="yes"/>
      <point x="400" y="-10"/>
      <point x="485" y="75"/>
      <point x="485" y="250" type="curve" smooth="yes"/>
      <point x="485" y="425"/>
      <point x="400" y="510"/>
      <point x="285" y="510" type="curve" smooth="yes"/>
      <point x="254" y="510"/>
      <point x="227" y="502"/>
      <point x="207" y="495" type="curve"/>
      <point x="195" y="490"/>
      <point x="184" y="485"/>
      <point x="175" y="480" type="curve"/>
      <point x="175" y="700" type="line"/>
      <point x="105" y="700" type="line"/>
      <point x="75" y="670" type="line"/>
      <point x="75" y="0" type="line"/>
      <point x="145" y="0" type="line"/>
      <point x="155" y="60" type="line"/>
      <point x="160" y="60" type="line"/>
      <point x="169" y="47"/>
      <point x="181" y="35"/>
      <point x="195" y="25" type="curve"/>
      <point x="219" y="6"/>
      <point x="254" y="-10"/>
    </contour>
    <contour>
      <point x="280" y="65" type="curve" smooth="yes"/>
      <point x="249" y="65"/>
      <point x="224" y="80"/>
      <point x="205" y="95" type="curve" smooth="yes"/>
      <point x="194" y="104"/>
      <point x="184" y="114"/>
      <point x="175" y="125" type="curve"/>
      <point x="175" y="420" type="line"/>
      <point x="183" y="424"/>
      <point x="192" y="427"/>
      <point x="202" y="430" type="curve" smooth="yes"/>
      <point x="219" y="435"/>
      <point x="242" y="440"/>
      <point x="270" y="440" type="curve" smooth="yes"/>
      <point x="334" y="440"/>
      <point x="385" y="390"/>
      <point x="385" y="250" type="curve" smooth="yes"/>
      <point x="385" y="115"/>
      <point x="336" y="65"/>
    </contour>
  </outline>
</glyph>
<glyph name="d" format="2">
  <advance width="535"/>
  <unicode hex="0064"/>
  <outline>
    <contour>
      <point x="230" y="-10" type="curve" smooth="yes"/>
      <point x="281" y="-10"/>
      <point x="316" y="6"/>
      <point x="340" y="25" type="curve" smooth="yes"/>
      <point x="354" y="35"/>
      <point x="366" y="47"/>
      <point x="375" y="60" type="curve"/>
      <point x="380" y="60" type="line"/>
      <point x="390" y="0" type="line"/>
      <point x="460" y="0" type="line"/>
      <point x="460" y="700" type="line"/>
      <point x="390" y="700" type="line"/>
      <point x="360" y="670" type="line"/>
      <point x="360" y="480" type="line"/>
      <point x="327" y="495" type="line"/>
      <point x="307" y="502"/>
      <point x="281" y="510"/>
      <point x="250" y="510" type="curve" smooth="yes"/>
      <point x="135" y="510"/>
      <point x="50" y="425"/>
      <point x="50" y="250" type="curve" smooth="yes"/>
      <point x="50" y="75"/>
      <point x="135" y="-10"/>
    </contour>
    <contour>
      <point x="255" y="65" type="curve" smooth="yes"/>
      <point x="199" y="65"/>
      <point x="150" y="115"/>
      <point x="150" y="250" type="curve" smooth="yes"/>
      <point x="150" y="390"/>
      <point x="201" y="440"/>
      <point x="265" y="440" type="curve" smooth="yes"/>
      <point x="292" y="440"/>
      <point x="316" y="435"/>
      <point x="333" y="430" type="curve" smooth="yes"/>
      <point x="343" y="427"/>
      <point x="352" y="424"/>
      <point x="360" y="420" type="curve"/>
      <point x="360" y="125" type="line"/>
      <point x="351" y="114"/>
      <point x="341" y="104"/>
      <point x="330" y="95" type="curve" smooth="yes"/>
      <point x="311" y="80"/>
      <point x="286" y="65"/>
    </contour>
  </outline>
</glyph>
<glyph name="l" format="2">
  <advance width="250"/>
  <unicode hex="006C"/>
  <outline>
    <contour>
      <point x="175" y="0" type="line"/>
      <point x="175" y="700" type="line"/>
      <point x="105" y="700" type="line"/>
      <point x="75" y="670" type="line"/>
      <point x="75" y="0" type="line"/>
    </contour>
  </outline>
</glyph>
<glyph name="n" format="2">
  <advance width="545"/>
  <unicode hex="006E"/>
  <outline>
    <contour>
      <point x="175" y="0" type="line"/>
      <point x="175" y="375" type="line"/>
      <point x="184" y="386"/>
      <point x="194" y="396"/>
      <point x="205" y="405" type="curve" smooth="yes"/>
      <point x="224" y="420"/>
      <point x="249" y="435"/>
      <point x="280" y="435" type="curve" smooth="yes"/>
      <point x="336" y="435"/>
      <point x="375" y="396"/>
      <point x="375" y="340" type="curve" smooth="yes"/>
      <point x="375" y="0" type="line"/>
      <point x="475" y="0" type="line"/>
      <point x="475" y="340" type="line" smooth="yes"/>
      <point x="475" y="440"/>
      <point x="405" y="510"/>
      <point x="305" y="510" type="curve" smooth="yes"/>
      <point x="254" y="510"/>
      <point x="219" y="492"/>
      <point x="195" y="475" type="curve" smooth="yes"/>
      <point x="181" y="464"/>
      <point x="169" y="453"/>
      <point x="160" y="440" type="curve"/>
      <point x="155" y="440" type="line"/>
      <point x="145" y="500" type="line"/>
      <point x="75" y="500" type="line"/>
      <point x="75" y="0" type="line"/>
    </contour>
  </outline>
</glyph>
<glyph name="r" format="2">
  <advance width="365"/>
  <unicode hex="0072"/>
  <outline>
    <contour>
      <point x="175" y="0" type="line"/>
      <point x="175" y="370" type="line"/>
      <point x="184" y="381"/>
      <point x="193" y="391"/>
      <point x="204" y="400" type="curve" smooth="yes"/>
      <point x="223" y="415"/>
      <point x="247" y="430"/>
      <point x="275" y="430" type="curve" smooth="yes"/>
      <point x="290" y="430"/>
      <point x="306" y="428"/>
      <point x="319" y="425" type="curve" smooth="yes"/>
      <point x="326" y="423"/>
      <point x="333" y="421"/>
      <point x="340" y="420" type="curve"/>
      <point x="350" y="420" type="line"/>
      <point x="365" y="500" type="line"/>
      <point x="346" y="505" type="line" smooth="yes"/>
      <point x="334" y="508"/>
      <point x="317" y="510"/>
      <point x="300" y="510" type="curve" smooth="yes"/>
      <point x="252" y="510"/>
      <point x="217" y="492"/>
      <point x="194" y="475" type="curve"/>
      <point x="181" y="464"/>
      <point x="169" y="453"/>
      <point x="160" y="440" type="curve"/>
      <point x="155" y="440" type="line"/>
      <point x="145" y="500" type="line"/>
      <point x="75" y="500" type="line"/>
      <point x="75" y="0" type="line"/>
    </contour>
  </outline>
</glyph>
<glyph name="s" format="2">
  <advance width="460"/>
  <unicode hex="0073"/>
  <outline>
    <contour>
      <point x="220" y="-10" type="curve" smooth="yes"/>
      <point x="365" y="-10"/>
      <point x="425" y="50"/>
      <point x="425" y="140" type="curve" smooth="yes"/>
      <point x="425" y="309"/>
      <point x="145" y="266"/>
      <point x="145" y="375" type="curve" smooth="yes"/>
      <point x="145" y="410"/>
      <point x="174" y="440"/>
      <point x="245" y="440" type="curve" smooth="yes"/>
      <point x="280" y="440"/>
      <point x="310" y="428"/>
      <point x="331" y="417" type="curve" smooth="yes"/>
      <point x="343" y="410"/>
      <point x="354" y="403"/>
      <point x="365" y="395" type="curve"/>
      <point x="375" y="395" type="line"/>
      <point x="410" y="455" type="line"/>
      <point x="397" y="465"/>
      <point x="381" y="474"/>
      <point x="364" y="482" type="curve" smooth="yes"/>
      <point x="333" y="497"/>
      <point x="291" y="510"/>
      <point x="235" y="510" type="curve" smooth="yes"/>
      <point x="104" y="510"/>
      <point x="45" y="450"/>
      <point x="45" y="365" type="curve" smooth="yes"/>
      <point x="45" y="195"/>
      <point x="325" y="240"/>
      <point x="325" y="130" type="curve" smooth="yes"/>
      <point x="325" y="90"/>
      <point x="295" y="60"/>
      <point x="210" y="60" type="curve" smooth="yes"/>
      <point x="170" y="60"/>
      <point x="138" y="71"/>
      <point x="115" y="82" type="curve" smooth="yes"/>
      <point x="102" y="89"/>
      <point x="90" y="96"/>
      <point x="80" y="105" type="curve"/>
      <point x="70" y="105" type="line"/>
      <point x="35" y="45" type="line"/>
      <point x="48" y="34"/>
      <point x="64" y="25"/>
      <point x="82" y="17" type="curve" smooth="yes"/>
      <point x="113" y="2"/>
      <point x="160" y="-10"/>
    </contour>
  </outline>
</glyph>
<glyph name="u" format="2">
  <advance width="550"/>
  <unicode hex="0075"/>
  <outline>
    <contour>
      <point x="245" y="-10" type="curve" smooth="yes"/>
      <point x="296" y="-10"/>
      <point x="331" y="6"/>
      <point x="355" y="25" type="curve"/>
      <point x="369" y="35"/>
      <point x="381" y="47"/>
      <point x="390" y="60" type="curve"/>
      <point x="395" y="60" type="line"/>
      <point x="405" y="0" type="line"/>
      <point x="475" y="0" type="line"/>
      <point x="475" y="500" type="line"/>
      <point x="375" y="500" type="line"/>
      <point x="375" y="125" type="line"/>
      <point x="366" y="114"/>
      <point x="356" y="104"/>
      <point x="345" y="95" type="curve" smooth="yes"/>
      <point x="326" y="80"/>
      <point x="301" y="65"/>
      <point x="270" y="65" type="curve" smooth="yes"/>
      <point x="214" y="65"/>
      <point x="175" y="104"/>
      <point x="175" y="160" type="curve" smooth="yes"/>
      <point x="175" y="500" type="line"/>
      <point x="75" y="500" type="line"/>
      <point x="75" y="160" type="line" smooth="yes"/>
      <point x="75" y="60"/>
      <point x="145" y="-10"/>
    </contour>
  </outline>
</glyph>
<glyph name="v" format="2">
  <advance width="470"/>
  <unicode hex="0076"/>
  <outline>
    <contour>
      <point x="278" y="0" type="line"/>
      <point x="438" y="500" type="line"/>
      <point x="355" y="500" type="line"/>
      <point x="250" y="170" type="line" smooth="yes"/>
      <point x="245" y="155"/>
      <point x="243" y="139"/>
      <point x="240" y="124" type="curve"/>
      <point x="237" y="100" type="line"/>
      <point x="233" y="100" type="line"/>
      <point x="230" y="124" type="line"/>
      <point x="227" y="139"/>
      <point x="225" y="155"/>
      <point x="220" y="170" type="curve" smooth="yes"/>
      <point x="115" y="500" type="line"/>
      <point x="25" y="500" type="line"/>
      <point x="185" y="0" type="line"/>
    </contour>
  </outline>
</glyph>
<glyph name="w" format="2">
  <advance width="710"/>
  <unicode hex="0077"/>
  <outline>
    <contour>
      <point x="245" y="0" type="line"/>
      <point x="330" y="315" type="line" smooth="yes"/>
      <point x="333" y="327"/>
      <point x="337" y="344"/>
      <point x="339" y="359" type="curve" smooth="yes"/>
      <point x="343" y="385" type="line"/>
      <point x="347" y="385" type="line"/>
      <point x="351" y="359" type="line" smooth="yes"/>
      <point x="353" y="344"/>
      <point x="356" y="327"/>
      <point x="360" y="315" type="curve"/>
      <point x="445" y="0" type="line"/>
      <point x="545" y="0" type="line"/>
      <point x="675" y="500" type="line"/>
      <point x="580" y="500" type="line"/>
      <point x="500" y="195" type="line" smooth="yes"/>
      <point x="496" y="179"/>
      <point x="494" y="164"/>
      <point x="492" y="151" type="curve" smooth="yes"/>
      <point x="491" y="144"/>
      <point x="490" y="137"/>
      <point x="490" y="130" type="curve"/>
      <point x="486" y="130" type="line"/>
      <point x="483" y="151" type="line"/>
      <point x="480" y="163"/>
      <point x="479" y="180"/>
      <point x="475" y="195" type="curve" smooth="yes"/>
      <point x="397" y="500" type="line"/>
      <point x="297" y="500" type="line"/>
      <point x="215" y="195" type="line" smooth="yes"/>
      <point x="211" y="180"/>
      <point x="209" y="163"/>
      <point x="206" y="151" type="curve" smooth="yes"/>
      <point x="205" y="144"/>
      <point x="204" y="137"/>
      <point x="204" y="130" type="curve"/>
      <point x="200" y="130" type="line"/>
      <point x="198" y="151" type="line"/>
      <point x="195" y="163"/>
      <point x="194" y="180"/>
      <point x="190" y="195" type="curve" smooth="yes"/>
      <point x="110" y="500" type="line"/>
      <point x="15" y="500" type="line"/>
      <point x="145" y="0" type="line"/>
    </contour>
  </outline>
</glyph>
<glyph name="x" format="2">
  <advance width="460"/>
  <unicode hex="0078"/>
  <outline>
    <contour>
      <point x="125" y="0" type="line"/>
      <point x="210" y="145" type="line" smooth="yes"/>
      <point x="215" y="154"/>
      <point x="220" y="162"/>
      <point x="223" y="171" type="curve" smooth="yes"/>
      <point x="225" y="176"/>
      <point x="227" y="180"/>
      <point x="228" y="185" type="curve"/>
      <point x="232" y="185" type="line"/>
      <point x="233" y="180"/>
      <point x="235" y="176"/>
      <point x="237" y="171" type="curve" smooth="yes"/>
      <point x="240" y="162"/>
      <point x="245" y="154"/>
      <point x="250" y="145" type="curve" smooth="yes"/>
      <point x="335" y="0" type="line"/>
      <point x="445" y="0" type="line"/>
      <point x="290" y="255" type="line"/>
      <point x="440" y="500" type="line"/>
      <point x="330" y="500" type="line"/>
      <point x="250" y="360" type="line" smooth="yes"/>
      <point x="245" y="352"/>
      <point x="241" y="342"/>
      <point x="238" y="334" type="curve" smooth="yes"/>
      <point x="232" y="320" type="line"/>
      <point x="228" y="320" type="line"/>
      <point x="222" y="334" type="line" smooth="yes"/>
      <point x="219" y="342"/>
      <point x="214" y="352"/>
      <point x="210" y="360" type="curve" smooth="yes"/>
      <point x="130" y="500" type="line"/>
      <point x="20" y="500" type="line"/>
      <point x="170" y="255" type="line"/>
      <point x="15" y="0" type="line"/>
    </contour>
  </outline>
</glyph>
<glyph name="z" format="2">
  <advance width="440"/>
  <unicode hex="007A"/>
  <outline>
    <contour>
      <point x="405" y="0" type="line"/>
      <point x="405" y="70" type="line"/>
      <point x="145" y="70" type="line"/>
      <point x="400" y="425" type="line"/>
      <point x="400" y="500" type="line"/>
      <point x="35" y="500" type="line"/>
      <point x="35" y="430" type="line"/>
      <point x="290" y="430" type="line"/>
      <point x="35" y="75" type="line"/>
      <point x="35" y="0" type="line"/>
    </contour>
  </outline>
</glyph>
<glyph name="braceleft" format="2">
  <advance width="325"/>
  <unicode hex="007B"/>
  <outline>
    <contour>
      <point x="315" y="-170" type="line"/>
      <point x="315" y="-100" type="line"/>
      <point x="280" y="-100" type="line" smooth="yes"/>
      <point x="240" y="-100"/>
      <point x="215" y="-75"/>
      <point x="215" y="-30" type="curve" smooth="yes"/>
      <point x="215" y="150" type="line" smooth="yes"/>
      <point x="215" y="210"/>
      <point x="195" y="241"/>
      <point x="175" y="260" type="curve"/>
      <point x="163" y="270"/>
      <point x="150" y="277"/>
      <point x="135" y="280" type="curve"/>
      <point x="150" y="283"/>
      <point x="163" y="289"/>
      <point x="175" y="300" type="curve"/>
      <point x="195" y="317"/>
      <point x="215" y="350"/>
      <point x="215" y="410" type="curve" smooth="yes"/>
      <point x="215" y="590" type="line" smooth="yes"/>
      <point x="215" y="635"/>
      <point x="240" y="660"/>
      <point x="280" y="660" type="curve" smooth="yes"/>
      <point x="315" y="660" type="line"/>
      <point x="315" y="730" type="line"/>
      <point x="280" y="730" type="line" smooth="yes"/>
      <point x="175" y="730"/>
      <point x="115" y="670"/>
      <point x="115" y="590" type="curve" smooth="yes"/>
      <point x="115" y="410" type="line" smooth="yes"/>
      <point x="115" y="339"/>
      <point x="91" y="315"/>
      <point x="40" y="315" type="curve"/>
      <point x="40" y="245" type="line"/>
      <point x="91" y="245"/>
      <point x="115" y="221"/>
      <point x="115" y="150" type="curve" smooth="yes"/>
      <point x="115" y="-30" type="line" smooth="yes"/>
      <point x="115" y="-110"/>
      <point x="175" y="-170"/>
      <point x="280" y="-170" type="curve" smooth="yes"/>
    </contour>
  </outline>
</glyph>
<glyph name="braceright" format="2">
  <advance width="325"/>
  <unicode hex="007D"/>
  <outline>
    <contour>
      <point x="45" y="-170" type="line" smooth="yes"/>
      <point x="150" y="-170"/>
      <point x="210" y="-110"/>
      <point x="210" y="-30" type="curve" smooth="yes"/>
      <point x="210" y="150" type="line" smooth="yes"/>
      <point x="210" y="221"/>
      <point x="234" y="245"/>
      <point x="285" y="245" type="curve"/>
      <point x="285" y="315" type="line"/>
      <point x="234" y="315"/>
      <point x="210" y="339"/>
      <point x="210" y="410" type="curve" smooth="yes"/>
      <point x="210" y="590" type="line" smooth="yes"/>
      <point x="210" y="670"/>
      <point x="150" y="730"/>
      <point x="45" y="730" type="curve" smooth="yes"/>
      <point x="10" y="730" type="line"/>
      <point x="10" y="660" type="line"/>
      <point x="45" y="660" type="line" smooth="yes"/>
      <point x="85" y="660"/>
      <point x="110" y="635"/>
      <point x="110" y="590" type="curve" smooth="yes"/>
      <point x="110" y="410" type="line" smooth="yes"/>
      <point x="110" y="350"/>
      <point x="130" y="317"/>
      <point x="150" y="300" type="curve"/>
      <point x="162" y="289"/>
      <point x="175" y="283"/>
      <point x="190" y="280" type="curve"/>
      <point x="175" y="277"/>
      <point x="162" y="270"/>
      <point x="150" y="260" type="curve"/>
      <point x="130" y="241"/>
      <point x="110" y="210"/>
      <point x="110" y="150" type="curve" smooth="yes"/>
      <point x="110" y="-30" type="line" smooth="yes"/>
      <point x="110" y="-75"/>
      <point x="85" y="-100"/>
      <point x="45" y="-100" type="curve" smooth="yes"/>
      <point x="10" y="-100" type="line"/>
      <point x="10" y="-170" type="line"/>
    </contour>
  </outline>
</glyph>
<glyph name="asciitilde" format="2">
  <advance width="490"/>
  <unicode hex="007E"/>
  <outline>
    <contour>
      <point x="330" y="245" type="curve" smooth="yes"/>
      <point x="400" y="245"/>
      <point x="449" y="295"/>
      <point x="465" y="340" type="curve"/>
      <point x="410" y="390" type="line"/>
      <point x="401" y="390" type="line"/>
      <point x="401" y="390"/>
      <point x="376" y="335"/>
      <point x="330" y="335" type="curve" smooth="yes"/>
      <point x="269" y="335"/>
      <point x="241" y="400"/>
      <point x="160" y="400" type="curve" smooth="yes"/>
      <point x="90" y="400"/>
      <point x="41" y="350"/>
      <point x="25" y="305" type="curve"/>
      <point x="80" y="255" type="line"/>
      <point x="89" y="255" type="line"/>
      <point x="89" y="255"/>
      <point x="114" y="310"/>
      <point x="160" y="310" type="curve" smooth="yes"/>
      <point x="220" y="310"/>
      <point x="250" y="245"/>
    </contour>
  </outline>
</glyph>
<glyph name="exclamdown" format="2">
  <advance width="290"/>
  <unicode hex="00A1"/>
  <outline>
    <contour>
      <point x="205" y="-200" type="line"/>
      <point x="185" y="320" type="line"/>
      <point x="105" y="320" type="line"/>
      <point x="85" y="-200" type="line"/>
    </contour>
    <contour>
      <point x="145" y="390" type="curve" smooth="yes"/>
      <point x="180" y="390"/>
      <point x="205" y="415"/>
      <point x="205" y="450" type="curve" smooth="yes"/>
      <point x="205" y="485"/>
      <point x="180" y="510"/>
      <point x="145" y="510" type="curve" smooth="yes"/>
      <point x="110" y="510"/>
      <point x="85" y="485"/>
      <point x="85" y="450" type="curve" smooth="yes"/>
      <point x="85" y="415"/>
      <point x="110" y="390"/>
    </contour>
  </outline>
</glyph>
<glyph name="yen" format="2">
  <advance width="530"/>
  <unicode hex="00A5"/>
  <outline>
    <contour>
      <point x="315" y="0" type="line"/>
      <point x="315" y="180" type="line"/>
      <point x="465" y="180" type="line"/>
      <point x="465" y="250" type="line"/>
      <point x="324" y="250" type="line"/>
      <point x="349" y="305" type="line"/>
      <point x="465" y="305" type="line"/>
      <point x="465" y="375" type="line"/>
      <point x="381" y="375" type="line"/>
      <point x="530" y="700" type="line"/>
      <point x="425" y="700" type="line"/>
      <point x="285" y="395" type="line"/>
      <point x="278" y="382"/>
      <point x="275" y="368"/>
      <point x="272" y="356" type="curve"/>
      <point x="270" y="349"/>
      <point x="268" y="342"/>
      <point x="267" y="335" type="curve"/>
      <point x="263" y="335" type="line"/>
      <point x="262" y="342"/>
      <point x="260" y="349"/>
      <point x="258" y="356" type="curve"/>
      <point x="255" y="368"/>
      <point x="250" y="382"/>
      <point x="245" y="395" type="curve"/>
      <point x="105" y="700" type="line"/>
      <point x="0" y="700" type="line"/>
      <point x="149" y="375" type="line"/>
      <point x="65" y="375" type="line"/>
      <point x="65" y="305" type="line"/>
      <point x="181" y="305" type="line"/>
      <point x="206" y="250" type="line"/>
      <point x="65" y="250" type="line"/>
      <point x="65" y="180" type="line"/>
      <point x="215" y="180" type="line"/>
      <point x="215" y="0" type="line"/>
    </contour>
  </outline>
</glyph>
<glyph name="dieresis" format="2">
  <advance width="305"/>
  <unicode hex="00A8"/>
  <outline>
    <contour>
      <point x="240" y="565" type="curve" smooth="yes"/>
      <point x="272" y="565"/>
      <point x="295" y="588"/>
      <point x="295" y="620" type="curve" smooth="yes"/>
      <point x="295" y="652"/>
      <point x="272" y="675"/>
      <point x="240" y="675" type="curve" smooth="yes"/>
      <point x="208" y="675"/>
      <point x="185" y="652"/>
      <point x="185" y="620" type="curve" smooth="yes"/>
      <point x="185" y="588"/>
      <point x="208" y="565"/>
    </contour>
    <contour>
      <point x="65" y="565" type="curve" smooth="yes"/>
      <point x="97" y="565"/>
      <point x="120" y="588"/>
      <point x="120" y="620" type="curve" smooth="yes"/>
      <point x="120" y="652"/>
      <point x="97" y="675"/>
      <point x="65" y="675" type="curve" smooth="yes"/>
      <point x="33" y="675"/>
      <point x="10" y="652"/>
      <point x="10" y="620" type="curve" smooth="yes"/>
      <point x="10" y="588"/>
      <point x="33" y="565"/>
    </contour>
  </outline>
</glyph>
<glyph name="guillemetleft" format="2">
  <advance width="475"/>
  <unicode hex="00AB"/>
  <outline>
    <contour>
      <point x="290" y="60" type="line"/>
      <point x="130" y="250" type="line"/>
      <point x="290" y="440" type="line"/>
      <point x="225" y="500" type="line"/>
      <point x="10" y="250" type="line"/>
      <point x="225" y="0" type="line"/>
    </contour>
    <contour>
      <point x="455" y="95" type="line"/>
      <point x="325" y="250" type="line"/>
      <point x="455" y="405" type="line"/>
      <point x="390" y="465" type="line"/>
      <point x="205" y="250" type="line"/>
      <point x="390" y="35" type="line"/>
    </contour>
  </outline>
</glyph>
<glyph name="softhyphen" format="2">
  <advance width="440"/>
  <unicode hex="00AD"/>
  <outline>
    <contour>
      <point x="410" y="290" type="line"/>
      <point x="410" y="370" type="line"/>
      <point x="30" y="370" type="line"/>
      <point x="30" y="290" type="line"/>
    </contour>
  </outline>
</glyph>
<glyph name="registered" format="2">
  <advance width="860"/>
  <unicode hex="00AE"/>
  <outline>
    <contour>
      <point x="430" y="-30" type="curve" smooth="yes"/>
      <point x="660" y="-30"/>
      <point x="820" y="130"/>
      <point x="820" y="350" type="curve" smooth="yes"/>
      <point x="820" y="570"/>
      <point x="660" y="730"/>
      <point x="430" y="730" type="curve" smooth="yes"/>
      <point x="200" y="730"/>
      <point x="40" y="570"/>
      <point x="40" y="350" type="curve" smooth="yes"/>
      <point x="40" y="130"/>
      <point x="200" y="-30"/>
    </contour>
    <contour>
      <point x="430" y="40" type="curve" smooth="yes"/>
      <point x="260" y="40"/>
      <point x="130" y="170"/>
      <point x="130" y="350" type="curve" smooth="yes"/>
      <point x="130" y="530"/>
      <point x="260" y="660"/>
      <point x="430" y="660" type="curve" smooth="yes"/>
      <point x="600" y="660"/>
      <point x="730" y="530"/>
      <point x="730" y="350" type="curve" smooth="yes"/>
      <point x="730" y="170"/>
      <point x="600" y="40"/>
    </contour>
    <contour>
      <point x="370" y="135" type="line"/>
      <point x="370" y="285" type="line"/>
      <point x="431" y="285" type="line"/>
      <point x="521" y="135" type="line"/>
      <point x="616" y="135" type="line"/>
      <point x="516" y="300" type="line"/>
      <point x="567" y="315"/>
      <point x="606" y="360"/>
      <point x="606" y="425" type="curve" smooth="yes"/>
      <point x="606" y="510"/>
      <point x="551" y="565"/>
      <point x="426" y="565" type="curve" smooth="yes"/>
      <point x="280" y="565" type="line"/>
      <point x="280" y="135" type="line"/>
    </contour>
    <contour>
      <point x="370" y="500" type="line"/>
      <point x="426" y="500" type="line"/>
      <point x="491" y="500"/>
      <point x="516" y="476"/>
      <point x="516" y="425" type="curve" smooth="yes"/>
      <point x="516" y="374"/>
      <point x="491" y="350"/>
      <point x="426" y="350" type="curve" smooth="yes"/>
      <point x="370" y="350" type="line"/>
    </contour>
  </outline>
</glyph>
<glyph name="plusminus" format="2">
  <advance width="490"/>
  <unicode hex="00B1"/>
  <outline>
    <contour>
      <point x="450" y="95" type="line"/>
      <point x="450" y="175" type="line"/>
      <point x="285" y="175" type="line"/>
      <point x="285" y="310" type="line"/>
      <point x="450" y="310" type="line"/>
      <point x="450" y="390" type="line"/>
      <point x="285" y="390" type="line"/>
      <point x="285" y="555" type="line"/>
      <point x="205" y="555" type="line"/>
      <point x="205" y="390" type="line"/>
      <point x="40" y="390" type="line"/>
      <point x="40" y="310" type="line"/>
      <point x="205" y="310" type="line"/>
      <point x="205" y="175" type="line"/>
      <point x="40" y="175" type="line"/>
      <point x="40" y="95" type="line"/>
    </contour>
  </outline>
</glyph>
<glyph name="acute" format="2">
  <advance width="175"/>
  <unicode hex="00B4"/>
  <outline>
    <contour>
      <point x="75" y="550" type="line"/>
      <point x="165" y="700" type="line"/>
      <point x="55" y="700" type="line"/>
      <point x="10" y="550" type="line"/>
    </contour>
  </outline>
</glyph>
<glyph name="periodcentered" format="2">
  <advance width="290"/>
  <unicode hex="00B7"/>
  <outline>
    <contour>
      <point x="145" y="290" type="curve" smooth="yes"/>
      <point x="180" y="290"/>
      <point x="205" y="315"/>
      <point x="205" y="350" type="curve" smooth="yes"/>
      <point x="205" y="385"/>
      <point x="180" y="410"/>
      <point x="145" y="410" type="curve" smooth="yes"/>
      <point x="110" y="410"/>
      <point x="85" y="385"/>
      <point x="85" y="350" type="curve" smooth="yes"/>
      <point x="85" y="315"/>
      <point x="110" y="290"/>
    </contour>
  </outline>
</glyph>
<glyph name="cedilla" format="2">
  <advance width="195"/>
  <unicode hex="00B8"/>
  <outline>
    <contour>
      <point x="90" y="-190" type="curve" smooth="yes"/>
      <point x="150" y="-190"/>
      <point x="185" y="-155"/>
      <point x="185" y="-110" type="curve" smooth="yes"/>
      <point x="185" y="-65"/>
      <point x="151" y="-30"/>
      <point x="95" y="-30" type="curve"/>
      <point x="95" y="20" type="line"/>
      <point x="35" y="20" type="line"/>
      <point x="35" y="-75" type="line"/>
      <point x="75" y="-75" type="line" smooth="yes"/>
      <point x="106" y="-75"/>
      <point x="120" y="-90"/>
      <point x="120" y="-110" type="curve" smooth="yes"/>
      <point x="120" y="-130"/>
      <point x="105" y="-145"/>
      <point x="80" y="-145" type="curve" smooth="yes"/>
      <point x="55" y="-145"/>
      <point x="34" y="-130"/>
      <point x="35" y="-130" type="curve"/>
      <point x="26" y="-130" type="line"/>
      <point x="10" y="-170" type="line"/>
      <point x="16" y="-174"/>
      <point x="23" y="-177"/>
      <point x="31" y="-180" type="curve" smooth="yes"/>
      <point x="46" y="-185"/>
      <point x="65" y="-190"/>
    </contour>
  </outline>
</glyph>
<glyph name="ordmasculine" format="2">
  <advance width="390"/>
  <unicode hex="00BA"/>
  <outline>
    <contour>
      <point x="195" y="350" type="curve" smooth="yes"/>
      <point x="291" y="350"/>
      <point x="355" y="414"/>
      <point x="355" y="530" type="curve" smooth="yes"/>
      <point x="355" y="646"/>
      <point x="291" y="710"/>
      <point x="195" y="710" type="curve" smooth="yes"/>
      <point x="99" y="710"/>
      <point x="35" y="646"/>
      <point x="35" y="530" type="curve" smooth="yes"/>
      <point x="35" y="414"/>
      <point x="99" y="350"/>
    </contour>
    <contour>
      <point x="195" y="410" type="curve" smooth="yes"/>
      <point x="155" y="410"/>
      <point x="125" y="439"/>
      <point x="125" y="530" type="curve" smooth="yes"/>
      <point x="125" y="619"/>
      <point x="155" y="650"/>
      <point x="195" y="650" type="curve" smooth="yes"/>
      <point x="235" y="650"/>
      <point x="265" y="619"/>
      <point x="265" y="530" type="curve" smooth="yes"/>
      <point x="265" y="439"/>
      <point x="235" y="410"/>
    </contour>
  </outline>
</glyph>
<glyph name="guillemetright" format="2">
  <advance width="475"/>
  <unicode hex="00BB"/>
  <outline>
    <contour>
      <point x="465" y="250" type="line"/>
      <point x="250" y="500" type="line"/>
      <point x="185" y="440" type="line"/>
      <point x="345" y="250" type="line"/>
      <point x="185" y="60" type="line"/>
      <point x="250" y="0" type="line"/>
    </contour>
    <contour>
      <point x="270" y="250" type="line"/>
      <point x="85" y="465" type="line"/>
      <point x="20" y="405" type="line"/>
      <point x="150" y="250" type="line"/>
      <point x="20" y="95" type="line"/>
      <point x="85" y="35" type="line"/>
    </contour>
  </outline>
</glyph>
<glyph name="onequarter" format="2">
  <advance width="760"/>
  <unicode hex="00BC"/>
  <outline>
    <contour>
      <point x="215" y="0" type="line"/>
      <point x="685" y="700" type="line"/>
      <point x="575" y="700" type="line"/>
      <point x="105" y="0" type="line"/>
    </contour>
    <contour>
      <point x="290" y="360" type="line"/>
      <point x="290" y="420" type="line"/>
      <point x="215" y="420" type="line"/>
      <point x="215" y="700" type="line"/>
      <point x="130" y="700" type="line"/>
      <point x="35" y="620" type="line"/>
      <point x="65" y="575" type="line"/>
      <point x="125" y="610" type="line"/>
      <point x="125" y="420" type="line"/>
      <point x="50" y="420" type="line"/>
      <point x="50" y="360" type="line"/>
    </contour>
    <contour>
      <point x="568" y="220" type="line" smooth="yes"/>
      <point x="572" y="225"/>
      <point x="577" y="237"/>
      <point x="581" y="246" type="curve"/>
      <point x="584" y="251"/>
      <point x="586" y="257"/>
      <point x="587" y="263" type="curve"/>
      <point x="591" y="263" type="line"/>
      <point x="588" y="247" type="line"/>
      <point x="586" y="238"/>
      <point x="585" y="229"/>
      <point x="585" y="220" type="curve" smooth="yes"/>
      <point x="585" y="130" type="line"/>
      <point x="495" y="130" type="line"/>
    </contour>
    <contour>
      <point x="675" y="0" type="line"/>
      <point x="675" y="70" type="line"/>
      <point x="725" y="70" type="line"/>
      <point x="725" y="130" type="line"/>
      <point x="675" y="130" type="line"/>
      <point x="675" y="340" type="line"/>
      <point x="585" y="340" type="line"/>
      <point x="415" y="130" type="line"/>
      <point x="415" y="70" type="line"/>
      <point x="585" y="70" type="line"/>
      <point x="585" y="0" type="line"/>
    </contour>
  </outline>
</glyph>
<glyph name="AE" format="2">
  <advance width="815"/>
  <unicode hex="00C6"/>
  <outline>
    <contour>
      <point x="80" y="0" type="line"/>
      <point x="165" y="200" type="line"/>
      <point x="395" y="200" type="line"/>
      <point x="395" y="0" type="line"/>
      <point x="785" y="0" type="line"/>
      <point x="785" y="70" type="line"/>
      <point x="495" y="70" type="line"/>
      <point x="495" y="330" type="line"/>
      <point x="725" y="330" type="line"/>
      <point x="725" y="400" type="line"/>
      <point x="495" y="400" type="line"/>
      <point x="495" y="630" type="line"/>
      <point x="785" y="630" type="line"/>
      <point x="785" y="700" type="line"/>
      <point x="275" y="700" type="line"/>
      <point x="-20" y="0" type="line"/>
    </contour>
    <contour>
      <point x="345" y="630" type="line"/>
      <point x="395" y="630" type="line"/>
      <point x="395" y="270" type="line"/>
      <point x="195" y="270" type="line"/>
    </contour>
  </outline>
</glyph>
<glyph name="Oslash" format="2">
  <advance width="600"/>
  <unicode hex="00D8"/>
  <outline>
    <contour>
      <point x="300" y="-10" type="curve" smooth="yes"/>
      <point x="445" y="-10"/>
      <point x="545" y="90"/>
      <point x="545" y="350" type="curve" smooth="yes"/>
      <point x="545" y="467"/>
      <point x="525" y="553"/>
      <point x="489" y="610" type="curve"/>
      <point x="540" y="700" type="line"/>
      <point x="460" y="700" type="line"/>
      <point x="440" y="665" type="line"/>
      <point x="402" y="695"/>
      <point x="355" y="710"/>
      <point x="300" y="710" type="curve" smooth="yes"/>
      <point x="155" y="710"/>
      <point x="55" y="610"/>
      <point x="55" y="350" type="curve" smooth="yes"/>
      <point x="55" y="231"/>
      <point x="75" y="148"/>
      <point x="111" y="89" type="curve"/>
      <point x="60" y="0" type="line"/>
      <point x="140" y="0" type="line"/>
      <point x="160" y="35" type="line"/>
      <point x="199" y="4"/>
      <point x="245" y="-10"/>
    </contour>
    <contour>
      <point x="300" y="60" type="curve" smooth="yes"/>
      <point x="265" y="60"/>
      <point x="232" y="74"/>
      <point x="205" y="113" type="curve"/>
      <point x="429" y="505" type="line"/>
      <point x="440" y="465"/>
      <point x="445" y="414"/>
      <point x="445" y="350" type="curve" smooth="yes"/>
      <point x="445" y="130"/>
      <point x="375" y="60"/>
    </contour>
    <contour>
      <point x="171" y="194" type="line"/>
      <point x="160" y="235"/>
      <point x="155" y="286"/>
      <point x="155" y="350" type="curve" smooth="yes"/>
      <point x="155" y="570"/>
      <point x="225" y="640"/>
      <point x="300" y="640" type="curve" smooth="yes"/>
      <point x="335" y="640"/>
      <point x="368" y="625"/>
      <point x="395" y="586" type="curve"/>
    </contour>
  </outline>
</glyph>
<glyph name="Thorn" format="2">
  <advance width="615"/>
  <unicode hex="00DE"/>
  <outline>
    <contour>
      <point x="190" y="-20" type="line"/>
      <point x="190" y="60" type="line"/>
      <point x="280" y="60" type="line" smooth="yes"/>
      <point x="467" y="60"/>
      <point x="570" y="163"/>
      <point x="570" y="350" type="curve" smooth="yes"/>
      <point x="570" y="537"/>
      <point x="467" y="640"/>
      <point x="280" y="640" type="curve" smooth="yes"/>
      <point x="190" y="640" type="line"/>
      <point x="190" y="720" type="line"/>
      <point x="90" y="720" type="line"/>
      <point x="90" y="-20" type="line"/>
    </contour>
    <contour>
      <point x="190" y="570" type="line"/>
      <point x="280" y="570" type="line"/>
      <point x="396" y="570"/>
      <point x="470" y="495"/>
      <point x="470" y="350" type="curve" smooth="yes"/>
      <point x="470" y="205"/>
      <point x="396" y="130"/>
      <point x="280" y="130" type="curve" smooth="yes"/>
      <point x="190" y="130" type="line"/>
    </contour>
  </outline>
</glyph>
<glyph name="ae" format="2">
  <advance width="785"/>
  <unicode hex="00E6"/>
  <outline>
    <contour>
      <point x="210" y="-10" type="curve" smooth="yes"/>
      <point x="278" y="-10"/>
      <point x="341" y="21"/>
      <point x="387" y="70" type="curve"/>
      <point x="426" y="15"/>
      <point x="485" y="-10"/>
      <point x="550" y="-10" type="curve" smooth="yes"/>
      <point x="607" y="-10"/>
      <point x="671" y="7"/>
      <point x="715" y="45" type="curve"/>
      <point x="680" y="105" type="line"/>
      <point x="670" y="105" type="line"/>
      <point x="642" y="79"/>
      <point x="598" y="60"/>
      <point x="560" y="60" type="curve" smooth="yes"/>
      <point x="489" y="60"/>
      <point x="440" y="110"/>
      <point x="440" y="215" type="curve"/>
      <point x="720" y="215" type="line"/>
      <point x="740" y="235" type="line"/>
      <point x="740" y="250" type="line" smooth="yes"/>
      <point x="740" y="425"/>
      <point x="655" y="510"/>
      <point x="540" y="510" type="curve" smooth="yes"/>
      <point x="480" y="510"/>
      <point x="430" y="480"/>
      <point x="395" y="435" type="curve"/>
      <point x="370" y="480"/>
      <point x="321" y="510"/>
      <point x="245" y="510" type="curve" smooth="yes"/>
      <point x="187" y="510"/>
      <point x="126" y="491"/>
      <point x="80" y="455" type="curve"/>
      <point x="115" y="395" type="line"/>
      <point x="125" y="395" type="line"/>
      <point x="153" y="420"/>
      <point x="198" y="440"/>
      <point x="235" y="440" type="curve" smooth="yes"/>
      <point x="300" y="440"/>
      <point x="340" y="400"/>
      <point x="340" y="320" type="curve" smooth="yes"/>
      <point x="340" y="295" type="line"/>
      <point x="260" y="295" type="line" smooth="yes"/>
      <point x="105" y="295"/>
      <point x="45" y="235"/>
      <point x="45" y="145" type="curve" smooth="yes"/>
      <point x="45" y="49"/>
      <point x="105" y="-10"/>
    </contour>
    <contour>
      <point x="235" y="65" type="curve" smooth="yes"/>
      <point x="175" y="65"/>
      <point x="145" y="94"/>
      <point x="145" y="145" type="curve" smooth="yes"/>
      <point x="145" y="190"/>
      <point x="180" y="225"/>
      <point x="260" y="225" type="curve" smooth="yes"/>
      <point x="340" y="225" type="line"/>
      <point x="340" y="125" type="line"/>
      <point x="315" y="94"/>
      <point x="277" y="65"/>
    </contour>
    <contour>
      <point x="440" y="285" type="line"/>
      <point x="440" y="394"/>
      <point x="485" y="440"/>
      <point x="540" y="440" type="curve" smooth="yes"/>
      <point x="595" y="440"/>
      <point x="640" y="394"/>
      <point x="640" y="285" type="curve"/>
    </contour>
  </outline>
</glyph>
<glyph name="igrave" format="2">
  <advance width="258"/>
  <unicode hex="00EC"/>
  <outline>
    <contour>
      <point x="183" y="0" type="line"/>
      <point x="183" y="500" type="line"/>
      <point x="83" y="500" type="line"/>
      <point x="83" y="0" type="line"/>
    </contour>
    <contour>
      <point x="170" y="550" type="line"/>
      <point x="125" y="700" type="line"/>
      <point x="15" y="700" type="line"/>
      <point x="105" y="550" type="line"/>
    </contour>
  </outline>
</glyph>
<glyph name="iacute" format="2">
  <advance width="257"/>
  <unicode hex="00ED"/>
  <outline>
    <contour>
      <point x="175" y="0" type="line"/>
      <point x="175" y="500" type="line"/>
      <point x="75" y="500" type="line"/>
      <point x="75" y="0" type="line"/>
    </contour>
    <contour>
      <point x="152" y="550" type="line"/>
      <point x="242" y="700" type="line"/>
      <point x="132" y="700" type="line"/>
      <point x="87" y="550" type="line"/>
    </contour>
  </outline>
</glyph>
<glyph name="icircumflex" format="2">
  <advance width="260"/>
  <unicode hex="00EE"/>
  <outline>
    <contour>
      <point x="180" y="0" type="line"/>
      <point x="180" y="500" type="line"/>
      <point x="80" y="500" type="line"/>
      <point x="80" y="0" type="line"/>
    </contour>
    <contour>
      <point x="55" y="560" type="line"/>
      <point x="130" y="625" type="line"/>
      <point x="205" y="560" type="line"/>
      <point x="270" y="560" type="line"/>
      <point x="165" y="690" type="line"/>
      <point x="95" y="690" type="line"/>
      <point x="-10" y="560" type="line"/>
    </contour>
  </outline>
</glyph>
<glyph name="divide" format="2">
  <advance width="470"/>
  <unicode hex="00F7"/>
  <outline>
    <contour>
      <point x="440" y="290" type="line"/>
      <point x="440" y="370" type="line"/>
      <point x="30" y="370" type="line"/>
      <point x="30" y="290" type="line"/>
    </contour>
    <contour>
      <point x="235" y="100" type="curve" smooth="yes"/>
      <point x="270" y="100"/>
      <point x="295" y="125"/>
      <point x="295" y="160" type="curve" smooth="yes"/>
      <point x="295" y="195"/>
      <point x="270" y="220"/>
      <point x="235" y="220" type="curve" smooth="yes"/>
      <point x="200" y="220"/>
      <point x="175" y="195"/>
      <point x="175" y="160" type="curve" smooth="yes"/>
      <point x="175" y="125"/>
      <point x="200" y="100"/>
    </contour>
    <contour>
      <point x="235" y="440" type="curve" smooth="yes"/>
      <point x="270" y="440"/>
      <point x="295" y="465"/>
      <point x="295" y="500" type="curve" smooth="yes"/>
      <point x="295" y="535"/>
      <point x="270" y="560"/>
      <point x="235" y="560" type="curve" smooth="yes"/>
      <point x="200" y="560"/>
      <point x="175" y="535"/>
      <point x="175" y="500" type="curve" smooth="yes"/>
      <point x="175" y="465"/>
      <point x="200" y="440"/>
    </contour>
  </outline>
</glyph>
<glyph name="thorn" format="2">
  <advance width="540"/>
  <unicode hex="00FE"/>
  <outline>
    <contour>
      <point x="180" y="-200" type="line"/>
      <point x="180" y="20" type="line"/>
      <point x="189" y="14"/>
      <point x="200" y="9"/>
      <point x="212" y="5" type="curve"/>
      <point x="232" y="-3"/>
      <point x="259" y="-10"/>
      <point x="290" y="-10" type="curve" smooth="yes"/>
      <point x="405" y="-10"/>
      <point x="490" y="75"/>
      <point x="490" y="250" type="curve" smooth="yes"/>
      <point x="490" y="425"/>
      <point x="405" y="510"/>
      <point x="290" y="510" type="curve" smooth="yes"/>
      <point x="259" y="510"/>
      <point x="232" y="502"/>
      <point x="212" y="495" type="curve"/>
      <point x="200" y="490"/>
      <point x="189" y="485"/>
      <point x="180" y="480" type="curve"/>
      <point x="180" y="700" type="line"/>
      <point x="110" y="700" type="line"/>
      <point x="80" y="670" type="line"/>
      <point x="80" y="-200" type="line"/>
    </contour>
    <contour>
      <point x="275" y="60" type="curve" smooth="yes"/>
      <point x="247" y="60"/>
      <point x="224" y="65"/>
      <point x="207" y="70" type="curve" smooth="yes"/>
      <point x="197" y="73"/>
      <point x="188" y="76"/>
      <point x="180" y="80" type="curve"/>
      <point x="180" y="420" type="line"/>
      <point x="188" y="424"/>
      <point x="197" y="427"/>
      <point x="207" y="430" type="curve" smooth="yes"/>
      <point x="224" y="435"/>
      <point x="247" y="440"/>
      <point x="275" y="440" type="curve" smooth="yes"/>
      <point x="339" y="440"/>
      <point x="390" y="390"/>
      <point x="390" y="250" type="curve" smooth="yes"/>
      <point x="390" y="110"/>
      <point x="339" y="60"/>
    </contour>
  </outline>
</glyph>
<glyph name="dcroat" format="2">
  <advance width="545"/>
  <unicode hex="0111"/>
  <outline>
    <contour>
      <point x="230" y="-10" type="curve" smooth="yes"/>
      <point x="281" y="-10"/>
      <point x="316" y="6"/>
      <point x="340" y="25" type="curve"/>
      <point x="354" y="35"/>
      <point x="366" y="47"/>
      <point x="375" y="60" type="curve"/>
      <point x="380" y="60" type="line"/>
      <point x="390" y="0" type="line"/>
      <point x="460" y="0" type="line"/>
      <point x="460" y="530" type="line"/>
      <point x="525" y="530" type="line"/>
      <point x="525" y="600" type="line"/>
      <point x="460" y="600" type="line"/>
      <point x="460" y="700" type="line"/>
      <point x="390" y="700" type="line"/>
      <point x="360" y="670" type="line"/>
      <point x="360" y="600" type="line"/>
      <point x="255" y="600" type="line"/>
      <point x="255" y="530" type="line"/>
      <point x="360" y="530" type="line"/>
      <point x="360" y="440" type="line"/>
      <point x="327" y="455" type="line"/>
      <point x="307" y="462"/>
      <point x="281" y="470"/>
      <point x="250" y="470" type="curve" smooth="yes"/>
      <point x="135" y="470"/>
      <point x="50" y="386"/>
      <point x="50" y="230" type="curve" smooth="yes"/>
      <point x="50" y="74"/>
      <point x="135" y="-10"/>
    </contour>
    <contour>
      <point x="255" y="65" type="curve" smooth="yes"/>
      <point x="199" y="65"/>
      <point x="150" y="115"/>
      <point x="150" y="230" type="curve" smooth="yes"/>
      <point x="150" y="350"/>
      <point x="200" y="400"/>
      <point x="265" y="400" type="curve" smooth="yes"/>
      <point x="292" y="400"/>
      <point x="316" y="395"/>
      <point x="333" y="390" type="curve" smooth="yes"/>
      <point x="343" y="387"/>
      <point x="352" y="384"/>
      <point x="360" y="380" type="curve"/>
      <point x="360" y="125" type="line"/>
      <point x="351" y="114"/>
      <point x="341" y="104"/>
      <point x="330" y="95" type="curve" smooth="yes"/>
      <point x="311" y="80"/>
      <point x="286" y="65"/>
    </contour>
  </outline>
</glyph>
<glyph name="imacron" format="2">
  <advance width="250"/>
  <unicode hex="012B"/>
  <outline>
    <contour>
      <point x="175" y="0" type="line"/>
      <point x="175" y="500" type="line"/>
      <point x="75" y="500" type="line"/>
      <point x="75" y="0" type="line"/>
    </contour>
    <contour>
      <point x="260" y="580" type="line"/>
      <point x="260" y="650" type="line"/>
      <point x="-10" y="650" type="line"/>
      <point x="-10" y="580" type="line"/>
    </contour>
  </outline>
</glyph>
<glyph name="kgreenlandic" format="2">
  <advance width="480"/>
  <unicode hex="0138"/>
  <outline>
    <contour>
      <point x="175" y="0" type="line"/>
      <point x="175" y="250" type="line"/>
      <point x="355" y="0" type="line"/>
      <point x="470" y="0" type="line"/>
      <point x="280" y="260" type="line"/>
      <point x="460" y="500" type="line"/>
      <point x="345" y="500" type="line"/>
      <point x="175" y="270" type="line"/>
      <point x="175" y="500" type="line"/>
      <point x="105" y="500" type="line"/>
      <point x="75" y="470" type="line"/>
      <point x="75" y="0" type="line"/>
    </contour>
  </outline>
</glyph>
<glyph name="Lcaron" format="2">
  <advance width="490"/>
  <unicode hex="013D"/>
  <outline>
    <contour>
      <point x="480" y="0" type="line"/>
      <point x="480" y="70" type="line"/>
      <point x="190" y="70" type="line"/>
      <point x="190" y="700" type="line"/>
      <point x="90" y="700" type="line"/>
      <point x="90" y="0" type="line"/>
    </contour>
    <contour>
      <point x="295" y="484" type="line"/>
      <point x="310" y="493"/>
      <point x="323" y="505"/>
      <point x="335" y="520" type="curve" smooth="yes"/>
      <point x="355" y="545"/>
      <point x="375" y="583"/>
      <point x="375" y="636" type="curve" smooth="yes"/>
      <point x="375" y="675"/>
      <point x="350" y="700"/>
      <point x="315" y="700" type="curve" smooth="yes"/>
      <point x="290" y="700"/>
      <point x="265" y="676"/>
      <point x="265" y="645" type="curve" smooth="yes"/>
      <point x="265" y="614"/>
      <point x="290" y="590"/>
      <point x="315" y="590" type="curve"/>
      <point x="315" y="570"/>
      <point x="302" y="552"/>
      <point x="290" y="537" type="curve"/>
      <point x="283" y="529"/>
      <point x="274" y="522"/>
      <point x="265" y="515" type="curve"/>
    </contour>
  </outline>
</glyph>
<glyph name="Lslash" format="2">
  <advance width="472"/>
  <unicode hex="0141"/>
  <outline>
    <contour>
      <point x="462" y="0" type="line"/>
      <point x="462" y="70" type="line"/>
      <point x="182" y="70" type="line"/>
      <point x="182" y="345" type="line"/>
      <point x="295" y="430" type="line"/>
      <point x="295" y="540" type="line"/>
      <point x="182" y="455" type="line"/>
      <point x="182" y="700" type="line"/>
      <point x="82" y="700" type="line"/>
      <point x="82" y="380" type="line"/>
      <point x="15" y="330" type="line"/>
      <point x="15" y="220" type="line"/>
      <point x="82" y="270" type="line"/>
      <point x="82" y="0" type="line"/>
    </contour>
  </outline>
</glyph>
<glyph name="lslash" format="2">
  <advance width="290"/>
  <unicode hex="0142"/>
  <outline>
    <contour>
      <point x="185" y="0" type="line"/>
      <point x="185" y="349" type="line"/>
      <point x="265" y="420" type="line"/>
      <point x="265" y="530" type="line"/>
      <point x="185" y="459" type="line"/>
      <point x="185" y="700" type="line"/>
      <point x="115" y="700" type="line"/>
      <point x="85" y="670" type="line"/>
      <point x="85" y="379" type="line"/>
      <point x="25" y="330" type="line"/>
      <point x="25" y="220" type="line"/>
      <point x="85" y="269" type="line"/>
      <point x="85" y="0" type="line"/>
    </contour>
  </outline>
</glyph>
<glyph name="OE" format="2">
  <advance width="815"/>
  <unicode hex="0152"/>
  <outline>
    <contour>
      <point x="785" y="0" type="line"/>
      <point x="785" y="70" type="line"/>
      <point x="495" y="70" type="line"/>
      <point x="495" y="330" type="line"/>
      <point x="725" y="330" type="line"/>
      <point x="725" y="400" type="line"/>
      <point x="495" y="400" type="line"/>
      <point x="495" y="630" type="line"/>
      <point x="785" y="630" type="line"/>
      <point x="785" y="700" type="line"/>
      <point x="345" y="700" type="line" smooth="yes"/>
      <point x="155" y="700"/>
      <point x="55" y="601"/>
      <point x="55" y="350" type="curve" smooth="yes"/>
      <point x="55" y="99"/>
      <point x="155" y="0"/>
      <point x="345" y="0" type="curve" smooth="yes"/>
    </contour>
    <contour>
      <point x="345" y="70" type="line"/>
      <point x="225" y="70"/>
      <point x="155" y="139"/>
      <point x="155" y="350" type="curve" smooth="yes"/>
      <point x="155" y="561"/>
      <point x="225" y="630"/>
      <point x="345" y="630" type="curve" smooth="yes"/>
      <point x="395" y="630" type="line"/>
      <point x="395" y="70" type="line"/>
    </contour>
  </outline>
</glyph>
<glyph name="circumflex" format="2">
  <advance width="320"/>
  <unicode hex="02C6"/>
  <outline>
    <contour>
      <point x="85" y="560" type="line"/>
      <point x="160" y="625" type="line"/>
      <point x="235" y="560" type="line"/>
      <point x="300" y="560" type="line"/>
      <point x="195" y="690" type="line"/>
      <point x="125" y="690" type="line"/>
      <point x="20" y="560" type="line"/>
    </contour>
  </outline>
</glyph>
<glyph name="breve" format="2">
  <advance width="320"/>
  <unicode hex="02D8"/>
  <outline>
    <contour>
      <point x="160" y="560" type="curve" smooth="yes"/>
      <point x="260" y="560"/>
      <point x="310" y="610"/>
      <point x="310" y="690" type="curve"/>
      <point x="220" y="690" type="line"/>
      <point x="220" y="639"/>
      <point x="200" y="620"/>
      <point x="160" y="620" type="curve" smooth="yes"/>
      <point x="120" y="620"/>
      <point x="100" y="639"/>
      <point x="100" y="690" type="curve"/>
      <point x="10" y="690" type="line"/>
      <point x="10" y="610"/>
      <point x="60" y="560"/>
    </contour>
  </outline>
</glyph>
<glyph name="ring" format="2">
  <advance width="220"/>
  <unicode hex="02DA"/>
  <outline>
    <contour>
      <point x="110" y="540" type="curve" smooth="yes"/>
      <point x="170" y="540"/>
      <point x="210" y="579"/>
      <point x="210" y="635" type="curve" smooth="yes"/>
      <point x="210" y="691"/>
      <point x="170" y="730"/>
      <point x="110" y="730" type="curve" smooth="yes"/>
      <point x="50" y="730"/>
      <point x="10" y="691"/>
      <point x="10" y="635" type="curve" smooth="yes"/>
      <point x="10" y="579"/>
      <point x="50" y="540"/>
    </contour>
    <contour>
      <point x="110" y="590" type="curve" smooth="yes"/>
      <point x="90" y="590"/>
      <point x="70" y="604"/>
      <point x="70" y="635" type="curve" smooth="yes"/>
      <point x="70" y="666"/>
      <point x="90" y="680"/>
      <point x="110" y="680" type="curve" smooth="yes"/>
      <point x="130" y="680"/>
      <point x="150" y="666"/>
      <point x="150" y="635" type="curve" smooth="yes"/>
      <point x="150" y="604"/>
      <point x="130" y="590"/>
    </contour>
  </outline>
</glyph>
<glyph name="tilde" format="2">
  <advance width="295"/>
  <unicode hex="02DC"/>
  <outline>
    <contour>
      <point x="195" y="580" type="curve" smooth="yes"/>
      <point x="244" y="580"/>
      <point x="270" y="620"/>
      <point x="285" y="665" type="curve"/>
      <point x="245" y="690" type="line"/>
      <point x="236" y="690" type="line"/>
      <point x="237" y="689"/>
      <point x="220" y="649"/>
      <point x="190" y="650" type="curve"/>
      <point x="160" y="650"/>
      <point x="150" y="695"/>
      <point x="100" y="695" type="curve" smooth="yes"/>
      <point x="49" y="695"/>
      <point x="26" y="655"/>
      <point x="10" y="610" type="curve"/>
      <point x="50" y="585" type="line"/>
      <point x="59" y="585" type="line"/>
      <point x="58" y="584"/>
      <point x="75" y="624"/>
      <point x="105" y="625" type="curve"/>
      <point x="135" y="625"/>
      <point x="145" y="580"/>
    </contour>
  </outline>
</glyph>
<glyph name="hungarumlautcomb" format="2">
  <advance width="295"/>
  <unicode hex="030B"/>
  <anchor x="100" y="500" name="_top"/>
  <anchor x="148" y="700" name="top"/>
  <outline>
    <contour>
      <point x="200" y="550" type="line"/>
      <point x="285" y="700" type="line"/>
      <point x="190" y="700" type="line"/>
      <point x="145" y="550" type="line"/>
    </contour>
    <contour>
      <point x="65" y="550" type="line"/>
      <point x="150" y="700" type="line"/>
      <point x="55" y="700" type="line"/>
      <point x="10" y="550" type="line"/>
    </contour>
  </outline>
</glyph>
<glyph name="commaaccentcomb" format="2">
  <advance width="130"/>
  <unicode hex="0326"/>
  <anchor x="65" y="0" name="_bottom"/>
  <anchor x="65" y="-236" name="bottom"/>
  <outline>
    <contour>
      <point x="40" y="-236" type="line"/>
      <point x="55" y="-227"/>
      <point x="68" y="-215"/>
      <point x="80" y="-200" type="curve" smooth="yes"/>
      <point x="100" y="-175"/>
      <point x="120" y="-137"/>
      <point x="120" y="-84" type="curve" smooth="yes"/>
      <point x="120" y="-45"/>
      <point x="95" y="-20"/>
      <point x="60" y="-20" type="curve" smooth="yes"/>
      <point x="35" y="-20"/>
      <point x="10" y="-44"/>
      <point x="10" y="-75" type="curve" smooth="yes"/>
      <point x="10" y="-106"/>
      <point x="35" y="-130"/>
      <point x="60" y="-130" type="curve"/>
      <point x="60" y="-150"/>
      <point x="47" y="-168"/>
      <point x="35" y="-183" type="curve" smooth="yes"/>
      <point x="28" y="-191"/>
      <point x="19" y="-198"/>
      <point x="10" y="-205" type="curve"/>
    </contour>
  </outline>
</glyph>
<glyph name="strokeshortcomb" format="2">
  <advance width="440"/>
  <unicode hex="0335"/>
  <anchor x="210" y="335" name="_center"/>
  <outline>
    <contour>
      <point x="350" y="300" type="line"/>
      <point x="350" y="370" type="line"/>
      <point x="70" y="370" type="line"/>
      <point x="70" y="300" type="line"/>
    </contour>
  </outline>
</glyph>
<glyph name="Dje-cy" format="2">
  <advance width="640"/>
  <unicode hex="0402"/>
  <outline>
    <contour>
      <point x="435" y="-30" type="curve" smooth="yes"/>
      <point x="526" y="-30"/>
      <point x="590" y="34"/>
      <point x="590" y="130" type="curve" smooth="yes"/>
      <point x="590" y="255" type="line" smooth="yes"/>
      <point x="590" y="370"/>
      <point x="511" y="450"/>
      <point x="380" y="450" type="curve" smooth="yes"/>
      <point x="340" y="450"/>
      <point x="305" y="446"/>
      <point x="280" y="442" type="curve" smooth="yes"/>
      <point x="240" y="435" type="line"/>
      <point x="240" y="630" type="line"/>
      <point x="420" y="630" type="line"/>
      <point x="420" y="700" type="line"/>
      <point x="0" y="700" type="line"/>
      <point x="0" y="630" type="line"/>
      <point x="140" y="630" type="line"/>
      <point x="140" y="0" type="line"/>
      <point x="240" y="0" type="line"/>
      <point x="240" y="365" type="line"/>
      <point x="273" y="372" type="line" smooth="yes"/>
      <point x="294" y="376"/>
      <point x="322" y="380"/>
      <point x="355" y="380" type="curve" smooth="yes"/>
      <point x="440" y="380"/>
      <point x="490" y="331"/>
      <point x="490" y="255" type="curve" smooth="yes"/>
      <point x="490" y="130" type="line" smooth="yes"/>
      <point x="490" y="70"/>
      <point x="460" y="40"/>
      <point x="415" y="40" type="curve" smooth="yes"/>
      <point x="405" y="40"/>
      <point x="395" y="42"/>
      <point x="385" y="45" type="curve"/>
      <point x="380" y="46"/>
      <point x="375" y="48"/>
      <point x="370" y="50" type="curve"/>
      <point x="360" y="50" type="line"/>
      <point x="350" y="-15" type="line"/>
      <point x="358" y="-18"/>
      <point x="367" y="-20"/>
      <point x="376" y="-23" type="curve"/>
      <point x="392" y="-27"/>
      <point x="412" y="-30"/>
    </contour>
  </outline>
</glyph>
<glyph name="Lje-cy" format="2">
  <advance width="881"/>
  <unicode hex="0409"/>
  <outline>
    <contour>
      <point x="65" y="-10" type="curve" smooth="yes"/>
      <point x="141" y="-10"/>
      <point x="193" y="44"/>
      <point x="200" y="160" type="curve"/>
      <point x="225" y="630" type="line"/>
      <point x="410" y="630" type="line"/>
      <point x="410" y="0" type="line"/>
      <point x="601" y="0" type="line" smooth="yes"/>
      <point x="768" y="0"/>
      <point x="846" y="79"/>
      <point x="846" y="220" type="curve" smooth="yes"/>
      <point x="846" y="361"/>
      <point x="768" y="440"/>
      <point x="601" y="440" type="curve" smooth="yes"/>
      <point x="511" y="440" type="line"/>
      <point x="511" y="700" type="line"/>
      <point x="130" y="700" type="line"/>
      <point x="100" y="160" type="line" smooth="yes"/>
      <point x="96" y="85"/>
      <point x="70" y="60"/>
      <point x="45" y="60" type="curve" smooth="yes"/>
      <point x="41" y="60"/>
      <point x="36" y="61"/>
      <point x="31" y="62" type="curve"/>
      <point x="25" y="65" type="line"/>
      <point x="15" y="65" type="line"/>
      <point x="10" y="0" type="line"/>
      <point x="15" y="-2"/>
      <point x="20" y="-4"/>
      <point x="26" y="-5" type="curve"/>
      <point x="37" y="-8"/>
      <point x="50" y="-10"/>
    </contour>
    <contour>
      <point x="511" y="370" type="line"/>
      <point x="601" y="370" type="line"/>
      <point x="698" y="370"/>
      <point x="746" y="320"/>
      <point x="746" y="220" type="curve" smooth="yes"/>
      <point x="746" y="120"/>
      <point x="698" y="70"/>
      <point x="601" y="70" type="curve" smooth="yes"/>
      <point x="511" y="70" type="line"/>
    </contour>
  </outline>
</glyph>
<glyph name="Nje-cy" format="2">
  <advance width="900"/>
  <unicode hex="040A"/>
  <outline>
    <contour>
      <point x="190" y="0" type="line"/>
      <point x="190" y="350" type="line"/>
      <point x="430" y="350" type="line"/>
      <point x="430" y="0" type="line"/>
      <point x="620" y="0" type="line" smooth="yes"/>
      <point x="785" y="0"/>
      <point x="865" y="79"/>
      <point x="865" y="210" type="curve" smooth="yes"/>
      <point x="865" y="339"/>
      <point x="785" y="420"/>
      <point x="620" y="420" type="curve" smooth="yes"/>
      <point x="530" y="420" type="line"/>
      <point x="530" y="700" type="line"/>
      <point x="430" y="700" type="line"/>
      <point x="430" y="420" type="line"/>
      <point x="190" y="420" type="line"/>
      <point x="190" y="700" type="line"/>
      <point x="90" y="700" type="line"/>
      <point x="90" y="0" type="line"/>
    </contour>
    <contour>
      <point x="530" y="350" type="line"/>
      <point x="620" y="350" type="line" smooth="yes"/>
      <point x="716" y="350"/>
      <point x="765" y="301"/>
      <point x="765" y="210" type="curve" smooth="yes"/>
      <point x="765" y="119"/>
      <point x="716" y="70"/>
      <point x="620" y="70" type="curve" smooth="yes"/>
      <point x="530" y="70" type="line"/>
    </contour>
  </outline>
</glyph>
<glyph name="Tshe-cy" format="2">
  <advance width="650"/>
  <unicode hex="040B"/>
  <outline>
    <contour>
      <point x="240" y="0" type="line"/>
      <point x="240" y="365" type="line"/>
      <point x="273" y="372" type="line" smooth="yes"/>
      <point x="294" y="376"/>
      <point x="322" y="380"/>
      <point x="355" y="380" type="curve" smooth="yes"/>
      <point x="440" y="380"/>
      <point x="490" y="331"/>
      <point x="490" y="255" type="curve" smooth="yes"/>
      <point x="490" y="0" type="line"/>
      <point x="590" y="0" type="line"/>
      <point x="590" y="255" type="line" smooth="yes"/>
      <point x="590" y="370"/>
      <point x="511" y="450"/>
      <point x="380" y="450" type="curve" smooth="yes"/>
      <point x="340" y="450"/>
      <point x="305" y="446"/>
      <point x="280" y="442" type="curve" smooth="yes"/>
      <point x="272.875" y="440.753"/>
      <point x="246.44" y="436.127"/>
      <point x="240" y="435" type="curve"/>
      <point x="240" y="630" type="line"/>
      <point x="420" y="630" type="line"/>
      <point x="420" y="700" type="line"/>
      <point x="0" y="700" type="line"/>
      <point x="0" y="630" type="line"/>
      <point x="140" y="630" type="line"/>
      <point x="140" y="0" type="line"/>
    </contour>
  </outline>
</glyph>
<glyph name="Dzhe-cy" format="2">
  <advance width="630"/>
  <unicode hex="040F"/>
  <outline>
    <contour>
      <point x="355" y="-150" type="line"/>
      <point x="365" y="0" type="line"/>
      <point x="540" y="0" type="line"/>
      <point x="540" y="700" type="line"/>
      <point x="440" y="700" type="line"/>
      <point x="440" y="70" type="line"/>
      <point x="190" y="70" type="line"/>
      <point x="190" y="700" type="line"/>
      <point x="90" y="700" type="line"/>
      <point x="90" y="0" type="line"/>
      <point x="265" y="0" type="line"/>
      <point x="275" y="-150" type="line"/>
    </contour>
  </outline>
</glyph>
<glyph name="Be-cy" format="2">
  <advance width="570"/>
  <unicode hex="0411"/>
  <outline>
    <contour>
      <point x="280" y="0" type="line" smooth="yes"/>
      <point x="445" y="0"/>
      <point x="525" y="79"/>
      <point x="525" y="210" type="curve" smooth="yes"/>
      <point x="525" y="339"/>
      <point x="445" y="420"/>
      <point x="280" y="420" type="curve" smooth="yes"/>
      <point x="190" y="420" type="line"/>
      <point x="190" y="630" type="line"/>
      <point x="480" y="630" type="line"/>
      <point x="480" y="700" type="line"/>
      <point x="90" y="700" type="line"/>
      <point x="90" y="0" type="line"/>
    </contour>
    <contour>
      <point x="190" y="350" type="line"/>
      <point x="280" y="350" type="line"/>
      <point x="376" y="350"/>
      <point x="425" y="301"/>
      <point x="425" y="210" type="curve" smooth="yes"/>
      <point x="425" y="119"/>
      <point x="376" y="70"/>
      <point x="280" y="70" type="curve" smooth="yes"/>
      <point x="190" y="70" type="line"/>
    </contour>
  </outline>
</glyph>
<glyph name="Zhe-cy" format="2">
  <advance width="860"/>
  <unicode hex="0416"/>
  <anchor x="675" y="0" name="bottomright"/>
  <anchor x="430" y="700" name="top"/>
  <outline>
    <contour>
      <point x="85" y="-10" type="curve" smooth="yes"/>
      <point x="150" y="-10"/>
      <point x="187" y="30"/>
      <point x="200" y="90" type="curve" smooth="yes"/>
      <point x="235" y="250" type="line"/>
      <point x="246" y="295"/>
      <point x="274" y="325"/>
      <point x="325" y="325" type="curve" smooth="yes"/>
      <point x="380" y="325" type="line"/>
      <point x="380" y="0" type="line"/>
      <point x="480" y="0" type="line"/>
      <point x="480" y="325" type="line"/>
      <point x="535" y="325" type="line" smooth="yes"/>
      <point x="586" y="325"/>
      <point x="614" y="295"/>
      <point x="625" y="250" type="curve"/>
      <point x="660" y="90" type="line" smooth="yes"/>
      <point x="673" y="30"/>
      <point x="710" y="-10"/>
      <point x="775" y="-10" type="curve" smooth="yes"/>
      <point x="799" y="-10"/>
      <point x="819" y="-6"/>
      <point x="835" y="0" type="curve"/>
      <point x="825" y="65" type="line"/>
      <point x="820" y="65" type="line"/>
      <point x="812" y="61"/>
      <point x="808" y="60"/>
      <point x="800" y="60" type="curve" smooth="yes"/>
      <point x="780" y="60"/>
      <point x="767" y="75"/>
      <point x="760" y="105" type="curve" smooth="yes"/>
      <point x="725" y="265" type="line"/>
      <point x="714" y="308"/>
      <point x="689" y="332"/>
      <point x="665" y="347" type="curve" smooth="yes"/>
      <point x="651" y="355"/>
      <point x="636" y="361"/>
      <point x="620" y="365" type="curve"/>
      <point x="637" y="368"/>
      <point x="652" y="373"/>
      <point x="665" y="380" type="curve" smooth="yes"/>
      <point x="688" y="392"/>
      <point x="713" y="415"/>
      <point x="720" y="455" type="curve" smooth="yes"/>
      <point x="745" y="595" type="line" smooth="yes"/>
      <point x="750" y="626"/>
      <point x="765" y="640"/>
      <point x="785" y="640" type="curve" smooth="yes"/>
      <point x="790" y="640"/>
      <point x="795" y="638"/>
      <point x="799" y="637" type="curve" smooth="yes"/>
      <point x="802" y="636"/>
      <point x="804" y="636"/>
      <point x="805" y="635" type="curve"/>
      <point x="810" y="635" type="line"/>
      <point x="820" y="700" type="line"/>
      <point x="805" y="705" type="line"/>
      <point x="794" y="708"/>
      <point x="780" y="710"/>
      <point x="760" y="710" type="curve" smooth="yes"/>
      <point x="695" y="710"/>
      <point x="656" y="670"/>
      <point x="645" y="610" type="curve" smooth="yes"/>
      <point x="620" y="470" type="line" smooth="yes"/>
      <point x="612" y="425"/>
      <point x="581" y="395"/>
      <point x="525" y="395" type="curve" smooth="yes"/>
      <point x="480" y="395" type="line"/>
      <point x="480" y="700" type="line"/>
      <point x="380" y="700" type="line"/>
      <point x="380" y="395" type="line"/>
      <point x="335" y="395" type="line" smooth="yes"/>
      <point x="279" y="395"/>
      <point x="248" y="425"/>
      <point x="240" y="470" type="curve" smooth="yes"/>
      <point x="215" y="610" type="line" smooth="yes"/>
      <point x="204" y="670"/>
      <point x="165" y="710"/>
      <point x="100" y="710" type="curve" smooth="yes"/>
      <point x="80" y="710"/>
      <point x="66" y="708"/>
      <point x="55" y="705" type="curve"/>
      <point x="40" y="700" type="line"/>
      <point x="50" y="635" type="line"/>
      <point x="55" y="635" type="line"/>
      <point x="56" y="636"/>
      <point x="58" y="636"/>
      <point x="61" y="637" type="curve" smooth="yes"/>
      <point x="65" y="638"/>
      <point x="70" y="640"/>
      <point x="75" y="640" type="curve" smooth="yes"/>
      <point x="96" y="640"/>
      <point x="110" y="625"/>
      <point x="115" y="595" type="curve" smooth="yes"/>
      <point x="140" y="455" type="line" smooth="yes"/>
      <point x="147" y="415"/>
      <point x="172" y="392"/>
      <point x="195" y="380" type="curve" smooth="yes"/>
      <point x="208" y="373"/>
      <point x="223" y="368"/>
      <point x="240" y="365" type="curve"/>
      <point x="224" y="361"/>
      <point x="209" y="355"/>
      <point x="195" y="347" type="curve" smooth="yes"/>
      <point x="171" y="332"/>
      <point x="144" y="308"/>
      <point x="135" y="265" type="curve" smooth="yes"/>
      <point x="100" y="105" type="line" smooth="yes"/>
      <point x="93" y="75"/>
      <point x="79" y="60"/>
      <point x="60" y="60" type="curve" smooth="yes"/>
      <point x="56" y="60"/>
      <point x="51" y="61"/>
      <point x="46" y="62" type="curve"/>
      <point x="40" y="65" type="line"/>
      <point x="35" y="65" type="line"/>
      <point x="25" y="0" type="line"/>
      <point x="29" y="-2"/>
      <point x="34" y="-4"/>
      <point x="40" y="-5" type="curve" smooth="yes"/>
      <point x="51" y="-8"/>
      <point x="66" y="-10"/>
    </contour>
  </outline>
</glyph>
<glyph name="Ii-cy" format="2">
  <advance width="630"/>
  <unicode hex="0418"/>
  <anchor x="440" y="0" name="bottomright"/>
  <anchor x="315" y="700" name="top"/>
  <outline>
    <contour>
      <point x="190" y="0" type="line"/>
      <point x="410" y="445" type="line" smooth="yes"/>
      <point x="417" y="460"/>
      <point x="424" y="480"/>
      <point x="431" y="499" type="curve"/>
      <point x="440" y="530" type="line"/>
      <point x="444" y="530" type="line"/>
      <point x="442" y="499" type="line" smooth="yes"/>
      <point x="441" y="480"/>
      <point x="440" y="460"/>
      <point x="440" y="445" type="curve" smooth="yes"/>
      <point x="440" y="0" type="line"/>
      <point x="540" y="0" type="line"/>
      <point x="540" y="700" type="line"/>
      <point x="440" y="700" type="line"/>
      <point x="220" y="255" type="line" smooth="yes"/>
      <point x="212" y="240"/>
      <point x="206" y="218"/>
      <point x="199" y="201" type="curve"/>
      <point x="190" y="170" type="line"/>
      <point x="186" y="170" type="line"/>
      <point x="188" y="201" type="line" smooth="yes"/>
      <point x="189" y="218"/>
      <point x="190" y="240"/>
      <point x="190" y="255" type="curve" smooth="yes"/>
      <point x="190" y="700" type="line"/>
      <point x="90" y="700" type="line"/>
      <point x="90" y="0" type="line"/>
    </contour>
  </outline>
</glyph>
<glyph name="El-cy" format="2">
  <advance width="610"/>
  <unicode hex="041B"/>
  <outline>
    <contour>
      <point x="65" y="-10" type="curve" smooth="yes"/>
      <point x="141" y="-10"/>
      <point x="193" y="44"/>
      <point x="200" y="160" type="curve"/>
      <point x="225" y="630" type="line"/>
      <point x="420" y="630" type="line"/>
      <point x="420" y="0" type="line"/>
      <point x="520" y="0" type="line"/>
      <point x="520" y="700" type="line"/>
      <point x="130" y="700" type="line"/>
      <point x="100" y="160" type="line" smooth="yes"/>
      <point x="96" y="85"/>
      <point x="70" y="60"/>
      <point x="45" y="60" type="curve" smooth="yes"/>
      <point x="41" y="60"/>
      <point x="36" y="61"/>
      <point x="31" y="62" type="curve"/>
      <point x="25" y="65" type="line"/>
      <point x="15" y="65" type="line"/>
      <point x="10" y="0" type="line"/>
      <point x="15" y="-2"/>
      <point x="20" y="-4"/>
      <point x="26" y="-5" type="curve"/>
      <point x="37" y="-8"/>
      <point x="50" y="-10"/>
    </contour>
  </outline>
</glyph>
<glyph name="En-cy" format="2">
  <advance width="630"/>
  <unicode hex="041D"/>
  <anchor x="440" y="0" name="bottomright"/>
  <outline>
    <contour>
      <point x="190" y="0" type="line"/>
      <point x="190" y="320" type="line"/>
      <point x="440" y="320" type="line"/>
      <point x="440" y="0" type="line"/>
      <point x="540" y="0" type="line"/>
      <point x="540" y="700" type="line"/>
      <point x="440" y="700" type="line"/>
      <point x="440" y="390" type="line"/>
      <point x="190" y="390" type="line"/>
      <point x="190" y="700" type="line"/>
      <point x="90" y="700" type="line"/>
      <point x="90" y="0" type="line"/>
    </contour>
  </outline>
</glyph>
<glyph name="O-cy" format="2">
  <advance width="600"/>
  <unicode hex="041E"/>
  <anchor x="300" y="350" name="center"/>
  <anchor x="300" y="700" name="top"/>
  <outline>
    <contour>
      <point x="300" y="-10" type="curve" smooth="yes"/>
      <point x="445" y="-10"/>
      <point x="545" y="90"/>
      <point x="545" y="350" type="curve" smooth="yes"/>
      <point x="545" y="610"/>
      <point x="445" y="710"/>
      <point x="300" y="710" type="curve" smooth="yes"/>
      <point x="155" y="710"/>
      <point x="55" y="610"/>
      <point x="55" y="350" type="curve" smooth="yes"/>
      <point x="55" y="90"/>
      <point x="155" y="-10"/>
    </contour>
    <contour>
      <point x="300" y="60" type="curve" smooth="yes"/>
      <point x="225" y="60"/>
      <point x="155" y="130"/>
      <point x="155" y="350" type="curve" smooth="yes"/>
      <point x="155" y="570"/>
      <point x="225" y="640"/>
      <point x="300" y="640" type="curve" smooth="yes"/>
      <point x="375" y="640"/>
      <point x="445" y="570"/>
      <point x="445" y="350" type="curve" smooth="yes"/>
      <point x="445" y="130"/>
      <point x="375" y="60"/>
    </contour>
  </outline>
</glyph>
<glyph name="Pe-cy" format="2">
  <advance width="630"/>
  <unicode hex="041F"/>
  <anchor x="440" y="0" name="bottomright"/>
  <outline>
    <contour>
      <point x="190" y="0" type="line"/>
      <point x="190" y="630" type="line"/>
      <point x="440" y="630" type="line"/>
      <point x="440" y="0" type="line"/>
      <point x="540" y="0" type="line"/>
      <point x="540" y="700" type="line"/>
      <point x="90" y="700" type="line"/>
      <point x="90" y="0" type="line"/>
    </contour>
  </outline>
</glyph>
<glyph name="U-cy" format="2">
  <advance width="536"/>
  <unicode hex="0423"/>
  <anchor x="268" y="700" name="top"/>
  <outline>
    <contour>
      <point x="166" y="-15" type="curve" smooth="yes"/>
      <point x="251" y="-15"/>
      <point x="317" y="50"/>
      <point x="341" y="125" type="curve" smooth="yes"/>
      <point x="526" y="700" type="line"/>
      <point x="426" y="700" type="line"/>
      <point x="306" y="335" type="line"/>
      <point x="293" y="288" type="line" smooth="yes"/>
      <point x="290" y="279"/>
      <point x="288" y="269"/>
      <point x="287" y="260" type="curve"/>
      <point x="283" y="260" type="line"/>
      <point x="276" y="288" type="line" smooth="yes"/>
      <point x="272" y="304"/>
      <point x="266" y="322"/>
      <point x="261" y="335" type="curve" smooth="yes"/>
      <point x="115" y="700" type="line"/>
      <point x="10" y="700" type="line"/>
      <point x="216" y="185" type="line"/>
      <point x="261" y="185" type="line"/>
      <point x="241" y="125" type="line" smooth="yes"/>
      <point x="228" y="85"/>
      <point x="196" y="55"/>
      <point x="156" y="55" type="curve" smooth="yes"/>
      <point x="137" y="55"/>
      <point x="124" y="60"/>
      <point x="113" y="67" type="curve"/>
      <point x="106" y="70"/>
      <point x="101" y="75"/>
      <point x="96" y="80" type="curve"/>
      <point x="86" y="80" type="line"/>
      <point x="61" y="15" type="line"/>
      <point x="69" y="9"/>
      <point x="78" y="4"/>
      <point x="89" y="0" type="curve" smooth="yes"/>
      <point x="108" y="-8"/>
      <point x="133" y="-15"/>
    </contour>
  </outline>
</glyph>
<glyph name="Ef-cy" format="2">
  <advance width="770"/>
  <unicode hex="0424"/>
  <outline>
    <contour>
      <point x="435" y="-30" type="line"/>
      <point x="435" y="40" type="line"/>
      <point x="622" y="51"/>
      <point x="725" y="154"/>
      <point x="725" y="350" type="curve" smooth="yes"/>
      <point x="725" y="546"/>
      <point x="622" y="649"/>
      <point x="435" y="660" type="curve"/>
      <point x="435" y="730" type="line"/>
      <point x="335" y="730" type="line"/>
      <point x="335" y="660" type="line"/>
      <point x="148" y="649"/>
      <point x="45" y="546"/>
      <point x="45" y="350" type="curve" smooth="yes"/>
      <point x="45" y="154"/>
      <point x="148" y="51"/>
      <point x="335" y="40" type="curve"/>
      <point x="335" y="-30" type="line"/>
    </contour>
    <contour>
      <point x="335" y="110" type="line"/>
      <point x="220" y="119"/>
      <point x="145" y="195"/>
      <point x="145" y="350" type="curve" smooth="yes"/>
      <point x="145" y="506"/>
      <point x="220" y="579"/>
      <point x="335" y="590" type="curve"/>
    </contour>
    <contour>
      <point x="435" y="590" type="line"/>
      <point x="550" y="579"/>
      <point x="625" y="506"/>
      <point x="625" y="350" type="curve" smooth="yes"/>
      <point x="625" y="195"/>
      <point x="550" y="119"/>
      <point x="435" y="110" type="curve"/>
    </contour>
  </outline>
</glyph>
<glyph name="Tse-cy" format="2">
  <advance width="635"/>
  <unicode hex="0426"/>
  <outline>
    <contour>
      <point x="595" y="-150" type="line"/>
      <point x="595" y="70" type="line"/>
      <point x="530" y="70" type="line"/>
      <point x="530" y="700" type="line"/>
      <point x="430" y="700" type="line"/>
      <point x="430" y="70" type="line"/>
      <point x="190" y="70" type="line"/>
      <point x="190" y="700" type="line"/>
      <point x="90" y="700" type="line"/>
      <point x="90" y="0" type="line"/>
      <point x="500" y="0" type="line"/>
      <point x="515" y="-150" type="line"/>
    </contour>
  </outline>
</glyph>
<glyph name="Che-cy" format="2">
  <advance width="600"/>
  <unicode hex="0427"/>
  <anchor x="410" y="0" name="bottomright"/>
  <anchor x="300" y="300" name="center"/>
  <anchor x="280" y="700" name="top"/>
  <outline>
    <contour>
      <point x="510" y="0" type="line"/>
      <point x="510" y="700" type="line"/>
      <point x="410" y="700" type="line"/>
      <point x="410" y="345" type="line"/>
      <point x="400" y="342"/>
      <point x="389" y="340"/>
      <point x="377" y="337" type="curve"/>
      <point x="356" y="333"/>
      <point x="327" y="330"/>
      <point x="295" y="330" type="curve" smooth="yes"/>
      <point x="210" y="330"/>
      <point x="160" y="379"/>
      <point x="160" y="455" type="curve" smooth="yes"/>
      <point x="160" y="700" type="line"/>
      <point x="60" y="700" type="line"/>
      <point x="60" y="455" type="line" smooth="yes"/>
      <point x="60" y="340"/>
      <point x="139" y="260"/>
      <point x="270" y="260" type="curve" smooth="yes"/>
      <point x="310" y="260"/>
      <point x="345" y="263"/>
      <point x="370" y="267" type="curve"/>
      <point x="385" y="270"/>
      <point x="398" y="272"/>
      <point x="410" y="275" type="curve"/>
      <point x="410" y="0" type="line"/>
    </contour>
  </outline>
</glyph>
<glyph name="Sha-cy" format="2">
  <advance width="920"/>
  <unicode hex="0428"/>
  <outline>
    <contour>
      <point x="830" y="0" type="line"/>
      <point x="830" y="700" type="line"/>
      <point x="730" y="700" type="line"/>
      <point x="730" y="70" type="line"/>
      <point x="510" y="70" type="line"/>
      <point x="510" y="700" type="line"/>
      <point x="410" y="700" type="line"/>
      <point x="410" y="70" type="line"/>
      <point x="190" y="70" type="line"/>
      <point x="190" y="700" type="line"/>
      <point x="90" y="700" type="line"/>
      <point x="90" y="0" type="line"/>
    </contour>
  </outline>
</glyph>
<glyph name="Shcha-cy" format="2">
  <advance width="935"/>
  <unicode hex="0429"/>
  <outline>
    <contour>
      <point x="895" y="-150" type="line"/>
      <point x="895" y="70" type="line"/>
      <point x="830" y="70" type="line"/>
      <point x="830" y="700" type="line"/>
      <point x="730" y="700" type="line"/>
      <point x="730" y="70" type="line"/>
      <point x="510" y="70" type="line"/>
      <point x="510" y="700" type="line"/>
      <point x="410" y="700" type="line"/>
      <point x="410" y="70" type="line"/>
      <point x="190" y="70" type="line"/>
      <point x="190" y="700" type="line"/>
      <point x="90" y="700" type="line"/>
      <point x="90" y="0" type="line"/>
      <point x="800" y="0" type="line"/>
      <point x="815" y="-150" type="line"/>
    </contour>
  </outline>
</glyph>
<glyph name="Yeru-cy" format="2">
  <advance width="800"/>
  <unicode hex="042B"/>
  <anchor x="400" y="700" name="top"/>
  <outline>
    <contour>
      <point x="270" y="0" type="line" smooth="yes"/>
      <point x="437" y="0"/>
      <point x="515" y="79"/>
      <point x="515" y="220" type="curve" smooth="yes"/>
      <point x="515" y="361"/>
      <point x="437" y="440"/>
      <point x="270" y="440" type="curve" smooth="yes"/>
      <point x="190" y="440" type="line"/>
      <point x="190" y="700" type="line"/>
      <point x="90" y="700" type="line"/>
      <point x="90" y="0" type="line"/>
    </contour>
    <contour>
      <point x="190" y="370" type="line"/>
      <point x="270" y="370" type="line"/>
      <point x="367" y="370"/>
      <point x="415" y="320"/>
      <point x="415" y="220" type="curve" smooth="yes"/>
      <point x="415" y="120"/>
      <point x="367" y="70"/>
      <point x="270" y="70" type="curve" smooth="yes"/>
      <point x="190" y="70" type="line"/>
    </contour>
    <contour>
      <point x="710" y="0" type="line"/>
      <point x="710" y="700" type="line"/>
      <point x="610" y="700" type="line"/>
      <point x="610" y="0" type="line"/>
    </contour>
  </outline>
</glyph>
<glyph name="Softsign-cy" format="2">
  <advance width="560"/>
  <unicode hex="042C"/>
  <outline>
    <contour>
      <point x="280" y="0" type="line" smooth="yes"/>
      <point x="447" y="0"/>
      <point x="525" y="79"/>
      <point x="525" y="220" type="curve" smooth="yes"/>
      <point x="525" y="361"/>
      <point x="447" y="440"/>
      <point x="280" y="440" type="curve" smooth="yes"/>
      <point x="190" y="440" type="line"/>
      <point x="190" y="700" type="line"/>
      <point x="90" y="700" type="line"/>
      <point x="90" y="0" type="line"/>
    </contour>
    <contour>
      <point x="190" y="370" type="line"/>
      <point x="280" y="370" type="line" smooth="yes"/>
      <point x="377" y="370"/>
      <point x="425" y="320"/>
      <point x="425" y="220" type="curve" smooth="yes"/>
      <point x="425" y="120"/>
      <point x="377" y="70"/>
      <point x="280" y="70" type="curve" smooth="yes"/>
      <point x="190" y="70" type="line"/>
    </contour>
  </outline>
</glyph>
<glyph name="Ereversed-cy" format="2">
  <advance width="515"/>
  <unicode hex="042D"/>
  <outline>
    <contour>
      <point x="200" y="-10" type="curve" smooth="yes"/>
      <point x="360" y="-10"/>
      <point x="460" y="90"/>
      <point x="460" y="350" type="curve" smooth="yes"/>
      <point x="460" y="610"/>
      <point x="359" y="710"/>
      <point x="210" y="710" type="curve" smooth="yes"/>
      <point x="154" y="710"/>
      <point x="112" y="697"/>
      <point x="81" y="682" type="curve" smooth="yes"/>
      <point x="64" y="674"/>
      <point x="48" y="665"/>
      <point x="35" y="655" type="curve"/>
      <point x="70" y="595" type="line"/>
      <point x="80" y="595" type="line"/>
      <point x="91" y="603"/>
      <point x="102" y="610"/>
      <point x="114" y="617" type="curve"/>
      <point x="135" y="628"/>
      <point x="165" y="640"/>
      <point x="200" y="640" type="curve" smooth="yes"/>
      <point x="284" y="640"/>
      <point x="351" y="579"/>
      <point x="359" y="390" type="curve"/>
      <point x="125" y="390" type="line"/>
      <point x="125" y="320" type="line"/>
      <point x="360" y="320" type="line"/>
      <point x="355" y="124"/>
      <point x="285" y="60"/>
      <point x="190" y="60" type="curve" smooth="yes"/>
      <point x="155" y="60"/>
      <point x="125" y="71"/>
      <point x="104" y="82" type="curve"/>
      <point x="92" y="89"/>
      <point x="81" y="96"/>
      <point x="70" y="105" type="curve"/>
      <point x="60" y="105" type="line"/>
      <point x="25" y="45" type="line"/>
      <point x="38" y="34"/>
      <point x="54" y="25"/>
      <point x="71" y="17" type="curve" smooth="yes"/>
      <point x="102" y="2"/>
      <point x="144" y="-10"/>
    </contour>
  </outline>
</glyph>
<glyph name="Iu-cy" format="2">
  <advance width="810"/>
  <unicode hex="042E"/>
  <outline>
    <contour>
      <point x="520" y="-10" type="curve" smooth="yes"/>
      <point x="656" y="-10"/>
      <point x="755" y="90"/>
      <point x="755" y="350" type="curve" smooth="yes"/>
      <point x="755" y="610"/>
      <point x="656" y="710"/>
      <point x="520" y="710" type="curve" smooth="yes"/>
      <point x="389" y="710"/>
      <point x="296" y="620"/>
      <point x="285" y="390" type="curve"/>
      <point x="190" y="390" type="line"/>
      <point x="190" y="700" type="line"/>
      <point x="90" y="700" type="line"/>
      <point x="90" y="0" type="line"/>
      <point x="190" y="0" type="line"/>
      <point x="190" y="320" type="line"/>
      <point x="285" y="320" type="line"/>
      <point x="296" y="80"/>
      <point x="389" y="-10"/>
    </contour>
    <contour>
      <point x="520" y="60" type="curve" smooth="yes"/>
      <point x="455" y="60"/>
      <point x="385" y="130"/>
      <point x="385" y="350" type="curve" smooth="yes"/>
      <point x="385" y="570"/>
      <point x="455" y="640"/>
      <point x="520" y="640" type="curve" smooth="yes"/>
      <point x="585" y="640"/>
      <point x="655" y="570"/>
      <point x="655" y="350" type="curve" smooth="yes"/>
      <point x="655" y="130"/>
      <point x="585" y="60"/>
    </contour>
  </outline>
</glyph>
<glyph name="Ia-cy" format="2">
  <advance width="570"/>
  <unicode hex="042F"/>
  <outline>
    <contour>
      <point x="80" y="-10" type="curve" smooth="yes"/>
      <point x="140" y="-10"/>
      <point x="176" y="25"/>
      <point x="195" y="90" type="curve" smooth="yes"/>
      <point x="225" y="195" type="line" smooth="yes"/>
      <point x="238" y="240"/>
      <point x="270" y="270"/>
      <point x="315" y="270" type="curve" smooth="yes"/>
      <point x="380" y="270" type="line"/>
      <point x="380" y="0" type="line"/>
      <point x="480" y="0" type="line"/>
      <point x="480" y="700" type="line"/>
      <point x="305" y="700" type="line" smooth="yes"/>
      <point x="134" y="700"/>
      <point x="55" y="621"/>
      <point x="55" y="485" type="curve" smooth="yes"/>
      <point x="55" y="380"/>
      <point x="130" y="306"/>
      <point x="205" y="295" type="curve"/>
      <point x="193" y="292"/>
      <point x="182" y="286"/>
      <point x="172" y="279" type="curve" smooth="yes"/>
      <point x="153" y="266"/>
      <point x="136" y="245"/>
      <point x="125" y="210" type="curve"/>
      <point x="95" y="105" type="line"/>
      <point x="87" y="74"/>
      <point x="70" y="60"/>
      <point x="55" y="60" type="curve" smooth="yes"/>
      <point x="51" y="60"/>
      <point x="46" y="61"/>
      <point x="41" y="62" type="curve"/>
      <point x="35" y="65" type="line"/>
      <point x="30" y="65" type="line"/>
      <point x="20" y="0" type="line"/>
      <point x="24" y="-2"/>
      <point x="29" y="-4"/>
      <point x="35" y="-5" type="curve"/>
      <point x="46" y="-8"/>
      <point x="61" y="-10"/>
    </contour>
    <contour>
      <point x="305" y="340" type="line"/>
      <point x="205" y="340"/>
      <point x="155" y="388"/>
      <point x="155" y="485" type="curve" smooth="yes"/>
      <point x="155" y="582"/>
      <point x="205" y="630"/>
      <point x="305" y="630" type="curve" smooth="yes"/>
      <point x="380" y="630" type="line"/>
      <point x="380" y="340" type="line"/>
    </contour>
  </outline>
</glyph>
<glyph name="be-cy" format="2">
  <advance width="525"/>
  <unicode hex="0431"/>
  <outline>
    <contour>
      <point x="265" y="-10" type="curve" smooth="yes"/>
      <point x="390" y="-10"/>
      <point x="475" y="74"/>
      <point x="475" y="230" type="curve" smooth="yes"/>
      <point x="475" y="386"/>
      <point x="390" y="470"/>
      <point x="290" y="470" type="curve" smooth="yes"/>
      <point x="225" y="470"/>
      <point x="176" y="441"/>
      <point x="145" y="390" type="curve"/>
      <point x="145" y="526"/>
      <point x="199" y="581"/>
      <point x="330" y="605" type="curve" smooth="yes"/>
      <point x="470" y="630" type="line"/>
      <point x="455" y="715" type="line"/>
      <point x="315" y="690" type="line" smooth="yes"/>
      <point x="135" y="658"/>
      <point x="55" y="581"/>
      <point x="55" y="325" type="curve" smooth="yes"/>
      <point x="55" y="230" type="line" smooth="yes"/>
      <point x="55" y="74"/>
      <point x="140" y="-10"/>
    </contour>
    <contour>
      <point x="265" y="60" type="curve" smooth="yes"/>
      <point x="205" y="60"/>
      <point x="155" y="110"/>
      <point x="155" y="230" type="curve" smooth="yes"/>
      <point x="155" y="345"/>
      <point x="205" y="395"/>
      <point x="265" y="395" type="curve" smooth="yes"/>
      <point x="325" y="395"/>
      <point x="375" y="345"/>
      <point x="375" y="230" type="curve" smooth="yes"/>
      <point x="375" y="110"/>
      <point x="325" y="60"/>
    </contour>
  </outline>
</glyph>
<glyph name="ve-cy" format="2">
  <advance width="510"/>
  <unicode hex="0432"/>
  <outline>
    <contour>
      <point x="265" y="0" type="line" smooth="yes"/>
      <point x="405" y="0"/>
      <point x="465" y="60"/>
      <point x="465" y="135" type="curve" smooth="yes"/>
      <point x="465" y="191"/>
      <point x="436" y="220"/>
      <point x="407" y="239" type="curve"/>
      <point x="390" y="249"/>
      <point x="371" y="256"/>
      <point x="350" y="260" type="curve"/>
      <point x="367" y="265"/>
      <point x="383" y="272"/>
      <point x="397" y="281" type="curve" smooth="yes"/>
      <point x="421" y="297"/>
      <point x="445" y="325"/>
      <point x="445" y="370" type="curve" smooth="yes"/>
      <point x="445" y="439"/>
      <point x="384" y="500"/>
      <point x="265" y="500" type="curve" smooth="yes"/>
      <point x="75" y="500" type="line"/>
      <point x="75" y="0" type="line"/>
    </contour>
    <contour>
      <point x="175" y="220" type="line"/>
      <point x="265" y="220" type="line" smooth="yes"/>
      <point x="336" y="220"/>
      <point x="365" y="190"/>
      <point x="365" y="145" type="curve" smooth="yes"/>
      <point x="365" y="100"/>
      <point x="336" y="70"/>
      <point x="265" y="70" type="curve" smooth="yes"/>
      <point x="175" y="70" type="line"/>
    </contour>
    <contour>
      <point x="175" y="430" type="line"/>
      <point x="265" y="430" type="line" smooth="yes"/>
      <point x="316" y="430"/>
      <point x="345" y="400"/>
      <point x="345" y="360" type="curve" smooth="yes"/>
      <point x="345" y="320"/>
      <point x="316" y="290"/>
      <point x="265" y="290" type="curve" smooth="yes"/>
      <point x="175" y="290" type="line"/>
    </contour>
  </outline>
</glyph>
<glyph name="ge-cy" format="2">
  <advance width="415"/>
  <unicode hex="0433"/>
  <anchor x="75" y="0" name="bottomright"/>
  <anchor x="159" y="250" name="center"/>
  <anchor x="260" y="500" name="top"/>
  <outline>
    <contour>
      <point x="175" y="0" type="line"/>
      <point x="175" y="430" type="line"/>
      <point x="405" y="430" type="line"/>
      <point x="405" y="500" type="line"/>
      <point x="75" y="500" type="line"/>
      <point x="75" y="0" type="line"/>
    </contour>
  </outline>
</glyph>
<glyph name="de-cy" format="2">
  <advance width="560"/>
  <unicode hex="0434"/>
  <outline>
    <contour>
      <point x="90" y="-140" type="line"/>
      <point x="105" y="0" type="line"/>
      <point x="430" y="0" type="line"/>
      <point x="445" y="-140" type="line"/>
      <point x="525" y="-140" type="line"/>
      <point x="525" y="70" type="line"/>
      <point x="460" y="70" type="line"/>
      <point x="460" y="500" type="line"/>
      <point x="125" y="500" type="line"/>
      <point x="110" y="220" type="line" smooth="yes"/>
      <point x="107" y="172"/>
      <point x="94" y="136"/>
      <point x="81" y="109" type="curve" smooth="yes"/>
      <point x="74" y="94"/>
      <point x="65" y="81"/>
      <point x="55" y="70" type="curve"/>
      <point x="5" y="70" type="line"/>
      <point x="5" y="-140" type="line"/>
    </contour>
    <contour>
      <point x="155" y="70" type="line"/>
      <point x="165" y="81"/>
      <point x="174" y="94"/>
      <point x="181" y="109" type="curve" smooth="yes"/>
      <point x="194" y="136"/>
      <point x="207" y="172"/>
      <point x="210" y="220" type="curve"/>
      <point x="220" y="430" type="line"/>
      <point x="360" y="430" type="line"/>
      <point x="360" y="70" type="line"/>
    </contour>
  </outline>
</glyph>
<glyph name="ie-cy" format="2">
  <advance width="505"/>
  <unicode hex="0435"/>
  <anchor x="253" y="500" name="top"/>
  <outline>
    <contour>
      <point x="270" y="-10" type="curve" smooth="yes"/>
      <point x="321" y="-10"/>
      <point x="361" y="2"/>
      <point x="390" y="17" type="curve"/>
      <point x="407" y="25"/>
      <point x="422" y="34"/>
      <point x="435" y="45" type="curve"/>
      <point x="400" y="105" type="line"/>
      <point x="390" y="105" type="line"/>
      <point x="380" y="96"/>
      <point x="369" y="89"/>
      <point x="357" y="82" type="curve" smooth="yes"/>
      <point x="337" y="71"/>
      <point x="311" y="60"/>
      <point x="280" y="60" type="curve" smooth="yes"/>
      <point x="200" y="60"/>
      <point x="150" y="110"/>
      <point x="150" y="215" type="curve"/>
      <point x="440" y="215" type="line"/>
      <point x="460" y="235" type="line"/>
      <point x="460" y="250" type="line" smooth="yes"/>
      <point x="460" y="425"/>
      <point x="375" y="510"/>
      <point x="255" y="510" type="curve" smooth="yes"/>
      <point x="135" y="510"/>
      <point x="50" y="425"/>
      <point x="50" y="250" type="curve" smooth="yes"/>
      <point x="50" y="75"/>
      <point x="135" y="-10"/>
    </contour>
    <contour>
      <point x="150" y="285" type="line"/>
      <point x="150" y="396"/>
      <point x="195" y="440"/>
      <point x="255" y="440" type="curve" smooth="yes"/>
      <point x="315" y="440"/>
      <point x="360" y="396"/>
      <point x="360" y="285" type="curve"/>
    </contour>
  </outline>
</glyph>
<glyph name="zhe-cy" format="2">
  <advance width="740"/>
  <unicode hex="0436"/>
  <anchor x="558" y="0" name="bottomright"/>
  <anchor x="370" y="500" name="top"/>
  <outline>
    <contour>
      <point x="85" y="-10" type="curve" smooth="yes"/>
      <point x="141" y="-10"/>
      <point x="170" y="20"/>
      <point x="185" y="75" type="curve" smooth="yes"/>
      <point x="210" y="170" type="line" smooth="yes"/>
      <point x="218" y="201"/>
      <point x="240" y="220"/>
      <point x="275" y="220" type="curve" smooth="yes"/>
      <point x="320" y="220" type="line"/>
      <point x="320" y="0" type="line"/>
      <point x="420" y="0" type="line"/>
      <point x="420" y="220" type="line"/>
      <point x="465" y="220" type="line" smooth="yes"/>
      <point x="500" y="220"/>
      <point x="522" y="201"/>
      <point x="530" y="170" type="curve" smooth="yes"/>
      <point x="555" y="75" type="line" smooth="yes"/>
      <point x="570" y="20"/>
      <point x="599" y="-10"/>
      <point x="655" y="-10" type="curve" smooth="yes"/>
      <point x="674" y="-10"/>
      <point x="697" y="-7"/>
      <point x="715" y="0" type="curve"/>
      <point x="705" y="65" type="line"/>
      <point x="700" y="65" type="line"/>
      <point x="694" y="62" type="line" smooth="yes"/>
      <point x="692" y="61"/>
      <point x="684" y="60"/>
      <point x="680" y="60" type="curve" smooth="yes"/>
      <point x="665" y="60"/>
      <point x="655" y="70"/>
      <point x="650" y="90" type="curve" smooth="yes"/>
      <point x="625" y="185" type="line" smooth="yes"/>
      <point x="609" y="245"/>
      <point x="540" y="260"/>
      <point x="535" y="260" type="curve"/>
      <point x="543" y="260"/>
      <point x="602" y="270"/>
      <point x="615" y="325" type="curve" smooth="yes"/>
      <point x="635" y="410" type="line" smooth="yes"/>
      <point x="640" y="430"/>
      <point x="650" y="440"/>
      <point x="665" y="440" type="curve" smooth="yes"/>
      <point x="670" y="440"/>
      <point x="674" y="439"/>
      <point x="679" y="437" type="curve"/>
      <point x="685" y="435" type="line"/>
      <point x="690" y="435" type="line"/>
      <point x="700" y="500" type="line"/>
      <point x="683" y="505" type="line" smooth="yes"/>
      <point x="672" y="508"/>
      <point x="657" y="510"/>
      <point x="640" y="510" type="curve" smooth="yes"/>
      <point x="583" y="510"/>
      <point x="553" y="481"/>
      <point x="540" y="425" type="curve" smooth="yes"/>
      <point x="520" y="340" type="line" smooth="yes"/>
      <point x="513" y="309"/>
      <point x="494" y="290"/>
      <point x="455" y="290" type="curve" smooth="yes"/>
      <point x="420" y="290" type="line"/>
      <point x="420" y="500" type="line"/>
      <point x="320" y="500" type="line"/>
      <point x="320" y="290" type="line"/>
      <point x="285" y="290" type="line" smooth="yes"/>
      <point x="246" y="290"/>
      <point x="227" y="309"/>
      <point x="220" y="340" type="curve" smooth="yes"/>
      <point x="200" y="425" type="line" smooth="yes"/>
      <point x="187" y="481"/>
      <point x="157" y="510"/>
      <point x="100" y="510" type="curve" smooth="yes"/>
      <point x="81" y="510"/>
      <point x="68" y="508"/>
      <point x="57" y="505" type="curve" smooth="yes"/>
      <point x="40" y="500" type="line"/>
      <point x="50" y="435" type="line"/>
      <point x="55" y="435" type="line"/>
      <point x="61" y="437" type="line" smooth="yes"/>
      <point x="67" y="439"/>
      <point x="70" y="440"/>
      <point x="75" y="440" type="curve" smooth="yes"/>
      <point x="90" y="440"/>
      <point x="100" y="430"/>
      <point x="105" y="410" type="curve" smooth="yes"/>
      <point x="125" y="325" type="line" smooth="yes"/>
      <point x="139" y="268"/>
      <point x="199" y="260"/>
      <point x="205" y="260" type="curve"/>
      <point x="195" y="258"/>
      <point x="131" y="245"/>
      <point x="115" y="185" type="curve" smooth="yes"/>
      <point x="90" y="90" type="line" smooth="yes"/>
      <point x="85" y="70"/>
      <point x="75" y="60"/>
      <point x="60" y="60" type="curve" smooth="yes"/>
      <point x="56" y="60"/>
      <point x="48" y="61"/>
      <point x="46" y="62" type="curve" smooth="yes"/>
      <point x="40" y="65" type="line"/>
      <point x="35" y="65" type="line"/>
      <point x="25" y="0" type="line"/>
      <point x="43" y="-7"/>
      <point x="66" y="-10"/>
    </contour>
  </outline>
</glyph>
<glyph name="ze-cy" format="2">
  <advance width="450"/>
  <unicode hex="0437"/>
  <anchor x="205" y="0" name="bottom"/>
  <anchor x="195" y="500" name="top"/>
  <outline>
    <contour>
      <point x="200" y="-10" type="curve" smooth="yes"/>
      <point x="345" y="-10"/>
      <point x="405" y="50"/>
      <point x="405" y="130" type="curve" smooth="yes"/>
      <point x="405" y="187"/>
      <point x="376" y="219"/>
      <point x="347" y="238" type="curve" smooth="yes"/>
      <point x="330" y="249"/>
      <point x="311" y="256"/>
      <point x="290" y="260" type="curve"/>
      <point x="309" y="265"/>
      <point x="327" y="273"/>
      <point x="342" y="284" type="curve"/>
      <point x="369" y="301"/>
      <point x="395" y="330"/>
      <point x="395" y="375" type="curve" smooth="yes"/>
      <point x="395" y="450"/>
      <point x="335" y="510"/>
      <point x="200" y="510" type="curve" smooth="yes"/>
      <point x="144" y="510"/>
      <point x="103" y="497"/>
      <point x="74" y="482" type="curve" smooth="yes"/>
      <point x="57" y="474"/>
      <point x="42" y="465"/>
      <point x="30" y="455" type="curve"/>
      <point x="65" y="395" type="line"/>
      <point x="75" y="395" type="line"/>
      <point x="84" y="403"/>
      <point x="94" y="410"/>
      <point x="106" y="417" type="curve" smooth="yes"/>
      <point x="126" y="428"/>
      <point x="155" y="440"/>
      <point x="190" y="440" type="curve" smooth="yes"/>
      <point x="266" y="440"/>
      <point x="295" y="410"/>
      <point x="295" y="365" type="curve" smooth="yes"/>
      <point x="295" y="320"/>
      <point x="265" y="290"/>
      <point x="205" y="290" type="curve" smooth="yes"/>
      <point x="120" y="290" type="line"/>
      <point x="120" y="220" type="line"/>
      <point x="205" y="220" type="line" smooth="yes"/>
      <point x="276" y="220"/>
      <point x="305" y="191"/>
      <point x="305" y="140" type="curve" smooth="yes"/>
      <point x="305" y="89"/>
      <point x="275" y="60"/>
      <point x="190" y="60" type="curve" smooth="yes"/>
      <point x="150" y="60"/>
      <point x="118" y="71"/>
      <point x="95" y="82" type="curve" smooth="yes"/>
      <point x="82" y="89"/>
      <point x="70" y="96"/>
      <point x="60" y="105" type="curve"/>
      <point x="50" y="105" type="line"/>
      <point x="15" y="45" type="line"/>
      <point x="28" y="34"/>
      <point x="44" y="25"/>
      <point x="62" y="17" type="curve" smooth="yes"/>
      <point x="93" y="2"/>
      <point x="140" y="-10"/>
    </contour>
  </outline>
</glyph>
<glyph name="ii-cy" format="2">
  <advance width="550"/>
  <unicode hex="0438"/>
  <anchor x="375" y="0" name="bottomright"/>
  <anchor x="275" y="500" name="top"/>
  <outline>
    <contour>
      <point x="175" y="0" type="line"/>
      <point x="345" y="285" type="line" smooth="yes"/>
      <point x="354" y="300"/>
      <point x="362" y="316"/>
      <point x="367" y="331" type="curve" smooth="yes"/>
      <point x="368.525" y="335.575"/>
      <point x="373.782" y="351.346"/>
      <point x="375" y="355" type="curve"/>
      <point x="379" y="355" type="line"/>
      <point x="377" y="331" type="line" smooth="yes"/>
      <point x="376" y="316"/>
      <point x="375" y="300"/>
      <point x="375" y="285" type="curve" smooth="yes"/>
      <point x="375" y="0" type="line"/>
      <point x="475" y="0" type="line"/>
      <point x="475" y="500" type="line"/>
      <point x="375" y="500" type="line"/>
      <point x="205" y="215" type="line" smooth="yes"/>
      <point x="196" y="200"/>
      <point x="188" y="184"/>
      <point x="183" y="169" type="curve" smooth="yes"/>
      <point x="181.475" y="164.425"/>
      <point x="176.218" y="148.654"/>
      <point x="175" y="145" type="curve"/>
      <point x="171" y="145" type="line"/>
      <point x="173" y="169" type="line" smooth="yes"/>
      <point x="174" y="184"/>
      <point x="175" y="200"/>
      <point x="175" y="215" type="curve" smooth="yes"/>
      <point x="175" y="500" type="line"/>
      <point x="75" y="500" type="line"/>
      <point x="75" y="0" type="line"/>
    </contour>
  </outline>
</glyph>
<glyph name="ka-cy" format="2">
  <advance width="510"/>
  <unicode hex="043A"/>
  <anchor x="330" y="0" name="bottomright"/>
  <anchor x="235" y="250" name="center"/>
  <anchor x="255" y="500" name="top"/>
  <outline>
    <contour>
      <point x="425" y="-10" type="curve" smooth="yes"/>
      <point x="442" y="-10"/>
      <point x="456" y="-8"/>
      <point x="468" y="-5" type="curve" smooth="yes"/>
      <point x="475" y="-4"/>
      <point x="480" y="-2"/>
      <point x="485" y="0" type="curve"/>
      <point x="475" y="65" type="line"/>
      <point x="470" y="65" type="line"/>
      <point x="464" y="62" type="line"/>
      <point x="459" y="61"/>
      <point x="454" y="60"/>
      <point x="450" y="60" type="curve" smooth="yes"/>
      <point x="435" y="60"/>
      <point x="425" y="70"/>
      <point x="420" y="90" type="curve" smooth="yes"/>
      <point x="395" y="185" type="line" smooth="yes"/>
      <point x="386" y="217"/>
      <point x="364" y="236"/>
      <point x="344" y="247" type="curve" smooth="yes"/>
      <point x="332" y="254"/>
      <point x="319" y="258"/>
      <point x="305" y="260" type="curve"/>
      <point x="318" y="261"/>
      <point x="329" y="265"/>
      <point x="340" y="270" type="curve" smooth="yes"/>
      <point x="359" y="279"/>
      <point x="378" y="294"/>
      <point x="385" y="325" type="curve" smooth="yes"/>
      <point x="405" y="410" type="line" smooth="yes"/>
      <point x="410" y="430"/>
      <point x="420" y="440"/>
      <point x="435" y="440" type="curve" smooth="yes"/>
      <point x="440" y="440"/>
      <point x="445" y="438"/>
      <point x="449" y="437" type="curve" smooth="yes"/>
      <point x="452" y="436"/>
      <point x="454" y="436"/>
      <point x="455" y="435" type="curve"/>
      <point x="460" y="435" type="line"/>
      <point x="470" y="500" type="line"/>
      <point x="453" y="505" type="line" smooth="yes"/>
      <point x="442" y="508"/>
      <point x="427" y="510"/>
      <point x="410" y="510" type="curve" smooth="yes"/>
      <point x="353" y="510"/>
      <point x="323" y="481"/>
      <point x="310" y="425" type="curve" smooth="yes"/>
      <point x="290" y="340" type="line" smooth="yes"/>
      <point x="283" y="309"/>
      <point x="264" y="290"/>
      <point x="225" y="290" type="curve" smooth="yes"/>
      <point x="175" y="290" type="line"/>
      <point x="175" y="500" type="line"/>
      <point x="75" y="500" type="line"/>
      <point x="75" y="0" type="line"/>
      <point x="175" y="0" type="line"/>
      <point x="175" y="220" type="line"/>
      <point x="235" y="220" type="line" smooth="yes"/>
      <point x="270" y="220"/>
      <point x="292" y="201"/>
      <point x="300" y="170" type="curve" smooth="yes"/>
      <point x="325" y="75" type="line" smooth="yes"/>
      <point x="340" y="20"/>
      <point x="369" y="-10"/>
    </contour>
  </outline>
</glyph>
<glyph name="el-cy" format="2">
  <advance width="540"/>
  <unicode hex="043B"/>
  <outline>
    <contour>
      <point x="65" y="-10" type="curve" smooth="yes"/>
      <point x="140" y="-10"/>
      <point x="188" y="40"/>
      <point x="195" y="160" type="curve" smooth="yes"/>
      <point x="210" y="430" type="line"/>
      <point x="365" y="430" type="line"/>
      <point x="365" y="0" type="line"/>
      <point x="465" y="0" type="line"/>
      <point x="465" y="500" type="line"/>
      <point x="115" y="500" type="line"/>
      <point x="95" y="160" type="line" smooth="yes"/>
      <point x="90" y="80"/>
      <point x="70" y="60"/>
      <point x="45" y="60" type="curve" smooth="yes"/>
      <point x="41" y="60"/>
      <point x="36" y="61"/>
      <point x="31" y="62" type="curve"/>
      <point x="25" y="65" type="line"/>
      <point x="15" y="65" type="line"/>
      <point x="10" y="0" type="line"/>
      <point x="15" y="-2"/>
      <point x="20" y="-4"/>
      <point x="26" y="-5" type="curve"/>
      <point x="37" y="-8"/>
      <point x="50" y="-10"/>
    </contour>
  </outline>
</glyph>
<glyph name="em-cy" format="2">
  <advance width="700"/>
  <unicode hex="043C"/>
  <outline>
    <contour>
      <point x="175" y="0" type="line"/>
      <point x="175" y="265" type="line" smooth="yes"/>
      <point x="175" y="280"/>
      <point x="174" y="296"/>
      <point x="173" y="311" type="curve" smooth="yes"/>
      <point x="171" y="335" type="line"/>
      <point x="175" y="335" type="line"/>
      <point x="176.37" y="331.498"/>
      <point x="182.284" y="316.385"/>
      <point x="184" y="312" type="curve"/>
      <point x="189" y="297"/>
      <point x="196" y="281"/>
      <point x="205" y="265" type="curve"/>
      <point x="300" y="85" type="line"/>
      <point x="400" y="85" type="line"/>
      <point x="495" y="265" type="line" smooth="yes"/>
      <point x="503" y="280"/>
      <point x="509" y="297"/>
      <point x="516" y="312" type="curve"/>
      <point x="525" y="335" type="line"/>
      <point x="529" y="335" type="line"/>
      <point x="527" y="311" type="line" smooth="yes"/>
      <point x="526" y="296"/>
      <point x="525" y="280"/>
      <point x="525" y="265" type="curve" smooth="yes"/>
      <point x="525" y="0" type="line"/>
      <point x="625" y="0" type="line"/>
      <point x="625" y="500" type="line"/>
      <point x="520" y="500" type="line"/>
      <point x="370" y="220" type="line" smooth="yes"/>
      <point x="365" y="211"/>
      <point x="360" y="203"/>
      <point x="357" y="194" type="curve"/>
      <point x="355" y="189"/>
      <point x="353" y="185"/>
      <point x="352" y="180" type="curve"/>
      <point x="348" y="180" type="line"/>
      <point x="347" y="185"/>
      <point x="345" y="189"/>
      <point x="343" y="194" type="curve"/>
      <point x="340" y="203"/>
      <point x="335" y="211"/>
      <point x="330" y="220" type="curve" smooth="yes"/>
      <point x="180" y="500" type="line"/>
      <point x="75" y="500" type="line"/>
      <point x="75" y="0" type="line"/>
    </contour>
  </outline>
</glyph>
<glyph name="pe-cy" format="2">
  <advance width="550"/>
  <unicode hex="043F"/>
  <anchor x="375" y="0" name="bottomright"/>
  <outline>
    <contour>
      <point x="175" y="0" type="line"/>
      <point x="175" y="430" type="line"/>
      <point x="375" y="430" type="line"/>
      <point x="375" y="0" type="line"/>
      <point x="475" y="0" type="line"/>
      <point x="475" y="500" type="line"/>
      <point x="75" y="500" type="line"/>
      <point x="75" y="0" type="line"/>
    </contour>
  </outline>
</glyph>
<glyph name="tse-cy" format="2">
  <advance width="565"/>
  <unicode hex="0446"/>
  <outline>
    <contour>
      <point x="530" y="-140" type="line"/>
      <point x="530" y="70" type="line"/>
      <point x="465" y="70" type="line"/>
      <point x="465" y="500" type="line"/>
      <point x="365" y="500" type="line"/>
      <point x="365" y="70" type="line"/>
      <point x="175" y="70" type="line"/>
      <point x="175" y="500" type="line"/>
      <point x="75" y="500" type="line"/>
      <point x="75" y="0" type="line"/>
      <point x="435" y="0" type="line"/>
      <point x="450" y="-140" type="line"/>
    </contour>
  </outline>
</glyph>
<glyph name="shcha-cy" format="2">
  <advance width="815"/>
  <unicode hex="0449"/>
  <outline>
    <contour>
      <point x="780" y="-140" type="line"/>
      <point x="780" y="70" type="line"/>
      <point x="715" y="70" type="line"/>
      <point x="715" y="500" type="line"/>
      <point x="615" y="500" type="line"/>
      <point x="615" y="70" type="line"/>
      <point x="445" y="70" type="line"/>
      <point x="445" y="500" type="line"/>
      <point x="345" y="500" type="line"/>
      <point x="345" y="70" type="line"/>
      <point x="175" y="70" type="line"/>
      <point x="175" y="500" type="line"/>
      <point x="75" y="500" type="line"/>
      <point x="75" y="0" type="line"/>
      <point x="685" y="0" type="line"/>
      <point x="700" y="-140" type="line"/>
    </contour>
  </outline>
</glyph>
<glyph name="yeru-cy" format="2">
  <advance width="710"/>
  <unicode hex="044B"/>
  <anchor x="355" y="500" name="top"/>
  <outline>
    <contour>
      <point x="255" y="0" type="line" smooth="yes"/>
      <point x="395" y="0"/>
      <point x="455" y="60"/>
      <point x="455" y="165" type="curve" smooth="yes"/>
      <point x="455" y="270"/>
      <point x="395" y="330"/>
      <point x="255" y="330" type="curve" smooth="yes"/>
      <point x="175" y="330" type="line"/>
      <point x="175" y="500" type="line"/>
      <point x="75" y="500" type="line"/>
      <point x="75" y="0" type="line"/>
    </contour>
    <contour>
      <point x="175" y="260" type="line"/>
      <point x="255" y="260" type="line" smooth="yes"/>
      <point x="326" y="260"/>
      <point x="355" y="230"/>
      <point x="355" y="165" type="curve" smooth="yes"/>
      <point x="355" y="100"/>
      <point x="326" y="70"/>
      <point x="255" y="70" type="curve" smooth="yes"/>
      <point x="175" y="70" type="line"/>
    </contour>
    <contour>
      <point x="635" y="0" type="line"/>
      <point x="635" y="500" type="line"/>
      <point x="535" y="500" type="line"/>
      <point x="535" y="0" type="line"/>
    </contour>
  </outline>
</glyph>
<glyph name="softsign-cy" format="2">
  <advance width="490"/>
  <unicode hex="044C"/>
  <outline>
    <contour>
      <point x="265" y="0" type="line" smooth="yes"/>
      <point x="405" y="0"/>
      <point x="465" y="60"/>
      <point x="465" y="165" type="curve" smooth="yes"/>
      <point x="465" y="270"/>
      <point x="405" y="330"/>
      <point x="265" y="330" type="curve" smooth="yes"/>
      <point x="175" y="330" type="line"/>
      <point x="175" y="500" type="line"/>
      <point x="75" y="500" type="line"/>
      <point x="75" y="0" type="line"/>
    </contour>
    <contour>
      <point x="175" y="260" type="line"/>
      <point x="265" y="260" type="line"/>
      <point x="336" y="260"/>
      <point x="365" y="230"/>
      <point x="365" y="165" type="curve" smooth="yes"/>
      <point x="365" y="100"/>
      <point x="336" y="70"/>
      <point x="265" y="70" type="curve" smooth="yes"/>
      <point x="175" y="70" type="line"/>
    </contour>
  </outline>
</glyph>
<glyph name="e-cy" format="2">
  <advance width="455"/>
  <unicode hex="0454"/>
  <outline>
    <contour>
      <point x="270" y="-10" type="curve" smooth="yes"/>
      <point x="321" y="-10"/>
      <point x="361" y="2"/>
      <point x="390" y="17" type="curve"/>
      <point x="407" y="25"/>
      <point x="422" y="34"/>
      <point x="435" y="45" type="curve"/>
      <point x="400" y="105" type="line"/>
      <point x="390" y="105" type="line"/>
      <point x="380" y="96"/>
      <point x="369" y="89"/>
      <point x="357" y="82" type="curve" smooth="yes"/>
      <point x="337" y="71"/>
      <point x="311" y="60"/>
      <point x="280" y="60" type="curve" smooth="yes"/>
      <point x="205" y="60"/>
      <point x="156" y="105"/>
      <point x="151" y="220" type="curve"/>
      <point x="331" y="220" type="line"/>
      <point x="331" y="290" type="line"/>
      <point x="151" y="290" type="line"/>
      <point x="162" y="401"/>
      <point x="206" y="440"/>
      <point x="270" y="440" type="curve" smooth="yes"/>
      <point x="301" y="440"/>
      <point x="327" y="428"/>
      <point x="347" y="417" type="curve" smooth="yes"/>
      <point x="359" y="410"/>
      <point x="370" y="403"/>
      <point x="380" y="395" type="curve"/>
      <point x="390" y="395" type="line"/>
      <point x="425" y="455" type="line"/>
      <point x="412" y="465"/>
      <point x="397" y="474"/>
      <point x="380" y="482" type="curve"/>
      <point x="351" y="497"/>
      <point x="311" y="510"/>
      <point x="260" y="510" type="curve" smooth="yes"/>
      <point x="135" y="510"/>
      <point x="50" y="425"/>
      <point x="50" y="250" type="curve" smooth="yes"/>
      <point x="50" y="75"/>
      <point x="135" y="-10"/>
    </contour>
  </outline>
</glyph>
<glyph name="lje-cy" format="2">
  <advance width="760"/>
  <unicode hex="0459"/>
  <outline>
    <contour>
      <point x="65" y="-10" type="curve" smooth="yes"/>
      <point x="140" y="-10"/>
      <point x="188" y="40"/>
      <point x="195" y="160" type="curve" smooth="yes"/>
      <point x="210" y="430" type="line"/>
      <point x="345" y="430" type="line"/>
      <point x="345" y="0" type="line"/>
      <point x="535" y="0" type="line" smooth="yes"/>
      <point x="675" y="0"/>
      <point x="735" y="60"/>
      <point x="735" y="165" type="curve" smooth="yes"/>
      <point x="735" y="270"/>
      <point x="675" y="330"/>
      <point x="535" y="330" type="curve" smooth="yes"/>
      <point x="445" y="330" type="line"/>
      <point x="445" y="500" type="line"/>
      <point x="115" y="500" type="line"/>
      <point x="95" y="160" type="line" smooth="yes"/>
      <point x="90" y="80"/>
      <point x="70" y="60"/>
      <point x="45" y="60" type="curve" smooth="yes"/>
      <point x="41" y="60"/>
      <point x="36" y="61"/>
      <point x="31" y="62" type="curve"/>
      <point x="25" y="65" type="line"/>
      <point x="15" y="65" type="line"/>
      <point x="10" y="0" type="line"/>
      <point x="15" y="-2"/>
      <point x="20" y="-4"/>
      <point x="26" y="-5" type="curve"/>
      <point x="37" y="-8"/>
      <point x="50" y="-10"/>
    </contour>
    <contour>
      <point x="445" y="260" type="line"/>
      <point x="535" y="260" type="line" smooth="yes"/>
      <point x="606" y="260"/>
      <point x="635" y="230"/>
      <point x="635" y="165" type="curve" smooth="yes"/>
      <point x="635" y="100"/>
      <point x="606" y="70"/>
      <point x="535" y="70" type="curve" smooth="yes"/>
      <point x="445" y="70" type="line"/>
    </contour>
  </outline>
</glyph>
<glyph name="tshe-cy" format="2">
  <advance width="560"/>
  <unicode hex="045B"/>
  <outline>
    <contour>
      <point x="190" y="0" type="line"/>
      <point x="190" y="315" type="line"/>
      <point x="199" y="326"/>
      <point x="209" y="336"/>
      <point x="220" y="345" type="curve" smooth="yes"/>
      <point x="239" y="360"/>
      <point x="264" y="375"/>
      <point x="295" y="375" type="curve" smooth="yes"/>
      <point x="351" y="375"/>
      <point x="390" y="336"/>
      <point x="390" y="280" type="curve" smooth="yes"/>
      <point x="390" y="0" type="line"/>
      <point x="490" y="0" type="line"/>
      <point x="490" y="280" type="line" smooth="yes"/>
      <point x="490" y="380"/>
      <point x="420" y="450"/>
      <point x="320" y="450" type="curve" smooth="yes"/>
      <point x="277" y="450"/>
      <point x="246" y="437"/>
      <point x="223" y="425" type="curve" smooth="yes"/>
      <point x="210" y="418"/>
      <point x="199" y="409"/>
      <point x="190" y="400" type="curve"/>
      <point x="190" y="520" type="line"/>
      <point x="325" y="520" type="line"/>
      <point x="325" y="590" type="line"/>
      <point x="190" y="590" type="line"/>
      <point x="190" y="700" type="line"/>
      <point x="120" y="700" type="line"/>
      <point x="90" y="670" type="line"/>
      <point x="90" y="590" type="line"/>
      <point x="25" y="590" type="line"/>
      <point x="25" y="520" type="line"/>
      <point x="90" y="520" type="line"/>
      <point x="90" y="0" type="line"/>
    </contour>
  </outline>
</glyph>
<glyph name="dzhe-cy" format="2">
  <advance width="550"/>
  <unicode hex="045F"/>
  <outline>
    <contour>
      <point x="315" y="-140" type="line"/>
      <point x="325" y="0" type="line"/>
      <point x="475" y="0" type="line"/>
      <point x="475" y="500" type="line"/>
      <point x="375" y="500" type="line"/>
      <point x="375" y="70" type="line"/>
      <point x="175" y="70" type="line"/>
      <point x="175" y="500" type="line"/>
      <point x="75" y="500" type="line"/>
      <point x="75" y="0" type="line"/>
      <point x="225" y="0" type="line"/>
      <point x="235" y="-140" type="line"/>
    </contour>
  </outline>
</glyph>
<glyph name="yat-cy" format="2">
  <advance width="515"/>
  <unicode hex="0463"/>
  <outline>
    <contour>
      <point x="290" y="0" type="line" smooth="yes"/>
      <point x="430" y="0"/>
      <point x="490" y="60"/>
      <point x="490" y="165" type="curve" smooth="yes"/>
      <point x="490" y="270"/>
      <point x="430" y="330"/>
      <point x="290" y="330" type="curve" smooth="yes"/>
      <point x="200" y="330" type="line"/>
      <point x="200" y="700" type="line"/>
      <point x="100" y="700" type="line"/>
      <point x="100" y="0" type="line"/>
    </contour>
    <contour>
      <point x="200" y="260" type="line"/>
      <point x="290" y="260" type="line"/>
      <point x="361" y="260"/>
      <point x="390" y="230"/>
      <point x="390" y="165" type="curve" smooth="yes"/>
      <point x="390" y="100"/>
      <point x="361" y="70"/>
      <point x="290" y="70" type="curve" smooth="yes"/>
      <point x="200" y="70" type="line"/>
    </contour>
    <contour>
      <point x="345" y="430" type="line"/>
      <point x="345" y="500" type="line"/>
      <point x="15" y="500" type="line"/>
      <point x="15" y="430" type="line"/>
    </contour>
  </outline>
</glyph>
<glyph name="Yusbig-cy" format="2">
  <advance width="860"/>
  <unicode hex="046A"/>
  <outline>
    <contour>
      <point x="85" y="-10" type="curve" smooth="yes"/>
      <point x="150" y="-10"/>
      <point x="187" y="30"/>
      <point x="200" y="90" type="curve" smooth="yes"/>
      <point x="235" y="250" type="line"/>
      <point x="246" y="295"/>
      <point x="274" y="325"/>
      <point x="325" y="325" type="curve" smooth="yes"/>
      <point x="380" y="325" type="line"/>
      <point x="380" y="0" type="line"/>
      <point x="480" y="0" type="line"/>
      <point x="480" y="325" type="line"/>
      <point x="535" y="325" type="line" smooth="yes"/>
      <point x="586" y="325"/>
      <point x="614" y="295"/>
      <point x="625" y="250" type="curve"/>
      <point x="660" y="90" type="line" smooth="yes"/>
      <point x="673" y="30"/>
      <point x="710" y="-10"/>
      <point x="775" y="-10" type="curve" smooth="yes"/>
      <point x="799" y="-10"/>
      <point x="819" y="-6"/>
      <point x="835" y="0" type="curve"/>
      <point x="825" y="65" type="line"/>
      <point x="820" y="65" type="line"/>
      <point x="812" y="61"/>
      <point x="808" y="60"/>
      <point x="800" y="60" type="curve" smooth="yes"/>
      <point x="780" y="60"/>
      <point x="767" y="75"/>
      <point x="760" y="105" type="curve" smooth="yes"/>
      <point x="725" y="265" type="line"/>
      <point x="704" y="348"/>
      <point x="681" y="386"/>
      <point x="537" y="394" type="curve"/>
      <point x="739" y="700" type="line"/>
      <point x="121" y="700" type="line"/>
      <point x="323" y="393" type="line"/>
      <point x="178" y="384"/>
      <point x="151" y="337"/>
      <point x="135" y="265" type="curve" smooth="yes"/>
      <point x="100" y="105" type="line" smooth="yes"/>
      <point x="93" y="75"/>
      <point x="79" y="60"/>
      <point x="60" y="60" type="curve" smooth="yes"/>
      <point x="51" y="60"/>
      <point x="47" y="61"/>
      <point x="40" y="65" type="curve"/>
      <point x="35" y="65" type="line"/>
      <point x="25" y="0" type="line"/>
      <point x="40" y="-6"/>
      <point x="56" y="-10"/>
    </contour>
    <contour>
      <point x="269" y="630" type="line"/>
      <point x="591" y="630" type="line"/>
      <point x="432" y="375" type="line"/>
      <point x="428" y="375" type="line"/>
    </contour>
  </outline>
  <guideline angle="90" x="380" y="0"/>
  <guideline angle="90" x="480" y="0"/>
</glyph>
<glyph name="yusbig-cy" format="2">
  <advance width="740"/>
  <unicode hex="046B"/>
  <outline>
    <contour>
      <point x="85" y="-10" type="curve" smooth="yes"/>
      <point x="141" y="-10"/>
      <point x="170" y="20"/>
      <point x="185" y="75" type="curve" smooth="yes"/>
      <point x="210" y="170" type="line" smooth="yes"/>
      <point x="218" y="201"/>
      <point x="240" y="220"/>
      <point x="275" y="220" type="curve" smooth="yes"/>
      <point x="320" y="220" type="line"/>
      <point x="320" y="0" type="line"/>
      <point x="420" y="0" type="line"/>
      <point x="420" y="220" type="line"/>
      <point x="465" y="220" type="line" smooth="yes"/>
      <point x="500" y="220"/>
      <point x="522" y="201"/>
      <point x="530" y="170" type="curve" smooth="yes"/>
      <point x="555" y="75" type="line" smooth="yes"/>
      <point x="570" y="20"/>
      <point x="599" y="-10"/>
      <point x="655" y="-10" type="curve" smooth="yes"/>
      <point x="674" y="-10"/>
      <point x="697" y="-7"/>
      <point x="715" y="0" type="curve"/>
      <point x="705" y="65" type="line"/>
      <point x="700" y="65" type="line"/>
      <point x="693" y="62"/>
      <point x="687" y="60"/>
      <point x="680" y="60" type="curve" smooth="yes"/>
      <point x="665" y="60"/>
      <point x="655" y="70"/>
      <point x="650" y="90" type="curve" smooth="yes"/>
      <point x="625" y="185" type="line" smooth="yes"/>
      <point x="609" y="246"/>
      <point x="576" y="270"/>
      <point x="456" y="270" type="curve"/>
      <point x="614" y="500" type="line"/>
      <point x="119" y="500" type="line"/>
      <point x="277" y="269" type="line"/>
      <point x="159" y="269"/>
      <point x="131" y="246"/>
      <point x="115" y="185" type="curve" smooth="yes"/>
      <point x="90" y="90" type="line" smooth="yes"/>
      <point x="85" y="70"/>
      <point x="75" y="60"/>
      <point x="60" y="60" type="curve" smooth="yes"/>
      <point x="53" y="60"/>
      <point x="47" y="62"/>
      <point x="40" y="65" type="curve"/>
      <point x="35" y="65" type="line"/>
      <point x="25" y="0" type="line"/>
      <point x="43" y="-7"/>
      <point x="66" y="-10"/>
    </contour>
    <contour>
      <point x="263" y="430" type="line"/>
      <point x="475" y="430" type="line"/>
      <point x="372" y="260" type="line"/>
      <point x="366" y="260" type="line"/>
    </contour>
  </outline>
</glyph>
<glyph name="Izhitsa-cy" format="2">
  <advance width="550"/>
  <unicode hex="0474"/>
  <outline>
    <contour>
      <point x="335" y="0" type="line"/>
      <point x="480" y="540" type="line" smooth="yes"/>
      <point x="502" y="622"/>
      <point x="522" y="640"/>
      <point x="545" y="640" type="curve" smooth="yes"/>
      <point x="554" y="640"/>
      <point x="560" y="638"/>
      <point x="566" y="635" type="curve"/>
      <point x="570" y="635" type="line"/>
      <point x="575" y="700" type="line"/>
      <point x="559" y="706"/>
      <point x="544" y="710"/>
      <point x="520" y="710" type="curve" smooth="yes"/>
      <point x="444" y="710"/>
      <point x="416" y="658"/>
      <point x="385" y="540" type="curve" smooth="yes"/>
      <point x="290" y="175" type="line" smooth="yes"/>
      <point x="286" y="160"/>
      <point x="283" y="144"/>
      <point x="280" y="129" type="curve"/>
      <point x="277" y="105" type="line"/>
      <point x="273" y="105" type="line"/>
      <point x="269" y="129" type="line"/>
      <point x="266" y="144"/>
      <point x="264" y="160"/>
      <point x="260" y="175" type="curve" smooth="yes"/>
      <point x="115" y="700" type="line"/>
      <point x="15" y="700" type="line"/>
      <point x="210" y="0" type="line"/>
    </contour>
  </outline>
</glyph>
<glyph name="izhitsa-cy" format="2">
  <advance width="466"/>
  <unicode hex="0475"/>
  <outline>
    <contour>
      <point x="295" y="0" type="line"/>
      <point x="395" y="340" type="line" smooth="yes"/>
      <point x="417" y="415"/>
      <point x="435" y="440"/>
      <point x="451" y="440" type="curve" smooth="yes"/>
      <point x="458" y="440"/>
      <point x="462" y="439"/>
      <point x="468" y="435" type="curve"/>
      <point x="475" y="435" type="line"/>
      <point x="481" y="500" type="line"/>
      <point x="466" y="506"/>
      <point x="450" y="510"/>
      <point x="426" y="510" type="curve" smooth="yes"/>
      <point x="351" y="510"/>
      <point x="330" y="463"/>
      <point x="296" y="340" type="curve" smooth="yes"/>
      <point x="249" y="169" type="line" smooth="yes"/>
      <point x="244" y="152"/>
      <point x="241" y="144"/>
      <point x="237" y="100" type="curve"/>
      <point x="233" y="100" type="line"/>
      <point x="229" y="144"/>
      <point x="226" y="152"/>
      <point x="220" y="170" type="curve" smooth="yes"/>
      <point x="115" y="500" type="line"/>
      <point x="15" y="500" type="line"/>
      <point x="175" y="0" type="line"/>
    </contour>
  </outline>
</glyph>
<glyph name="gheupturn-cy" format="2">
  <advance width="415"/>
  <unicode hex="0491"/>
  <outline>
    <contour>
      <point x="175" y="0" type="line"/>
      <point x="175" y="430" type="line"/>
      <point x="405" y="430" type="line"/>
      <point x="405" y="590" type="line"/>
      <point x="325" y="590" type="line"/>
      <point x="315" y="500" type="line"/>
      <point x="75" y="500" type="line"/>
      <point x="75" y="0" type="line"/>
    </contour>
  </outline>
</glyph>
<glyph name="Ghemiddlehook-cy" format="2">
  <advance width="580"/>
  <unicode hex="0494"/>
  <outline>
    <component base="Ge-cy"/>
    <contour>
      <point x="385" y="-100" type="curve" smooth="yes"/>
      <point x="476" y="-100"/>
      <point x="540" y="-36"/>
      <point x="540" y="60" type="curve" smooth="yes"/>
      <point x="540" y="215" type="line" smooth="yes"/>
      <point x="540" y="330"/>
      <point x="461" y="410"/>
      <point x="330" y="410" type="curve" smooth="yes"/>
      <point x="290" y="410"/>
      <point x="255" y="406"/>
      <point x="230" y="402" type="curve" smooth="yes"/>
      <point x="190" y="395" type="line"/>
      <point x="190" y="325" type="line"/>
      <point x="223" y="332" type="line" smooth="yes"/>
      <point x="244" y="336"/>
      <point x="272" y="340"/>
      <point x="305" y="340" type="curve" smooth="yes"/>
      <point x="390" y="340"/>
      <point x="440" y="291"/>
      <point x="440" y="215" type="curve" smooth="yes"/>
      <point x="440" y="60" type="line" smooth="yes"/>
      <point x="440" y="0"/>
      <point x="410" y="-30"/>
      <point x="365" y="-30" type="curve" smooth="yes"/>
      <point x="352" y="-30"/>
      <point x="333" y="-25"/>
      <point x="320" y="-20" type="curve"/>
      <point x="310" y="-20" type="line"/>
      <point x="300" y="-85" type="line"/>
      <point x="327" y="-95"/>
      <point x="356" y="-100"/>
    </contour>
  </outline>
</glyph>
<glyph name="ghemiddlehook-cy" format="2">
  <advance width="510"/>
  <unicode hex="0495"/>
  <outline>
    <component base="ge-cy"/>
    <contour>
      <point x="320" y="-140" type="curve" smooth="yes"/>
      <point x="411" y="-140"/>
      <point x="475" y="-76"/>
      <point x="475" y="20" type="curve" smooth="yes"/>
      <point x="475" y="170" type="line" smooth="yes"/>
      <point x="475" y="275"/>
      <point x="388" y="330"/>
      <point x="286" y="330" type="curve" smooth="yes"/>
      <point x="250" y="330"/>
      <point x="212" y="324"/>
      <point x="175" y="310" type="curve"/>
      <point x="175" y="235" type="line"/>
      <point x="206" y="247"/>
      <point x="239" y="254"/>
      <point x="270" y="254" type="curve" smooth="yes"/>
      <point x="328" y="254"/>
      <point x="375" y="227"/>
      <point x="375" y="150" type="curve" smooth="yes"/>
      <point x="375" y="20" type="line" smooth="yes"/>
      <point x="375" y="-40"/>
      <point x="345" y="-70"/>
      <point x="300" y="-70" type="curve" smooth="yes"/>
      <point x="289" y="-70"/>
      <point x="269" y="-66"/>
      <point x="260" y="-60" type="curve"/>
      <point x="250" y="-60" type="line"/>
      <point x="240" y="-125" type="line"/>
      <point x="267" y="-136"/>
      <point x="291" y="-140"/>
    </contour>
  </outline>
</glyph>
<glyph name="Zhedescender-cy" format="2">
  <advance width="860"/>
  <unicode hex="0496"/>
  <outline>
    <component base="Zhe-cy"/>
    <contour>
      <point x="835" y="-150" type="line"/>
      <point x="835" y="0" type="line"/>
      <point x="740" y="0" type="line"/>
      <point x="755" y="-150" type="line"/>
    </contour>
  </outline>
</glyph>
<glyph name="zhedescender-cy" format="2">
  <advance width="740"/>
  <unicode hex="0497"/>
  <outline>
    <component base="zhe-cy"/>
    <contour>
      <point x="715" y="-140" type="line"/>
      <point x="715" y="0" type="line"/>
      <point x="620" y="0" type="line"/>
      <point x="635" y="-140" type="line"/>
    </contour>
  </outline>
</glyph>
<glyph name="kadescender-cy" format="2">
  <advance width="510"/>
  <unicode hex="049B"/>
  <outline>
    <component base="ka-cy"/>
    <contour>
      <point x="485" y="-140" type="line"/>
      <point x="485" y="0" type="line"/>
      <point x="390" y="0" type="line"/>
      <point x="405" y="-140" type="line"/>
    </contour>
  </outline>
</glyph>
<glyph name="kaverticalstroke-cy" format="2">
  <advance width="530"/>
  <unicode hex="049D"/>
  <outline>
    <component base="verticalbar-cy" xOffset="175" yOffset="-7"/>
    <contour>
      <point x="445" y="-10" type="curve" smooth="yes"/>
      <point x="462" y="-10"/>
      <point x="476" y="-8"/>
      <point x="488" y="-5" type="curve" smooth="yes"/>
      <point x="495" y="-3"/>
      <point x="500" y="-2"/>
      <point x="505" y="0" type="curve"/>
      <point x="495" y="65" type="line"/>
      <point x="490" y="65" type="line"/>
      <point x="484" y="62" type="line"/>
      <point x="479" y="61"/>
      <point x="474" y="60"/>
      <point x="470" y="60" type="curve" smooth="yes"/>
      <point x="455" y="60"/>
      <point x="445" y="70"/>
      <point x="440" y="90" type="curve" smooth="yes"/>
      <point x="415" y="185" type="line" smooth="yes"/>
      <point x="407" y="217"/>
      <point x="384" y="235"/>
      <point x="364" y="247" type="curve" smooth="yes"/>
      <point x="352" y="254"/>
      <point x="339" y="258"/>
      <point x="325" y="260" type="curve"/>
      <point x="338" y="261"/>
      <point x="349" y="265"/>
      <point x="360" y="270" type="curve" smooth="yes"/>
      <point x="379" y="279"/>
      <point x="398" y="294"/>
      <point x="405" y="325" type="curve" smooth="yes"/>
      <point x="425" y="410" type="line" smooth="yes"/>
      <point x="430" y="430"/>
      <point x="440" y="440"/>
      <point x="455" y="440" type="curve" smooth="yes"/>
      <point x="460" y="440"/>
      <point x="465" y="438"/>
      <point x="469" y="437" type="curve" smooth="yes"/>
      <point x="472" y="436"/>
      <point x="474" y="436"/>
      <point x="475" y="435" type="curve"/>
      <point x="480" y="435" type="line"/>
      <point x="490" y="500" type="line"/>
      <point x="473" y="505" type="line" smooth="yes"/>
      <point x="462" y="508"/>
      <point x="447" y="510"/>
      <point x="430" y="510" type="curve" smooth="yes"/>
      <point x="373" y="510"/>
      <point x="343" y="481"/>
      <point x="330" y="425" type="curve" smooth="yes"/>
      <point x="310" y="340" type="line" smooth="yes"/>
      <point x="303" y="309"/>
      <point x="284" y="290"/>
      <point x="245" y="290" type="curve" smooth="yes"/>
      <point x="175" y="290" type="line"/>
      <point x="175" y="500" type="line"/>
      <point x="75" y="500" type="line"/>
      <point x="75" y="0" type="line"/>
      <point x="175" y="0" type="line"/>
      <point x="175" y="220" type="line"/>
      <point x="255" y="220" type="line" smooth="yes"/>
      <point x="290" y="220"/>
      <point x="312" y="201"/>
      <point x="320" y="170" type="curve" smooth="yes"/>
      <point x="345" y="75" type="line" smooth="yes"/>
      <point x="360" y="20"/>
      <point x="389" y="-10"/>
    </contour>
  </outline>
</glyph>
<glyph name="Kabashkir-cy" format="2">
  <advance width="695"/>
  <unicode hex="04A0"/>
  <outline>
    <component base="Ka-cy" xOffset="110"/>
    <contour>
      <point x="200" y="630" type="line"/>
      <point x="300" y="700" type="line"/>
      <point x="10" y="700" type="line"/>
      <point x="10" y="630" type="line"/>
    </contour>
  </outline>
</glyph>
<glyph name="Enghe-cy" format="2">
  <advance width="800"/>
  <unicode hex="04A4"/>
  <outline>
    <component base="En-cy"/>
    <contour>
      <point x="790" y="630" type="line"/>
      <point x="790" y="700" type="line"/>
      <point x="440" y="700" type="line"/>
      <point x="540" y="630" type="line"/>
    </contour>
  </outline>
</glyph>
<glyph name="Esdescender-cy" format="2">
  <advance width="515"/>
  <unicode hex="04AA"/>
  <outline>
    <component base="Es-cy"/>
    <contour>
      <point x="355" y="-150" type="line"/>
      <point x="355" y="0" type="line"/>
      <point x="260" y="0" type="line"/>
      <point x="275" y="-150" type="line"/>
    </contour>
  </outline>
</glyph>
<glyph name="ustrait-cy" format="2">
  <advance width="470"/>
  <unicode hex="04AF"/>
  <anchor x="232" y="0" name="center"/>
  <outline>
    <contour>
      <point x="255" y="-200" type="line"/>
      <point x="285" y="-170" type="line"/>
      <point x="285" y="0" type="line"/>
      <point x="455" y="500" type="line"/>
      <point x="355" y="500" type="line"/>
      <point x="250" y="192" type="line" smooth="yes"/>
      <point x="245" y="177"/>
      <point x="243" y="161"/>
      <point x="240" y="146" type="curve"/>
      <point x="237" y="122" type="line"/>
      <point x="233" y="122" type="line"/>
      <point x="230" y="146" type="line"/>
      <point x="227" y="161"/>
      <point x="225" y="177"/>
      <point x="220" y="192" type="curve" smooth="yes"/>
      <point x="115" y="500" type="line"/>
      <point x="15" y="500" type="line"/>
      <point x="185" y="0" type="line"/>
      <point x="185" y="-200" type="line"/>
    </contour>
  </outline>
</glyph>
<glyph name="Chekhakassian-cy" format="2">
  <advance width="600"/>
  <unicode hex="04CB"/>
  <outline>
    <component base="Che-cy"/>
    <contour>
      <point x="425" y="-150" type="line"/>
      <point x="440" y="0" type="line"/>
      <point x="510" y="0" type="line"/>
      <point x="510" y="70" type="line"/>
      <point x="345" y="70" type="line"/>
      <point x="345" y="-150" type="line"/>
    </contour>
  </outline>
</glyph>
<glyph name="chekhakassian-cy" format="2">
  <advance width="520"/>
  <unicode hex="04CC"/>
  <outline>
    <component base="che-cy"/>
    <contour>
      <point x="360" y="-140" type="line"/>
      <point x="375" y="0" type="line"/>
      <point x="445" y="0" type="line"/>
      <point x="445" y="70" type="line"/>
      <point x="280" y="70" type="line"/>
      <point x="280" y="-140" type="line"/>
    </contour>
  </outline>
</glyph>
<glyph name="Obarred-cy" format="2">
  <advance width="600"/>
  <unicode hex="04E8"/>
  <outline>
    <contour>
      <point x="300" y="-10" type="curve" smooth="yes"/>
      <point x="445" y="-10"/>
      <point x="545" y="90"/>
      <point x="545" y="350" type="curve" smooth="yes"/>
      <point x="545" y="610"/>
      <point x="445" y="710"/>
      <point x="300" y="710" type="curve" smooth="yes"/>
      <point x="155" y="710"/>
      <point x="55" y="610"/>
      <point x="55" y="350" type="curve" smooth="yes"/>
      <point x="55" y="90"/>
      <point x="155" y="-10"/>
    </contour>
    <contour>
      <point x="300" y="60" type="curve" smooth="yes"/>
      <point x="225" y="60"/>
      <point x="155" y="130"/>
      <point x="155" y="350" type="curve" smooth="yes"/>
      <point x="155" y="570"/>
      <point x="225" y="640"/>
      <point x="300" y="640" type="curve" smooth="yes"/>
      <point x="375" y="640"/>
      <point x="445" y="570"/>
      <point x="445" y="350" type="curve" smooth="yes"/>
      <point x="445" y="130"/>
      <point x="375" y="60"/>
    </contour>
    <contour>
      <point x="440" y="315" type="line"/>
      <point x="440" y="385" type="line"/>
      <point x="160" y="385" type="line"/>
      <point x="160" y="315" type="line"/>
    </contour>
  </outline>
</glyph>
<glyph name="emdash" format="2">
  <advance width="720"/>
  <unicode hex="2014"/>
  <outline>
    <contour>
      <point x="690" y="250" type="line"/>
      <point x="690" y="330" type="line"/>
      <point x="30" y="330" type="line"/>
      <point x="30" y="250" type="line"/>
    </contour>
  </outline>
</glyph>
<glyph name="quoteleft" format="2">
  <advance width="200"/>
  <unicode hex="2018"/>
  <outline>
    <contour>
      <point x="105" y="470" type="curve" smooth="yes"/>
      <point x="136" y="470"/>
      <point x="160" y="495"/>
      <point x="160" y="530" type="curve" smooth="yes"/>
      <point x="160" y="565"/>
      <point x="136" y="590"/>
      <point x="105" y="590" type="curve"/>
      <point x="105" y="613"/>
      <point x="117" y="633"/>
      <point x="132" y="649" type="curve"/>
      <point x="140" y="658"/>
      <point x="149" y="667"/>
      <point x="160" y="675" type="curve"/>
      <point x="130" y="710" type="line"/>
      <point x="113" y="699"/>
      <point x="98" y="685"/>
      <point x="85" y="668" type="curve"/>
      <point x="62" y="640"/>
      <point x="40" y="597"/>
      <point x="40" y="540" type="curve" smooth="yes"/>
      <point x="40" y="495"/>
      <point x="65" y="470"/>
    </contour>
  </outline>
</glyph>
<glyph name="dagger" format="2">
  <advance width="460"/>
  <unicode hex="2020"/>
  <outline>
    <contour>
      <point x="280" y="-200" type="line"/>
      <point x="280" y="410" type="line"/>
      <point x="440" y="410" type="line"/>
      <point x="440" y="480" type="line"/>
      <point x="280" y="480" type="line"/>
      <point x="280" y="700" type="line"/>
      <point x="180" y="700" type="line"/>
      <point x="180" y="480" type="line"/>
      <point x="20" y="480" type="line"/>
      <point x="20" y="410" type="line"/>
      <point x="180" y="410" type="line"/>
      <point x="180" y="-200" type="line"/>
    </contour>
  </outline>
</glyph>
<glyph name="bullet" format="2">
  <advance width="370"/>
  <unicode hex="2022"/>
  <outline>
    <contour>
      <point x="185" y="190" type="curve" smooth="yes"/>
      <point x="256" y="190"/>
      <point x="305" y="239"/>
      <point x="305" y="310" type="curve" smooth="yes"/>
      <point x="305" y="381"/>
      <point x="256" y="430"/>
      <point x="185" y="430" type="curve" smooth="yes"/>
      <point x="114" y="430"/>
      <point x="65" y="381"/>
      <point x="65" y="310" type="curve" smooth="yes"/>
      <point x="65" y="239"/>
      <point x="114" y="190"/>
    </contour>
  </outline>
</glyph>
<glyph name="guilsinglleft" format="2">
  <advance width="330"/>
  <unicode hex="2039"/>
  <outline>
    <contour>
      <point x="320" y="50" type="line"/>
      <point x="130" y="260" type="line"/>
      <point x="320" y="470" type="line"/>
      <point x="200" y="470" type="line"/>
      <point x="10" y="260" type="line"/>
      <point x="200" y="50" type="line"/>
    </contour>
  </outline>
</glyph>
<glyph name="tugrik" format="2">
  <advance width="480"/>
  <unicode hex="20AE"/>
  <outline>
    <component base="T"/>
    <contour>
      <point x="428" y="420" type="line"/>
      <point x="428" y="480" type="line"/>
      <point x="53" y="380" type="line"/>
      <point x="53" y="320" type="line"/>
    </contour>
    <contour>
      <point x="428" y="300" type="line"/>
      <point x="428" y="360" type="line"/>
      <point x="53" y="260" type="line"/>
      <point x="53" y="200" type="line"/>
    </contour>
  </outline>
</glyph>
<glyph name="hryvnia" format="2">
  <advance width="519"/>
  <unicode hex="20B4"/>
  <outline>
    <contour>
      <point x="284" y="-10" type="curve" smooth="yes"/>
      <point x="373" y="-10"/>
      <point x="449" y="16"/>
      <point x="489" y="45" type="curve"/>
      <point x="454" y="105" type="line"/>
      <point x="444" y="105" type="line"/>
      <point x="414" y="82"/>
      <point x="356" y="60"/>
      <point x="284" y="60" type="curve" smooth="yes"/>
      <point x="209" y="60"/>
      <point x="164" y="104"/>
      <point x="164" y="168" type="curve" smooth="yes"/>
      <point x="164" y="247"/>
      <point x="198" y="295"/>
      <point x="305" y="342" type="curve" smooth="yes"/>
      <point x="411" y="388"/>
      <point x="479" y="435"/>
      <point x="479" y="530" type="curve" smooth="yes"/>
      <point x="479" y="647"/>
      <point x="382" y="710"/>
      <point x="271" y="710" type="curve" smooth="yes"/>
      <point x="205" y="710"/>
      <point x="133" y="691"/>
      <point x="74" y="655" type="curve"/>
      <point x="109" y="595" type="line"/>
      <point x="119" y="595" type="line"/>
      <point x="158" y="624"/>
      <point x="205" y="640"/>
      <point x="248" y="640" type="curve" smooth="yes"/>
      <point x="314" y="640"/>
      <point x="369" y="604"/>
      <point x="369" y="530" type="curve" smooth="yes"/>
      <point x="369" y="473"/>
      <point x="347" y="430"/>
      <point x="235" y="378" type="curve" smooth="yes"/>
      <point x="107" y="318"/>
      <point x="54" y="268"/>
      <point x="54" y="160" type="curve" smooth="yes"/>
      <point x="54" y="54"/>
      <point x="145" y="-10"/>
    </contour>
    <contour>
      <point x="504" y="250" type="line"/>
      <point x="504" y="320" type="line"/>
      <point x="15" y="320" type="line"/>
      <point x="15" y="250" type="line"/>
    </contour>
    <contour>
      <point x="504" y="370" type="line"/>
      <point x="504" y="440" type="line"/>
      <point x="15" y="440" type="line"/>
      <point x="15" y="370" type="line"/>
    </contour>
  </outline>
</glyph>
<glyph name="ruble" format="2">
  <advance width="570"/>
  <unicode hex="20BD"/>
  <outline>
    <component base="P" xOffset="10"/>
    <contour>
      <point x="300" y="110" type="line"/>
      <point x="300" y="180" type="line"/>
      <point x="20" y="180" type="line"/>
      <point x="20" y="110" type="line"/>
    </contour>
    <contour>
      <point x="190" y="240" type="line"/>
      <point x="190" y="310" type="line"/>
      <point x="20" y="310" type="line"/>
      <point x="20" y="240" type="line"/>
    </contour>
  </outline>
</glyph>
<glyph name="numero" format="2">
  <advance width="956"/>
  <unicode hex="2116"/>
  <outline>
    <contour>
      <point x="190" y="0" type="line"/>
      <point x="190" y="445" type="line" smooth="yes"/>
      <point x="190" y="460"/>
      <point x="189" y="480"/>
      <point x="188" y="499" type="curve" smooth="yes"/>
      <point x="186" y="530" type="line"/>
      <point x="190" y="530" type="line"/>
      <point x="193" y="519"/>
      <point x="197" y="509"/>
      <point x="200" y="499" type="curve"/>
      <point x="207" y="480"/>
      <point x="213" y="460"/>
      <point x="220" y="445" type="curve" smooth="yes"/>
      <point x="430" y="0" type="line"/>
      <point x="540" y="0" type="line"/>
      <point x="540" y="700" type="line"/>
      <point x="440" y="700" type="line"/>
      <point x="440" y="255" type="line" smooth="yes"/>
      <point x="440" y="240"/>
      <point x="441" y="218"/>
      <point x="442" y="201" type="curve" smooth="yes"/>
      <point x="444" y="170" type="line"/>
      <point x="440" y="170" type="line"/>
      <point x="437" y="180"/>
      <point x="433" y="190"/>
      <point x="430" y="201" type="curve"/>
      <point x="423" y="218"/>
      <point x="417" y="240"/>
      <point x="410" y="255" type="curve" smooth="yes"/>
      <point x="200" y="700" type="line"/>
      <point x="90" y="700" type="line"/>
      <point x="90" y="0" type="line"/>
    </contour>
    <contour>
      <point x="901" y="220" type="line"/>
      <point x="901" y="290" type="line"/>
      <point x="621" y="290" type="line"/>
      <point x="621" y="220" type="line"/>
    </contour>
    <contour>
      <point x="761" y="350" type="curve" smooth="yes"/>
      <point x="857" y="350"/>
      <point x="921" y="414"/>
      <point x="921" y="530" type="curve" smooth="yes"/>
      <point x="921" y="646"/>
      <point x="857" y="710"/>
      <point x="761" y="710" type="curve" smooth="yes"/>
      <point x="665" y="710"/>
      <point x="601" y="646"/>
      <point x="601" y="530" type="curve" smooth="yes"/>
      <point x="601" y="414"/>
      <point x="665" y="350"/>
    </contour>
    <contour>
      <point x="761" y="410" type="curve" smooth="yes"/>
      <point x="721" y="410"/>
      <point x="691" y="439"/>
      <point x="691" y="530" type="curve" smooth="yes"/>
      <point x="691" y="619"/>
      <point x="721" y="650"/>
      <point x="761" y="650" type="curve" smooth="yes"/>
      <point x="801" y="650"/>
      <point x="831" y="619"/>
      <point x="831" y="530" type="curve" smooth="yes"/>
      <point x="831" y="439"/>
      <point x="801" y="410"/>
    </contour>
  </outline>
</glyph>
<glyph name="trademark" format="2">
  <advance width="850"/>
  <unicode hex="2122"/>
  <outline>
    <contour>
      <point x="470" y="320" type="line"/>
      <point x="470" y="500" type="line" smooth="yes"/>
      <point x="470" y="512"/>
      <point x="469" y="526"/>
      <point x="468" y="537" type="curve"/>
      <point x="467" y="544"/>
      <point x="467" y="550"/>
      <point x="467" y="555" type="curve"/>
      <point x="472" y="555" type="line"/>
      <point x="479" y="536" type="line" smooth="yes"/>
      <point x="483" y="525"/>
      <point x="488" y="512"/>
      <point x="495" y="500" type="curve"/>
      <point x="555" y="385" type="line"/>
      <point x="635" y="385" type="line"/>
      <point x="695" y="500" type="line"/>
      <point x="702" y="512"/>
      <point x="707" y="525"/>
      <point x="711" y="536" type="curve" smooth="yes"/>
      <point x="718" y="555" type="line"/>
      <point x="723" y="555" type="line"/>
      <point x="721" y="537" type="line" smooth="yes"/>
      <point x="720" y="526"/>
      <point x="720" y="512"/>
      <point x="720" y="500" type="curve" smooth="yes"/>
      <point x="720" y="320" type="line"/>
      <point x="810" y="320" type="line"/>
      <point x="810" y="700" type="line"/>
      <point x="715" y="700" type="line"/>
      <point x="610" y="500" type="line"/>
      <point x="600" y="477" type="line"/>
      <point x="597" y="465" type="line"/>
      <point x="593" y="465" type="line"/>
      <point x="589" y="477" type="line"/>
      <point x="587" y="485"/>
      <point x="584" y="493"/>
      <point x="580" y="500" type="curve"/>
      <point x="475" y="700" type="line"/>
      <point x="380" y="700" type="line"/>
      <point x="380" y="320" type="line"/>
    </contour>
    <contour>
      <point x="220" y="320" type="line"/>
      <point x="220" y="635" type="line"/>
      <point x="340" y="635" type="line"/>
      <point x="340" y="700" type="line"/>
      <point x="10" y="700" type="line"/>
      <point x="10" y="635" type="line"/>
      <point x="130" y="635" type="line"/>
      <point x="130" y="320" type="line"/>
    </contour>
  </outline>
</glyph>
<glyph name="Decyr.loclBGR" format="2">
  <advance width="650"/>
  <outline>
    <contour>
      <point x="381" y="700" type="line"/>
      <point x="278" y="700" type="line"/>
      <point x="102" y="70" type="line"/>
      <point x="40" y="70" type="line"/>
      <point x="40" y="-150" type="line"/>
      <point x="125" y="-150" type="line"/>
      <point x="140" y="0" type="line"/>
      <point x="515" y="0" type="line"/>
      <point x="530" y="-150" type="line"/>
      <point x="610" y="-150" type="line"/>
      <point x="610" y="70" type="line"/>
      <point x="556" y="70" type="line"/>
    </contour>
    <contour>
      <point x="311" y="525" type="line" smooth="yes"/>
      <point x="315" y="540"/>
      <point x="318" y="556"/>
      <point x="321" y="571" type="curve"/>
      <point x="324" y="595" type="line"/>
      <point x="328" y="595" type="line"/>
      <point x="332" y="571" type="line"/>
      <point x="335" y="556"/>
      <point x="337" y="540"/>
      <point x="341" y="525" type="curve" smooth="yes"/>
      <point x="466" y="70" type="line"/>
      <point x="185" y="70" type="line"/>
    </contour>
  </outline>
</glyph>
<glyph name="Elcyr.loclBGR" format="2">
  <advance width="523"/>
  <outline>
    <contour>
      <point x="313" y="700" type="line"/>
      <point x="210" y="700" type="line"/>
      <point x="15" y="0" type="line"/>
      <point x="98" y="0" type="line"/>
      <point x="243" y="525" type="line" smooth="yes"/>
      <point x="247" y="540"/>
      <point x="250" y="556"/>
      <point x="253" y="571" type="curve"/>
      <point x="256" y="595" type="line"/>
      <point x="260" y="595" type="line"/>
      <point x="264" y="571" type="line"/>
      <point x="267" y="556"/>
      <point x="269" y="540"/>
      <point x="273" y="525" type="curve" smooth="yes"/>
      <point x="418" y="0" type="line"/>
      <point x="508" y="0" type="line"/>
    </contour>
  </outline>
</glyph>
<glyph name="brevecomb-cy.case" format="2">
  <advance width="400"/>
  <anchor x="200" y="700" name="_top"/>
  <outline>
    <contour>
      <point x="200" y="750" type="curve" smooth="yes"/>
      <point x="300" y="750"/>
      <point x="350" y="800"/>
      <point x="350" y="880" type="curve"/>
      <point x="260" y="880" type="line"/>
      <point x="260" y="829"/>
      <point x="240" y="810"/>
      <point x="200" y="810" type="curve" smooth="yes"/>
      <point x="160" y="810"/>
      <point x="140" y="829"/>
      <point x="140" y="880" type="curve"/>
      <point x="50" y="880" type="line"/>
      <point x="50" y="800"/>
      <point x="100" y="750"/>
    </contour>
  </outline>
</glyph>
<glyph name="brevecomb-cy" format="2">
  <advance width="400"/>
  <anchor x="200" y="500" name="_top"/>
  <outline>
    <contour>
      <point x="200" y="550" type="curve" smooth="yes"/>
      <point x="300" y="550"/>
      <point x="350" y="600"/>
      <point x="350" y="680" type="curve"/>
      <point x="260" y="680" type="line"/>
      <point x="260" y="629"/>
      <point x="240" y="610"/>
      <point x="200" y="610" type="curve" smooth="yes"/>
      <point x="160" y="610"/>
      <point x="140" y="629"/>
      <point x="140" y="680" type="curve"/>
      <point x="50" y="680" type="line"/>
      <point x="50" y="600"/>
      <point x="100" y="550"/>
    </contour>
  </outline>
</glyph>
<glyph name="descender-cy.case" format="2">
  <advance width="215"/>
  <anchor x="91" y="0" name="_bottom"/>
  <anchor x="0" y="0" name="_bottomright"/>
  <outline>
    <contour>
      <point x="165" y="-150" type="line"/>
      <point x="165" y="70" type="line"/>
      <point x="0" y="70" type="line"/>
      <point x="0" y="0" type="line"/>
      <point x="70" y="0" type="line"/>
      <point x="85" y="-150" type="line"/>
    </contour>
  </outline>
</glyph>
<glyph name="descender-cy" format="2">
  <advance width="215"/>
  <anchor x="91" y="0" name="_bottom"/>
  <anchor x="20" y="-0" name="_bottomright"/>
  <outline>
    <contour>
      <point x="165" y="-140" type="line"/>
      <point x="165" y="70" type="line"/>
      <point x="20" y="70" type="line"/>
      <point x="20" y="0" type="line"/>
      <point x="70" y="0" type="line"/>
      <point x="85" y="-140" type="line"/>
    </contour>
  </outline>
</glyph>
<glyph name="elcyr.loclBGR" format="2">
  <advance width="470"/>
  <outline>
    <contour>
      <point x="278" y="500" type="line"/>
      <point x="185" y="500" type="line"/>
      <point x="25" y="0" type="line"/>
      <point x="108" y="0" type="line"/>
      <point x="213" y="330" type="line" smooth="yes"/>
      <point x="218" y="345"/>
      <point x="220" y="361"/>
      <point x="223" y="376" type="curve"/>
      <point x="226" y="400" type="line"/>
      <point x="230" y="400" type="line"/>
      <point x="233" y="376" type="line"/>
      <point x="236" y="361"/>
      <point x="238" y="345"/>
      <point x="243" y="330" type="curve" smooth="yes"/>
      <point x="348" y="0" type="line"/>
      <point x="438" y="0" type="line"/>
    </contour>
  </outline>
</glyph>
<glyph name="gecyr.loclBGR" format="2">
  <advance width="460"/>
  <outline>
    <contour>
      <point x="240" y="-10" type="curve" smooth="yes"/>
      <point x="300" y="-10"/>
      <point x="347" y="2"/>
      <point x="378" y="17" type="curve"/>
      <point x="396" y="25"/>
      <point x="412" y="34"/>
      <point x="425" y="45" type="curve"/>
      <point x="390" y="105" type="line"/>
      <point x="380" y="105" type="line"/>
      <point x="370" y="96"/>
      <point x="358" y="89"/>
      <point x="345" y="82" type="curve"/>
      <point x="322" y="71"/>
      <point x="290" y="60"/>
      <point x="250" y="60" type="curve" smooth="yes"/>
      <point x="165" y="60"/>
      <point x="135" y="90"/>
      <point x="135" y="130" type="curve" smooth="yes"/>
      <point x="135" y="240"/>
      <point x="415" y="195"/>
      <point x="415" y="365" type="curve" smooth="yes"/>
      <point x="415" y="450"/>
      <point x="356" y="510"/>
      <point x="225" y="510" type="curve" smooth="yes"/>
      <point x="169" y="510"/>
      <point x="127" y="497"/>
      <point x="96" y="482" type="curve" smooth="yes"/>
      <point x="79" y="474"/>
      <point x="63" y="465"/>
      <point x="50" y="455" type="curve"/>
      <point x="85" y="395" type="line"/>
      <point x="95" y="395" type="line"/>
      <point x="106" y="403"/>
      <point x="117" y="410"/>
      <point x="129" y="417" type="curve"/>
      <point x="150" y="428"/>
      <point x="180" y="440"/>
      <point x="215" y="440" type="curve" smooth="yes"/>
      <point x="286" y="440"/>
      <point x="315" y="410"/>
      <point x="315" y="375" type="curve" smooth="yes"/>
      <point x="315" y="266"/>
      <point x="35" y="309"/>
      <point x="35" y="140" type="curve" smooth="yes"/>
      <point x="35" y="50"/>
      <point x="95" y="-10"/>
    </contour>
  </outline>
</glyph>
<glyph name="hardcyr.loclBGR" format="2">
  <advance width="696"/>
  <outline>
    <component base="softcyr.loclBGR" xOffset="65"/>
    <contour>
      <point x="240" y="500" type="line"/>
      <point x="10" y="500" type="line"/>
      <point x="10" y="430" type="line"/>
      <point x="240" y="430" type="line"/>
    </contour>
  </outline>
</glyph>
<glyph name="shacyr.loclBGR" format="2">
  <advance width="805"/>
  <outline>
    <contour>
      <point x="380" y="60" type="curve"/>
      <point x="405" y="14"/>
      <point x="459" y="-10"/>
      <point x="510" y="-10" type="curve" smooth="yes"/>
      <point x="565" y="-10"/>
      <point x="611" y="19"/>
      <point x="645" y="60" type="curve"/>
      <point x="645.779" y="60"/>
      <point x="649.142" y="60"/>
      <point x="650" y="60" type="curve"/>
      <point x="651.359" y="51.8458"/>
      <point x="657.476" y="15.1436"/>
      <point x="660" y="0" type="curve"/>
      <point x="730" y="0" type="line"/>
      <point x="730" y="500" type="line"/>
      <point x="630" y="500" type="line"/>
      <point x="630" y="439.203"/>
      <point x="630" y="192.529"/>
      <point x="630" y="125" type="curve"/>
      <point x="607" y="97"/>
      <point x="572" y="65"/>
      <point x="535" y="65" type="curve" smooth="yes"/>
      <point x="490" y="65"/>
      <point x="450" y="104"/>
      <point x="450" y="160" type="curve" smooth="yes"/>
      <point x="450" y="500" type="line"/>
      <point x="350" y="500" type="line"/>
      <point x="350" y="421.217"/>
      <point x="350" y="187.272"/>
      <point x="350" y="115" type="curve"/>
      <point x="325" y="90"/>
      <point x="291" y="65"/>
      <point x="255" y="65" type="curve" smooth="yes"/>
      <point x="210" y="65"/>
      <point x="170" y="104"/>
      <point x="170" y="160" type="curve" smooth="yes"/>
      <point x="170" y="217.02"/>
      <point x="170" y="443.381"/>
      <point x="170" y="500" type="curve"/>
      <point x="70" y="500" type="line"/>
      <point x="70" y="160" type="line" smooth="yes"/>
      <point x="70" y="60"/>
      <point x="140" y="-10"/>
      <point x="230" y="-10" type="curve" smooth="yes"/>
      <point x="286" y="-10"/>
      <point x="342" y="19"/>
    </contour>
  </outline>
</glyph>
<glyph name="verticalbar-cy" format="2">
  <advance width="140"/>
  <anchor x="70" y="257" name="_center"/>
  <outline>
    <contour>
      <point x="90" y="127" type="line"/>
      <point x="90" y="387" type="line"/>
      <point x="50" y="387" type="line"/>
      <point x="50" y="127" type="line"/>
    </contour>
  </outline>
</glyph>
<glyph name="yucyr.loclBGR" format="2">
  <advance width="715"/>
  <outline>
    <contour>
      <point x="175" y="700" type="line"/>
      <point x="105" y="700" type="line"/>
      <point x="75" y="670" type="line"/>
      <point x="75" y="0" type="line"/>
      <point x="175" y="0" type="line"/>
      <point x="175" y="220" type="line"/>
      <point x="255" y="220" type="line"/>
      <point x="266" y="64"/>
      <point x="344" y="-10"/>
      <point x="460" y="-10" type="curve" smooth="yes"/>
      <point x="580" y="-10"/>
      <point x="665" y="75"/>
      <point x="665" y="250" type="curve" smooth="yes"/>
      <point x="665" y="425"/>
      <point x="580" y="510"/>
      <point x="460" y="510" type="curve" smooth="yes"/>
      <point x="350" y="510"/>
      <point x="266" y="439"/>
      <point x="255" y="290" type="curve"/>
      <point x="239.025" y="290"/>
      <point x="190.368" y="290"/>
      <point x="175" y="290" type="curve"/>
    </contour>
    <contour>
      <point x="565" y="250" type="curve" smooth="yes"/>
      <point x="565" y="110"/>
      <point x="516" y="60"/>
      <point x="460" y="60" type="curve" smooth="yes"/>
      <point x="404" y="60"/>
      <point x="355" y="110"/>
      <point x="355" y="250" type="curve" smooth="yes"/>
      <point x="355" y="390"/>
      <point x="404" y="440"/>
      <point x="460" y="440" type="curve" smooth="yes"/>
      <point x="516" y="440"/>
      <point x="565" y="390"/>
    </contour>
  </outline>
</glyph>
